%TF.GenerationSoftware,KiCad,Pcbnew,7.0.2-0*%
%TF.CreationDate,2024-07-21T16:06:54-04:00*%
%TF.ProjectId,Tree Ornanment 2024,54726565-204f-4726-9e61-6e6d656e7420,rev?*%
%TF.SameCoordinates,Original*%
%TF.FileFunction,Legend,Top*%
%TF.FilePolarity,Positive*%
%FSLAX46Y46*%
G04 Gerber Fmt 4.6, Leading zero omitted, Abs format (unit mm)*
G04 Created by KiCad (PCBNEW 7.0.2-0) date 2024-07-21 16:06:54*
%MOMM*%
%LPD*%
G01*
G04 APERTURE LIST*
%ADD10C,0.150000*%
%ADD11C,0.175000*%
%ADD12C,0.250000*%
%ADD13C,0.100000*%
%ADD14C,0.120000*%
%ADD15C,0.152400*%
G04 APERTURE END LIST*
D10*
X132000666Y-78710619D02*
X132000666Y-79424904D01*
X132000666Y-79424904D02*
X131953047Y-79567761D01*
X131953047Y-79567761D02*
X131857809Y-79663000D01*
X131857809Y-79663000D02*
X131714952Y-79710619D01*
X131714952Y-79710619D02*
X131619714Y-79710619D01*
X132429238Y-78805857D02*
X132476857Y-78758238D01*
X132476857Y-78758238D02*
X132572095Y-78710619D01*
X132572095Y-78710619D02*
X132810190Y-78710619D01*
X132810190Y-78710619D02*
X132905428Y-78758238D01*
X132905428Y-78758238D02*
X132953047Y-78805857D01*
X132953047Y-78805857D02*
X133000666Y-78901095D01*
X133000666Y-78901095D02*
X133000666Y-78996333D01*
X133000666Y-78996333D02*
X132953047Y-79139190D01*
X132953047Y-79139190D02*
X132381619Y-79710619D01*
X132381619Y-79710619D02*
X133000666Y-79710619D01*
D11*
X147561500Y-85598000D02*
G75*
G03*
X147561500Y-85598000I-87500J0D01*
G01*
X134087500Y-95500000D02*
G75*
G03*
X134087500Y-95500000I-87500J0D01*
G01*
X136231500Y-89662000D02*
G75*
G03*
X136231500Y-89662000I-87500J0D01*
G01*
D12*
G36*
X147232406Y-83287256D02*
G01*
X147242275Y-83287767D01*
X147252251Y-83288586D01*
X147262334Y-83289713D01*
X147272523Y-83291149D01*
X147282820Y-83292892D01*
X147293223Y-83294944D01*
X147303733Y-83297304D01*
X147314350Y-83299972D01*
X147325074Y-83302948D01*
X147335904Y-83306232D01*
X147346842Y-83309825D01*
X147357886Y-83313726D01*
X147369037Y-83317935D01*
X147380295Y-83322452D01*
X147393597Y-83328075D01*
X147406635Y-83334137D01*
X147419410Y-83340638D01*
X147431922Y-83347578D01*
X147444171Y-83354957D01*
X147456156Y-83362775D01*
X147467877Y-83371031D01*
X147479336Y-83379727D01*
X147490531Y-83388861D01*
X147501463Y-83398434D01*
X147512131Y-83408446D01*
X147522536Y-83418897D01*
X147532678Y-83429787D01*
X147542557Y-83441116D01*
X147552172Y-83452883D01*
X147561524Y-83465090D01*
X147570504Y-83477580D01*
X147579067Y-83490262D01*
X147587212Y-83503134D01*
X147594939Y-83516197D01*
X147602248Y-83529451D01*
X147609139Y-83542896D01*
X147615613Y-83556532D01*
X147621668Y-83570358D01*
X147627306Y-83584375D01*
X147632526Y-83598584D01*
X147637328Y-83612982D01*
X147641712Y-83627572D01*
X147645678Y-83642353D01*
X147649226Y-83657324D01*
X147652356Y-83672486D01*
X147655069Y-83687839D01*
X147657371Y-83703304D01*
X147659270Y-83718862D01*
X147660767Y-83734513D01*
X147661862Y-83750258D01*
X147662553Y-83766097D01*
X147662842Y-83782029D01*
X147662729Y-83798055D01*
X147662213Y-83814174D01*
X147661294Y-83830386D01*
X147659973Y-83846692D01*
X147658249Y-83863092D01*
X147656122Y-83879585D01*
X147653593Y-83896171D01*
X147650661Y-83912852D01*
X147647326Y-83929625D01*
X147643589Y-83946492D01*
X147625027Y-84019032D01*
X147604868Y-84017768D01*
X147584751Y-84016508D01*
X147564678Y-84015253D01*
X147544648Y-84014002D01*
X147524661Y-84012757D01*
X147504716Y-84011516D01*
X147484815Y-84010280D01*
X147464956Y-84009049D01*
X147445140Y-84007822D01*
X147425368Y-84006601D01*
X147405638Y-84005384D01*
X147385951Y-84004172D01*
X147366307Y-84002964D01*
X147346706Y-84001762D01*
X147327148Y-84000564D01*
X147307633Y-83999371D01*
X147288161Y-83998182D01*
X147268732Y-83996999D01*
X147249345Y-83995820D01*
X147230002Y-83994646D01*
X147210702Y-83993477D01*
X147191444Y-83992313D01*
X147172230Y-83991153D01*
X147153058Y-83989998D01*
X147133929Y-83988848D01*
X147114843Y-83987702D01*
X147095801Y-83986562D01*
X147076801Y-83985426D01*
X147057844Y-83984295D01*
X147038930Y-83983169D01*
X147020059Y-83982047D01*
X147001230Y-83980930D01*
X147003917Y-84107448D01*
X147004352Y-84121121D01*
X147004619Y-84134296D01*
X147004719Y-84146973D01*
X147004650Y-84159151D01*
X147004413Y-84170832D01*
X147004009Y-84182015D01*
X147003436Y-84192699D01*
X147002696Y-84202886D01*
X147001271Y-84217232D01*
X146999467Y-84230458D01*
X146997286Y-84242563D01*
X146994728Y-84253547D01*
X146991791Y-84263411D01*
X146990728Y-84266450D01*
X146985843Y-84277556D01*
X146979981Y-84287180D01*
X146973143Y-84295324D01*
X146965327Y-84301988D01*
X146956534Y-84307170D01*
X146946764Y-84310872D01*
X146936018Y-84313093D01*
X146924294Y-84313833D01*
X146910588Y-84311923D01*
X146898231Y-84306191D01*
X146887221Y-84296639D01*
X146880630Y-84288147D01*
X146874639Y-84277958D01*
X146869246Y-84266070D01*
X146864453Y-84252484D01*
X146860259Y-84237200D01*
X146856664Y-84220217D01*
X146853668Y-84201537D01*
X146852395Y-84191559D01*
X146851272Y-84181158D01*
X146850298Y-84170331D01*
X146849474Y-84159080D01*
X146848800Y-84147405D01*
X146848276Y-84135305D01*
X146847901Y-84122780D01*
X146847677Y-84109831D01*
X146847602Y-84096457D01*
X146847602Y-83983373D01*
X146717420Y-83983373D01*
X146703582Y-83983285D01*
X146690461Y-83983021D01*
X146678057Y-83982581D01*
X146666370Y-83981965D01*
X146655400Y-83981173D01*
X146645146Y-83980204D01*
X146632591Y-83978640D01*
X146621310Y-83976762D01*
X146611303Y-83974572D01*
X146606778Y-83973359D01*
X146596716Y-83969748D01*
X146586893Y-83964344D01*
X146579526Y-83957772D01*
X146574034Y-83948629D01*
X146571886Y-83937897D01*
X146571852Y-83936234D01*
X146573301Y-83925225D01*
X146577648Y-83914944D01*
X146584893Y-83905390D01*
X146592775Y-83898271D01*
X146602512Y-83891617D01*
X146614104Y-83885429D01*
X146624016Y-83881093D01*
X146631203Y-83878348D01*
X146642601Y-83874464D01*
X146654541Y-83870961D01*
X146667022Y-83867840D01*
X146680044Y-83865102D01*
X146693606Y-83862746D01*
X146707710Y-83860772D01*
X146722354Y-83859179D01*
X146732418Y-83858330D01*
X146742722Y-83857651D01*
X146753266Y-83857142D01*
X146764051Y-83856802D01*
X146775076Y-83856632D01*
X146780679Y-83856611D01*
X146783610Y-83856611D01*
X146996834Y-83856611D01*
X147167560Y-83856611D01*
X147178006Y-83856628D01*
X147188309Y-83856678D01*
X147198469Y-83856761D01*
X147208486Y-83856878D01*
X147218360Y-83857028D01*
X147237678Y-83857429D01*
X147256423Y-83857963D01*
X147274596Y-83858631D01*
X147292197Y-83859432D01*
X147309225Y-83860367D01*
X147325681Y-83861436D01*
X147341565Y-83862638D01*
X147356876Y-83863974D01*
X147371614Y-83865443D01*
X147385780Y-83867046D01*
X147399374Y-83868782D01*
X147412395Y-83870652D01*
X147424844Y-83872656D01*
X147430854Y-83873708D01*
X147440550Y-83875774D01*
X147452444Y-83877974D01*
X147463154Y-83879540D01*
X147474878Y-83880608D01*
X147484754Y-83880685D01*
X147495475Y-83879131D01*
X147499974Y-83877371D01*
X147507546Y-83870853D01*
X147513770Y-83861468D01*
X147518808Y-83850689D01*
X147522796Y-83839778D01*
X147525849Y-83829787D01*
X147527330Y-83824371D01*
X147529542Y-83814712D01*
X147531385Y-83805063D01*
X147533966Y-83785792D01*
X147535072Y-83766557D01*
X147534703Y-83747358D01*
X147532858Y-83728195D01*
X147529539Y-83709069D01*
X147527326Y-83699519D01*
X147524745Y-83689979D01*
X147521795Y-83680448D01*
X147518476Y-83670925D01*
X147514788Y-83661412D01*
X147510732Y-83651908D01*
X147506306Y-83642412D01*
X147501512Y-83632926D01*
X147496350Y-83623449D01*
X147490818Y-83613981D01*
X147484918Y-83604522D01*
X147478649Y-83595073D01*
X147472011Y-83585632D01*
X147465005Y-83576200D01*
X147457629Y-83566777D01*
X147449886Y-83557364D01*
X147441773Y-83547959D01*
X147433291Y-83538564D01*
X147424441Y-83529177D01*
X147415222Y-83519800D01*
X147407902Y-83512526D01*
X147400777Y-83505603D01*
X147390460Y-83495877D01*
X147380584Y-83486942D01*
X147371151Y-83478796D01*
X147362160Y-83471440D01*
X147353612Y-83464874D01*
X147345505Y-83459098D01*
X147335384Y-83452626D01*
X147326050Y-83447557D01*
X147321677Y-83445550D01*
X147310258Y-83441389D01*
X147300067Y-83438773D01*
X147288936Y-83436791D01*
X147276867Y-83435441D01*
X147263860Y-83434726D01*
X147253488Y-83434605D01*
X147242587Y-83434840D01*
X147231159Y-83435432D01*
X147223247Y-83436025D01*
X147211274Y-83437403D01*
X147199992Y-83438976D01*
X147189401Y-83440741D01*
X147179501Y-83442699D01*
X147167377Y-83445611D01*
X147156481Y-83448866D01*
X147146814Y-83452465D01*
X147136459Y-83457447D01*
X147131168Y-83460693D01*
X147122907Y-83467261D01*
X147114610Y-83475820D01*
X147107946Y-83484101D01*
X147101260Y-83493657D01*
X147094551Y-83504488D01*
X147089504Y-83513447D01*
X147084445Y-83523124D01*
X147079372Y-83533517D01*
X147077678Y-83537141D01*
X147072540Y-83548238D01*
X147067565Y-83559608D01*
X147062755Y-83571250D01*
X147058109Y-83583166D01*
X147053626Y-83595354D01*
X147049308Y-83607815D01*
X147045154Y-83620549D01*
X147041164Y-83633556D01*
X147037338Y-83646836D01*
X147033677Y-83660388D01*
X147030179Y-83674214D01*
X147026845Y-83688312D01*
X147023676Y-83702683D01*
X147020671Y-83717328D01*
X147017829Y-83732244D01*
X147015152Y-83747434D01*
X146996834Y-83856611D01*
X146783610Y-83856611D01*
X146793737Y-83856381D01*
X146806117Y-83855360D01*
X146817214Y-83853523D01*
X146827030Y-83850868D01*
X146837496Y-83846402D01*
X146845959Y-83840660D01*
X146853469Y-83832085D01*
X146854441Y-83830477D01*
X146859515Y-83818751D01*
X146863035Y-83808373D01*
X146866911Y-83795487D01*
X146869693Y-83785504D01*
X146872634Y-83774406D01*
X146875732Y-83762194D01*
X146878990Y-83748867D01*
X146882405Y-83734426D01*
X146885979Y-83718871D01*
X146889711Y-83702202D01*
X146893602Y-83684418D01*
X146897651Y-83665519D01*
X146899735Y-83655652D01*
X146901859Y-83645507D01*
X146904022Y-83635083D01*
X146906775Y-83621387D01*
X146909691Y-83607962D01*
X146912770Y-83594807D01*
X146916013Y-83581922D01*
X146919418Y-83569306D01*
X146922987Y-83556961D01*
X146926719Y-83544886D01*
X146930614Y-83533081D01*
X146934672Y-83521545D01*
X146938893Y-83510280D01*
X146943278Y-83499285D01*
X146947825Y-83488560D01*
X146952536Y-83478105D01*
X146957410Y-83467919D01*
X146962447Y-83458004D01*
X146967647Y-83448359D01*
X146973010Y-83438984D01*
X146978537Y-83429878D01*
X146984227Y-83421043D01*
X146990079Y-83412478D01*
X146996095Y-83404183D01*
X147002274Y-83396158D01*
X147008616Y-83388403D01*
X147015122Y-83380917D01*
X147021790Y-83373702D01*
X147035617Y-83360082D01*
X147050096Y-83347541D01*
X147065227Y-83336081D01*
X147073038Y-83330756D01*
X147089036Y-83320992D01*
X147105461Y-83312461D01*
X147122314Y-83305162D01*
X147139594Y-83299096D01*
X147157302Y-83294263D01*
X147175437Y-83290662D01*
X147193999Y-83288294D01*
X147212989Y-83287159D01*
X147232406Y-83287256D01*
G37*
G36*
X146693484Y-82727965D02*
G01*
X146689503Y-82718263D01*
X146685802Y-82708574D01*
X146682382Y-82698899D01*
X146679242Y-82689237D01*
X146676383Y-82679588D01*
X146673804Y-82669953D01*
X146671506Y-82660331D01*
X146669488Y-82650723D01*
X146666987Y-82636335D01*
X146665117Y-82621978D01*
X146663878Y-82607650D01*
X146663271Y-82593352D01*
X146663295Y-82579085D01*
X146663443Y-82574336D01*
X146664318Y-82560617D01*
X146665847Y-82548035D01*
X146668028Y-82536591D01*
X146670862Y-82526285D01*
X146674348Y-82517116D01*
X146680011Y-82506662D01*
X146686835Y-82498230D01*
X146694818Y-82491820D01*
X146703962Y-82487433D01*
X146706429Y-82486653D01*
X146717313Y-82485111D01*
X146727663Y-82488846D01*
X146737149Y-82495824D01*
X146745486Y-82504302D01*
X146752440Y-82512828D01*
X146756011Y-82517672D01*
X146763162Y-82527998D01*
X146770207Y-82538951D01*
X146775421Y-82547576D01*
X146780574Y-82556554D01*
X146785668Y-82565883D01*
X146790701Y-82575565D01*
X146795674Y-82585598D01*
X146800587Y-82595984D01*
X146805440Y-82606721D01*
X146810233Y-82617811D01*
X146815502Y-82629979D01*
X146821174Y-82642182D01*
X146827248Y-82654419D01*
X146833726Y-82666690D01*
X146840606Y-82678996D01*
X146847888Y-82691336D01*
X146855573Y-82703710D01*
X146863661Y-82716119D01*
X146872151Y-82728562D01*
X146881044Y-82741039D01*
X146890339Y-82753551D01*
X146900038Y-82766097D01*
X146910138Y-82778677D01*
X146920642Y-82791292D01*
X146931548Y-82803941D01*
X146942856Y-82816625D01*
X146954139Y-82828928D01*
X146965029Y-82840438D01*
X146975526Y-82851155D01*
X146985629Y-82861077D01*
X146995340Y-82870206D01*
X147004658Y-82878540D01*
X147013582Y-82886081D01*
X147022113Y-82892829D01*
X147030251Y-82898782D01*
X147041722Y-82906224D01*
X147052308Y-82911879D01*
X147062009Y-82915749D01*
X147073569Y-82918131D01*
X147076213Y-82918230D01*
X147080277Y-82907955D01*
X147082258Y-82896492D01*
X147083903Y-82884265D01*
X147085172Y-82873311D01*
X147086470Y-82860829D01*
X147087799Y-82846818D01*
X147088702Y-82836629D01*
X147089158Y-82831279D01*
X147090045Y-82820180D01*
X147090875Y-82808618D01*
X147091648Y-82796595D01*
X147092364Y-82784110D01*
X147093022Y-82771163D01*
X147093623Y-82757755D01*
X147094167Y-82743884D01*
X147094653Y-82729552D01*
X147095083Y-82714758D01*
X147095455Y-82699503D01*
X147095770Y-82683785D01*
X147096027Y-82667606D01*
X147096228Y-82650965D01*
X147096371Y-82633862D01*
X147096457Y-82616298D01*
X147096485Y-82598272D01*
X147096494Y-82587073D01*
X147096519Y-82576068D01*
X147096560Y-82565259D01*
X147096619Y-82554644D01*
X147096694Y-82544223D01*
X147096786Y-82533998D01*
X147096894Y-82523966D01*
X147097019Y-82514130D01*
X147097320Y-82495041D01*
X147097687Y-82476730D01*
X147098121Y-82459198D01*
X147098622Y-82442445D01*
X147099190Y-82426470D01*
X147099824Y-82411273D01*
X147100526Y-82396855D01*
X147101294Y-82383216D01*
X147102129Y-82370355D01*
X147103030Y-82358273D01*
X147103999Y-82346969D01*
X147105034Y-82336443D01*
X147106161Y-82326539D01*
X147108075Y-82312552D01*
X147110254Y-82299608D01*
X147112700Y-82287708D01*
X147115412Y-82276851D01*
X147118390Y-82267037D01*
X147122775Y-82255575D01*
X147127633Y-82245967D01*
X147134371Y-82236566D01*
X147137274Y-82233617D01*
X147146445Y-82226556D01*
X147155214Y-82220882D01*
X147167613Y-82214972D01*
X147179105Y-82212184D01*
X147189692Y-82212517D01*
X147199372Y-82215971D01*
X147208147Y-82222546D01*
X147216016Y-82232242D01*
X147222979Y-82245060D01*
X147227118Y-82255339D01*
X147230854Y-82267006D01*
X147234188Y-82280059D01*
X147235704Y-82287106D01*
X147237752Y-82298494D01*
X147239623Y-82310981D01*
X147241316Y-82324567D01*
X147242832Y-82339252D01*
X147244171Y-82355036D01*
X147245332Y-82371920D01*
X147246316Y-82389902D01*
X147247122Y-82408983D01*
X147247459Y-82418936D01*
X147247751Y-82429164D01*
X147247999Y-82439666D01*
X147248202Y-82450444D01*
X147248361Y-82461496D01*
X147248476Y-82472822D01*
X147248546Y-82484424D01*
X147248572Y-82496300D01*
X147248554Y-82508451D01*
X147248491Y-82520877D01*
X147248384Y-82533578D01*
X147248233Y-82546553D01*
X147248037Y-82559803D01*
X147247797Y-82573328D01*
X147247512Y-82587128D01*
X147247183Y-82601203D01*
X147246606Y-82620248D01*
X147246067Y-82638701D01*
X147245564Y-82656561D01*
X147245099Y-82673830D01*
X147244671Y-82690507D01*
X147244281Y-82706592D01*
X147243927Y-82722085D01*
X147243611Y-82736986D01*
X147243332Y-82751295D01*
X147243090Y-82765012D01*
X147242885Y-82778137D01*
X147242718Y-82790670D01*
X147242588Y-82802611D01*
X147242495Y-82813960D01*
X147242439Y-82824717D01*
X147242420Y-82834882D01*
X147242495Y-82853436D01*
X147242718Y-82869622D01*
X147243090Y-82883439D01*
X147243611Y-82894889D01*
X147244671Y-82907624D01*
X147247183Y-82917009D01*
X147256583Y-82920827D01*
X147267036Y-82921205D01*
X147278305Y-82920195D01*
X147288994Y-82918520D01*
X147301172Y-82916074D01*
X147311282Y-82913733D01*
X147314838Y-82912856D01*
X147325615Y-82909405D01*
X147336148Y-82904545D01*
X147346435Y-82898276D01*
X147356478Y-82890600D01*
X147366276Y-82881515D01*
X147375829Y-82871022D01*
X147382062Y-82863245D01*
X147388187Y-82854841D01*
X147394202Y-82845812D01*
X147400109Y-82836157D01*
X147405907Y-82825875D01*
X147411596Y-82814968D01*
X147417176Y-82803436D01*
X147422559Y-82791348D01*
X147427717Y-82778840D01*
X147432649Y-82765909D01*
X147437357Y-82752557D01*
X147441839Y-82738783D01*
X147446096Y-82724587D01*
X147450128Y-82709970D01*
X147453935Y-82694931D01*
X147457516Y-82679470D01*
X147460873Y-82663588D01*
X147464004Y-82647283D01*
X147466910Y-82630558D01*
X147469591Y-82613410D01*
X147472047Y-82595841D01*
X147474277Y-82577850D01*
X147476283Y-82559437D01*
X147477908Y-82545877D01*
X147479546Y-82532918D01*
X147481197Y-82520559D01*
X147482862Y-82508802D01*
X147484540Y-82497646D01*
X147486232Y-82487092D01*
X147487937Y-82477138D01*
X147490519Y-82463334D01*
X147493132Y-82450883D01*
X147495774Y-82439784D01*
X147498447Y-82430037D01*
X147502057Y-82419145D01*
X147503882Y-82414601D01*
X147509088Y-82404821D01*
X147515546Y-82396698D01*
X147523256Y-82390233D01*
X147532218Y-82385425D01*
X147542433Y-82382276D01*
X147553900Y-82380784D01*
X147558837Y-82380651D01*
X147570226Y-82381598D01*
X147580670Y-82384438D01*
X147590170Y-82389171D01*
X147598725Y-82395798D01*
X147606335Y-82404318D01*
X147613002Y-82414732D01*
X147618723Y-82427039D01*
X147622013Y-82436295D01*
X147624883Y-82446393D01*
X147627333Y-82457332D01*
X147629363Y-82469113D01*
X147630973Y-82481736D01*
X147631621Y-82488362D01*
X147632603Y-82501983D01*
X147633167Y-82515916D01*
X147633313Y-82530162D01*
X147633041Y-82544721D01*
X147632351Y-82559594D01*
X147631243Y-82574779D01*
X147629718Y-82590277D01*
X147627774Y-82606087D01*
X147625413Y-82622211D01*
X147622634Y-82638648D01*
X147619437Y-82655398D01*
X147615822Y-82672460D01*
X147611789Y-82689836D01*
X147607338Y-82707525D01*
X147602470Y-82725526D01*
X147597183Y-82743840D01*
X147591802Y-82761563D01*
X147586223Y-82778798D01*
X147580445Y-82795544D01*
X147574468Y-82811801D01*
X147568294Y-82827570D01*
X147561920Y-82842850D01*
X147555349Y-82857642D01*
X147548579Y-82871946D01*
X147541610Y-82885761D01*
X147534443Y-82899087D01*
X147527078Y-82911925D01*
X147519514Y-82924275D01*
X147511751Y-82936136D01*
X147503791Y-82947508D01*
X147495631Y-82958392D01*
X147487274Y-82968788D01*
X147478718Y-82978695D01*
X147469963Y-82988114D01*
X147461010Y-82997044D01*
X147451859Y-83005486D01*
X147442509Y-83013439D01*
X147432960Y-83020903D01*
X147423213Y-83027880D01*
X147413268Y-83034367D01*
X147403124Y-83040366D01*
X147392782Y-83045877D01*
X147382242Y-83050899D01*
X147371503Y-83055433D01*
X147360565Y-83059478D01*
X147349429Y-83063035D01*
X147338095Y-83066104D01*
X147326562Y-83068683D01*
X147315537Y-83071025D01*
X147305267Y-83073469D01*
X147295753Y-83076016D01*
X147284243Y-83079573D01*
X147274076Y-83083313D01*
X147263257Y-83088246D01*
X147254537Y-83093464D01*
X147247916Y-83098969D01*
X147241490Y-83107107D01*
X147236673Y-83116105D01*
X147232345Y-83127118D01*
X147229235Y-83137380D01*
X147226438Y-83148932D01*
X147223953Y-83161774D01*
X147222295Y-83172252D01*
X147221782Y-83175906D01*
X147219966Y-83188200D01*
X147217815Y-83199803D01*
X147215329Y-83210714D01*
X147212508Y-83220934D01*
X147209353Y-83230463D01*
X147204624Y-83242094D01*
X147199300Y-83252495D01*
X147193381Y-83261667D01*
X147186867Y-83269611D01*
X147185145Y-83271405D01*
X147176504Y-83278669D01*
X147166291Y-83283592D01*
X147156251Y-83284376D01*
X147146382Y-83281022D01*
X147138289Y-83275065D01*
X147131900Y-83268230D01*
X147125878Y-83259853D01*
X147120513Y-83250354D01*
X147115803Y-83239734D01*
X147111750Y-83227991D01*
X147109141Y-83218447D01*
X147106902Y-83208273D01*
X147105031Y-83197467D01*
X147103530Y-83186031D01*
X147102398Y-83173963D01*
X147102103Y-83169800D01*
X147101280Y-83159445D01*
X147100277Y-83149721D01*
X147098659Y-83137738D01*
X147096720Y-83126877D01*
X147094461Y-83117138D01*
X147091186Y-83106542D01*
X147086595Y-83096140D01*
X147084029Y-83091886D01*
X147076627Y-83083174D01*
X147068367Y-83076637D01*
X147058338Y-83070958D01*
X147048629Y-83066882D01*
X147037692Y-83063402D01*
X147030540Y-83061600D01*
X147017617Y-83057494D01*
X147008534Y-83053808D01*
X146999077Y-83049362D01*
X146989246Y-83044157D01*
X146979042Y-83038192D01*
X146968463Y-83031467D01*
X146957510Y-83023984D01*
X146946183Y-83015740D01*
X146934483Y-83006738D01*
X146922408Y-82996976D01*
X146909959Y-82986454D01*
X146897136Y-82975173D01*
X146883940Y-82963133D01*
X146870369Y-82950333D01*
X146856424Y-82936774D01*
X146849311Y-82929709D01*
X146842224Y-82922577D01*
X146835279Y-82915497D01*
X146828477Y-82908472D01*
X146815303Y-82894580D01*
X146802702Y-82880903D01*
X146790673Y-82867439D01*
X146779217Y-82854189D01*
X146768333Y-82841152D01*
X146758021Y-82828329D01*
X146748282Y-82815720D01*
X146739115Y-82803325D01*
X146730521Y-82791143D01*
X146722499Y-82779175D01*
X146715049Y-82767421D01*
X146708172Y-82755881D01*
X146701868Y-82744554D01*
X146696136Y-82733441D01*
X146693484Y-82727965D01*
G37*
G36*
X147399955Y-81291974D02*
G01*
X147412213Y-81292837D01*
X147423234Y-81294592D01*
X147433019Y-81297241D01*
X147437448Y-81298900D01*
X147446668Y-81303365D01*
X147457232Y-81309799D01*
X147466036Y-81315917D01*
X147475596Y-81323143D01*
X147485911Y-81331476D01*
X147496982Y-81340917D01*
X147504783Y-81347827D01*
X147512919Y-81355228D01*
X147521391Y-81363122D01*
X147530199Y-81371509D01*
X147539343Y-81380387D01*
X147548823Y-81389758D01*
X147557725Y-81398980D01*
X147566298Y-81408084D01*
X147574540Y-81417069D01*
X147582452Y-81425937D01*
X147590034Y-81434685D01*
X147597286Y-81443316D01*
X147604208Y-81451828D01*
X147610800Y-81460222D01*
X147617061Y-81468498D01*
X147622993Y-81476655D01*
X147628594Y-81484694D01*
X147636377Y-81496531D01*
X147643417Y-81508101D01*
X147649715Y-81519406D01*
X147651649Y-81523115D01*
X147657062Y-81534297D01*
X147661942Y-81545772D01*
X147666289Y-81557539D01*
X147670105Y-81569597D01*
X147673388Y-81581948D01*
X147676138Y-81594590D01*
X147678357Y-81607524D01*
X147680042Y-81620751D01*
X147681196Y-81634269D01*
X147681817Y-81648079D01*
X147681935Y-81657448D01*
X147681673Y-81671987D01*
X147681208Y-81682161D01*
X147680509Y-81692721D01*
X147679578Y-81703666D01*
X147678414Y-81714996D01*
X147677018Y-81726713D01*
X147675388Y-81738814D01*
X147673526Y-81751301D01*
X147671430Y-81764173D01*
X147669103Y-81777431D01*
X147666542Y-81791074D01*
X147663748Y-81805103D01*
X147660722Y-81819517D01*
X147657463Y-81834317D01*
X147653971Y-81849502D01*
X147652138Y-81857239D01*
X147650180Y-81866918D01*
X147647921Y-81877241D01*
X147645543Y-81887601D01*
X147643208Y-81897467D01*
X147642368Y-81900958D01*
X147638472Y-81918076D01*
X147634842Y-81934259D01*
X147631480Y-81949507D01*
X147628385Y-81963820D01*
X147625557Y-81977198D01*
X147622996Y-81989641D01*
X147620703Y-82001149D01*
X147618676Y-82011722D01*
X147616917Y-82021361D01*
X147614779Y-82034064D01*
X147613242Y-82044665D01*
X147612128Y-82055526D01*
X147612082Y-82062647D01*
X147615318Y-82072218D01*
X147623317Y-82079927D01*
X147632442Y-82084487D01*
X147642092Y-82087486D01*
X147653603Y-82089758D01*
X147663415Y-82091133D01*
X147663617Y-82091224D01*
X147673801Y-82093359D01*
X147683469Y-82096284D01*
X147692623Y-82099999D01*
X147702651Y-82105332D01*
X147711977Y-82111740D01*
X147719971Y-82118824D01*
X147726703Y-82127521D01*
X147730871Y-82136860D01*
X147732474Y-82146840D01*
X147732494Y-82148132D01*
X147729965Y-82158063D01*
X147722380Y-82166789D01*
X147712672Y-82172903D01*
X147703266Y-82176982D01*
X147692041Y-82180628D01*
X147678995Y-82183840D01*
X147669286Y-82185740D01*
X147658768Y-82187448D01*
X147647442Y-82188963D01*
X147635306Y-82190286D01*
X147628935Y-82190875D01*
X147614964Y-82191961D01*
X147598942Y-82193023D01*
X147580869Y-82194060D01*
X147571064Y-82194569D01*
X147560745Y-82195073D01*
X147549914Y-82195569D01*
X147538570Y-82196060D01*
X147526713Y-82196544D01*
X147514343Y-82197023D01*
X147501460Y-82197495D01*
X147488065Y-82197960D01*
X147474156Y-82198420D01*
X147459735Y-82198874D01*
X147444801Y-82199321D01*
X147429355Y-82199762D01*
X147413395Y-82200197D01*
X147396923Y-82200625D01*
X147379938Y-82201048D01*
X147362440Y-82201464D01*
X147344429Y-82201874D01*
X147325906Y-82202278D01*
X147306869Y-82202675D01*
X147287320Y-82203067D01*
X147267258Y-82203452D01*
X147246683Y-82203831D01*
X147225595Y-82204204D01*
X147203995Y-82204570D01*
X147181882Y-82204931D01*
X147159256Y-82205285D01*
X147124061Y-82205616D01*
X147089920Y-82205907D01*
X147056832Y-82206158D01*
X147024796Y-82206369D01*
X146993813Y-82206540D01*
X146963883Y-82206670D01*
X146935006Y-82206761D01*
X146907182Y-82206811D01*
X146880410Y-82206822D01*
X146854691Y-82206792D01*
X146830026Y-82206723D01*
X146806412Y-82206613D01*
X146783852Y-82206463D01*
X146762345Y-82206273D01*
X146741890Y-82206043D01*
X146722488Y-82205773D01*
X146704139Y-82205463D01*
X146686843Y-82205113D01*
X146670600Y-82204723D01*
X146655409Y-82204293D01*
X146641272Y-82203822D01*
X146628187Y-82203312D01*
X146616155Y-82202761D01*
X146605175Y-82202171D01*
X146595249Y-82201540D01*
X146578555Y-82200159D01*
X146566072Y-82198617D01*
X146555243Y-82196004D01*
X146545625Y-82191765D01*
X146535079Y-82185605D01*
X146527135Y-82178866D01*
X146520866Y-82169625D01*
X146518663Y-82159479D01*
X146520527Y-82148426D01*
X146524946Y-82138931D01*
X146528132Y-82133966D01*
X146535333Y-82125173D01*
X146543993Y-82117357D01*
X146554110Y-82110519D01*
X146565684Y-82104657D01*
X146575322Y-82100902D01*
X146585780Y-82097696D01*
X146597058Y-82095040D01*
X146609156Y-82092933D01*
X146622074Y-82091376D01*
X146626562Y-82090979D01*
X146697148Y-82083896D01*
X146652696Y-81991084D01*
X146646803Y-81979025D01*
X146641274Y-81966786D01*
X146636109Y-81954365D01*
X146631309Y-81941762D01*
X146626874Y-81928979D01*
X146622803Y-81916014D01*
X146619096Y-81902867D01*
X146615754Y-81889540D01*
X146612777Y-81876031D01*
X146610163Y-81862341D01*
X146607915Y-81848470D01*
X146606030Y-81834417D01*
X146604510Y-81820184D01*
X146603355Y-81805768D01*
X146602564Y-81791172D01*
X146602469Y-81787874D01*
X146726366Y-81787874D01*
X146726772Y-81801925D01*
X146727595Y-81816420D01*
X146728833Y-81831357D01*
X146730487Y-81846736D01*
X146732558Y-81862559D01*
X146735044Y-81878824D01*
X146737946Y-81895532D01*
X146741265Y-81912682D01*
X146744999Y-81930275D01*
X146749149Y-81948311D01*
X146753715Y-81966789D01*
X146758697Y-81985711D01*
X146784099Y-82085362D01*
X147087448Y-82085362D01*
X147099075Y-82085362D01*
X147110234Y-82085362D01*
X147120925Y-82085362D01*
X147131149Y-82085362D01*
X147144051Y-82085362D01*
X147156122Y-82085362D01*
X147167361Y-82085362D01*
X147177768Y-82085362D01*
X147187344Y-82085362D01*
X147198907Y-82085278D01*
X147210852Y-82085028D01*
X147220683Y-82084707D01*
X147230758Y-82084280D01*
X147241077Y-82083745D01*
X147251640Y-82083104D01*
X147262448Y-82082356D01*
X147267944Y-82081942D01*
X147278568Y-82081110D01*
X147288460Y-82080324D01*
X147299794Y-82079406D01*
X147309984Y-82078559D01*
X147320700Y-82077637D01*
X147331119Y-82076692D01*
X147332424Y-82076569D01*
X147343109Y-82075058D01*
X147353161Y-82073059D01*
X147363866Y-82070429D01*
X147373563Y-82067673D01*
X147380295Y-82065578D01*
X147389987Y-82062258D01*
X147399861Y-82058558D01*
X147409257Y-82054558D01*
X147418168Y-82049903D01*
X147418886Y-82049458D01*
X147427135Y-82043151D01*
X147434914Y-82036101D01*
X147442608Y-82028407D01*
X147446729Y-82024057D01*
X147453588Y-82016313D01*
X147460168Y-82007864D01*
X147465964Y-81998869D01*
X147469688Y-81991328D01*
X147473411Y-81981711D01*
X147476893Y-81972521D01*
X147480891Y-81961836D01*
X147484726Y-81951486D01*
X147486785Y-81945899D01*
X147490107Y-81936389D01*
X147493201Y-81927094D01*
X147496616Y-81916224D01*
X147499704Y-81905662D01*
X147502466Y-81895409D01*
X147504127Y-81888746D01*
X147506680Y-81878142D01*
X147509070Y-81868216D01*
X147511698Y-81857300D01*
X147514565Y-81845394D01*
X147517030Y-81835157D01*
X147519648Y-81824286D01*
X147521712Y-81815718D01*
X147524734Y-81802697D01*
X147527574Y-81790137D01*
X147530230Y-81778036D01*
X147532703Y-81766396D01*
X147534993Y-81755215D01*
X147537099Y-81744494D01*
X147539023Y-81734233D01*
X147540763Y-81724432D01*
X147543030Y-81710592D01*
X147544885Y-81697787D01*
X147546327Y-81686017D01*
X147547357Y-81675282D01*
X147548090Y-81662577D01*
X147548136Y-81650838D01*
X147547541Y-81639313D01*
X147546304Y-81628002D01*
X147544427Y-81616904D01*
X147541908Y-81606020D01*
X147538748Y-81595349D01*
X147534947Y-81584893D01*
X147530505Y-81574650D01*
X147524046Y-81562523D01*
X147516944Y-81550687D01*
X147509197Y-81539144D01*
X147500806Y-81527893D01*
X147491772Y-81516933D01*
X147482093Y-81506266D01*
X147471771Y-81495890D01*
X147464531Y-81489135D01*
X147457005Y-81482510D01*
X147449193Y-81476015D01*
X147441095Y-81469649D01*
X147432711Y-81463413D01*
X147428411Y-81460344D01*
X147419868Y-81454449D01*
X147411581Y-81449037D01*
X147399630Y-81441823D01*
X147388254Y-81435696D01*
X147377454Y-81430655D01*
X147367228Y-81426700D01*
X147357578Y-81423831D01*
X147345607Y-81421696D01*
X147334658Y-81421492D01*
X147324732Y-81423219D01*
X147322410Y-81423952D01*
X147313354Y-81428824D01*
X147306210Y-81435594D01*
X147302260Y-81444743D01*
X147302382Y-81454238D01*
X147305181Y-81463798D01*
X147309692Y-81474756D01*
X147314725Y-81485479D01*
X147319332Y-81494664D01*
X147324651Y-81504828D01*
X147330684Y-81515971D01*
X147337428Y-81528092D01*
X147342321Y-81536717D01*
X147347530Y-81545777D01*
X147350254Y-81550470D01*
X147358388Y-81565827D01*
X147365938Y-81581061D01*
X147372905Y-81596174D01*
X147379288Y-81611164D01*
X147385087Y-81626032D01*
X147390302Y-81640779D01*
X147394933Y-81655403D01*
X147398980Y-81669905D01*
X147402443Y-81684284D01*
X147405323Y-81698542D01*
X147407618Y-81712678D01*
X147409330Y-81726691D01*
X147410457Y-81740582D01*
X147411001Y-81754352D01*
X147410961Y-81767999D01*
X147410337Y-81781524D01*
X147401545Y-81894364D01*
X147153638Y-81894364D01*
X147140146Y-81894328D01*
X147126905Y-81894219D01*
X147113913Y-81894037D01*
X147101172Y-81893784D01*
X147088680Y-81893457D01*
X147076438Y-81893059D01*
X147064446Y-81892587D01*
X147052705Y-81892043D01*
X147041213Y-81891427D01*
X147029971Y-81890738D01*
X147018979Y-81889977D01*
X147008237Y-81889143D01*
X146997745Y-81888237D01*
X146987503Y-81887258D01*
X146977511Y-81886206D01*
X146967769Y-81885083D01*
X146953882Y-81883230D01*
X146941073Y-81881244D01*
X146929342Y-81879126D01*
X146918688Y-81876874D01*
X146909112Y-81874489D01*
X146898020Y-81871102D01*
X146888843Y-81867478D01*
X146880067Y-81862616D01*
X146875201Y-81858460D01*
X146868226Y-81850672D01*
X146863480Y-81839522D01*
X146861290Y-81828180D01*
X146860584Y-81818261D01*
X146860680Y-81807131D01*
X146861580Y-81794790D01*
X146863282Y-81781239D01*
X146864863Y-81771533D01*
X146866801Y-81761288D01*
X146868471Y-81753436D01*
X147012710Y-81753436D01*
X147107232Y-81753436D01*
X147120030Y-81753515D01*
X147132412Y-81753752D01*
X147144378Y-81754148D01*
X147155928Y-81754703D01*
X147167062Y-81755415D01*
X147177780Y-81756286D01*
X147188082Y-81757316D01*
X147197968Y-81758504D01*
X147212017Y-81760582D01*
X147225131Y-81763017D01*
X147237308Y-81765809D01*
X147248549Y-81768957D01*
X147258855Y-81772461D01*
X147262082Y-81773708D01*
X147271699Y-81777173D01*
X147281888Y-81778879D01*
X147286995Y-81776394D01*
X147287246Y-81766239D01*
X147285427Y-81755335D01*
X147283239Y-81745299D01*
X147280313Y-81733391D01*
X147278202Y-81725348D01*
X147275691Y-81715056D01*
X147272981Y-81704942D01*
X147270073Y-81695005D01*
X147266967Y-81685246D01*
X147263662Y-81675664D01*
X147260158Y-81666260D01*
X147256457Y-81657033D01*
X147252556Y-81647984D01*
X147248458Y-81639112D01*
X147241938Y-81626137D01*
X147234971Y-81613561D01*
X147227558Y-81601384D01*
X147219698Y-81589607D01*
X147214210Y-81581977D01*
X147205844Y-81571152D01*
X147197598Y-81561392D01*
X147189472Y-81552697D01*
X147181466Y-81545066D01*
X147173581Y-81538500D01*
X147163254Y-81531402D01*
X147153141Y-81526196D01*
X147143241Y-81522884D01*
X147133556Y-81521464D01*
X147131168Y-81521405D01*
X147120673Y-81523256D01*
X147110315Y-81528809D01*
X147102638Y-81535402D01*
X147095037Y-81544079D01*
X147087514Y-81554837D01*
X147080067Y-81567678D01*
X147075146Y-81577395D01*
X147070260Y-81588037D01*
X147065407Y-81599606D01*
X147060589Y-81612099D01*
X147055805Y-81625518D01*
X147051056Y-81639863D01*
X147012710Y-81753436D01*
X146868471Y-81753436D01*
X146869095Y-81750505D01*
X146871715Y-81739120D01*
X146874690Y-81727069D01*
X146878020Y-81714352D01*
X146881704Y-81700969D01*
X146885744Y-81686920D01*
X146890138Y-81672206D01*
X146894888Y-81656825D01*
X146899992Y-81640779D01*
X146905451Y-81624066D01*
X146911265Y-81606688D01*
X146917434Y-81588643D01*
X146920652Y-81579371D01*
X146923958Y-81569933D01*
X146927353Y-81560328D01*
X146930837Y-81550557D01*
X146934410Y-81540619D01*
X146938071Y-81530514D01*
X146941821Y-81520244D01*
X146945660Y-81509806D01*
X146949587Y-81499202D01*
X146953603Y-81488432D01*
X146956164Y-81478486D01*
X146955363Y-81468697D01*
X146946476Y-81463746D01*
X146944322Y-81463764D01*
X146932808Y-81465794D01*
X146920493Y-81469931D01*
X146910731Y-81474416D01*
X146900518Y-81480086D01*
X146889854Y-81486941D01*
X146878739Y-81494981D01*
X146867173Y-81504206D01*
X146859213Y-81511014D01*
X146851051Y-81518349D01*
X146842690Y-81526211D01*
X146834128Y-81534599D01*
X146829772Y-81538990D01*
X146822360Y-81545823D01*
X146815237Y-81552886D01*
X146809011Y-81559507D01*
X146800656Y-81569556D01*
X146792746Y-81579737D01*
X146785284Y-81590050D01*
X146778267Y-81600494D01*
X146771698Y-81611070D01*
X146765574Y-81621777D01*
X146759898Y-81632617D01*
X146754667Y-81643587D01*
X146749884Y-81654690D01*
X146745546Y-81665924D01*
X146741656Y-81677290D01*
X146738211Y-81688788D01*
X146735214Y-81700417D01*
X146732663Y-81712178D01*
X146730558Y-81724070D01*
X146728900Y-81736094D01*
X146727642Y-81748375D01*
X146726801Y-81761099D01*
X146726375Y-81774265D01*
X146726366Y-81787874D01*
X146602469Y-81787874D01*
X146602138Y-81776394D01*
X146602042Y-81761561D01*
X146602306Y-81746860D01*
X146602928Y-81732291D01*
X146603908Y-81717853D01*
X146605248Y-81703546D01*
X146606946Y-81689372D01*
X146609003Y-81675329D01*
X146611419Y-81661417D01*
X146614193Y-81647637D01*
X146617327Y-81633989D01*
X146620818Y-81620473D01*
X146624669Y-81607088D01*
X146628878Y-81593835D01*
X146633447Y-81580714D01*
X146638373Y-81567724D01*
X146643659Y-81554866D01*
X146649222Y-81542246D01*
X146655043Y-81530030D01*
X146661121Y-81518218D01*
X146667457Y-81506811D01*
X146674051Y-81495809D01*
X146680902Y-81485211D01*
X146688011Y-81475018D01*
X146695377Y-81465229D01*
X146703001Y-81455845D01*
X146710883Y-81446865D01*
X146719022Y-81438290D01*
X146727419Y-81430119D01*
X146736073Y-81422353D01*
X146744985Y-81414991D01*
X146754155Y-81408034D01*
X146763582Y-81401482D01*
X146774040Y-81395510D01*
X146784167Y-81390708D01*
X146795858Y-81385882D01*
X146805653Y-81382248D01*
X146816328Y-81378600D01*
X146827884Y-81374940D01*
X146840320Y-81371267D01*
X146853635Y-81367582D01*
X146867831Y-81363883D01*
X146872759Y-81362647D01*
X146882711Y-81360189D01*
X146892661Y-81357823D01*
X146902609Y-81355549D01*
X146912555Y-81353366D01*
X146922499Y-81351275D01*
X146932442Y-81349275D01*
X146942382Y-81347367D01*
X146952321Y-81345550D01*
X146962258Y-81343825D01*
X146972192Y-81342192D01*
X146982125Y-81340650D01*
X146992056Y-81339200D01*
X147001985Y-81337841D01*
X147011912Y-81336574D01*
X147021838Y-81335399D01*
X147031761Y-81334315D01*
X147047092Y-81333176D01*
X147062860Y-81331895D01*
X147079065Y-81330474D01*
X147095707Y-81328911D01*
X147112786Y-81327207D01*
X147130301Y-81325362D01*
X147148254Y-81323376D01*
X147166644Y-81321248D01*
X147185471Y-81318979D01*
X147204734Y-81316569D01*
X147214530Y-81315311D01*
X147224435Y-81314018D01*
X147234449Y-81312689D01*
X147244573Y-81311326D01*
X147254805Y-81309926D01*
X147265147Y-81308492D01*
X147275598Y-81307022D01*
X147286159Y-81305517D01*
X147296828Y-81303977D01*
X147307607Y-81302401D01*
X147318496Y-81300790D01*
X147329493Y-81299144D01*
X147342975Y-81296693D01*
X147355762Y-81294745D01*
X147367854Y-81293299D01*
X147379250Y-81292355D01*
X147389950Y-81291913D01*
X147399955Y-81291974D01*
G37*
G36*
X146723282Y-80490944D02*
G01*
X146713354Y-80486916D01*
X146703439Y-80480917D01*
X146695705Y-80473647D01*
X146690153Y-80465106D01*
X146686781Y-80455294D01*
X146685913Y-80449912D01*
X146685693Y-80438932D01*
X146687413Y-80428159D01*
X146691074Y-80417591D01*
X146696675Y-80407230D01*
X146702825Y-80398753D01*
X146707162Y-80393736D01*
X146715076Y-80385704D01*
X146723706Y-80378399D01*
X146733051Y-80371822D01*
X146743112Y-80365972D01*
X146753888Y-80360850D01*
X146763024Y-80357276D01*
X146770177Y-80354901D01*
X146781544Y-80352156D01*
X146794578Y-80349600D01*
X146809280Y-80347233D01*
X146825650Y-80345055D01*
X146843688Y-80343066D01*
X146863394Y-80341265D01*
X146873872Y-80340436D01*
X146884767Y-80339654D01*
X146896079Y-80338919D01*
X146907808Y-80338232D01*
X146919953Y-80337591D01*
X146932516Y-80336998D01*
X146945496Y-80336452D01*
X146958893Y-80335953D01*
X146972706Y-80335502D01*
X146986937Y-80335097D01*
X147001584Y-80334740D01*
X147016648Y-80334431D01*
X147032130Y-80334168D01*
X147048028Y-80333953D01*
X147064343Y-80333784D01*
X147081075Y-80333663D01*
X147098224Y-80333590D01*
X147115790Y-80333563D01*
X147133773Y-80333584D01*
X147152173Y-80333652D01*
X147170521Y-80333768D01*
X147188379Y-80333932D01*
X147205747Y-80334144D01*
X147222625Y-80334404D01*
X147239014Y-80334712D01*
X147254912Y-80335069D01*
X147270321Y-80335474D01*
X147285239Y-80335926D01*
X147299668Y-80336428D01*
X147313607Y-80336977D01*
X147327055Y-80337574D01*
X147340014Y-80338220D01*
X147352483Y-80338914D01*
X147364463Y-80339656D01*
X147375952Y-80340446D01*
X147386951Y-80341285D01*
X147397460Y-80342171D01*
X147407480Y-80343106D01*
X147426049Y-80345120D01*
X147442658Y-80347327D01*
X147457308Y-80349726D01*
X147469998Y-80352318D01*
X147480729Y-80355103D01*
X147493150Y-80359642D01*
X147496311Y-80361251D01*
X147507382Y-80367590D01*
X147517758Y-80374761D01*
X147527440Y-80382764D01*
X147536428Y-80391599D01*
X147544720Y-80401265D01*
X147552319Y-80411764D01*
X147557562Y-80420184D01*
X147562414Y-80429072D01*
X147565431Y-80435257D01*
X147569710Y-80445090D01*
X147573752Y-80455722D01*
X147577558Y-80467152D01*
X147581128Y-80479381D01*
X147584462Y-80492408D01*
X147587559Y-80506234D01*
X147589493Y-80515895D01*
X147591322Y-80525911D01*
X147593046Y-80536282D01*
X147594665Y-80547008D01*
X147596179Y-80558088D01*
X147597589Y-80569524D01*
X147598893Y-80581314D01*
X147600087Y-80593629D01*
X147601228Y-80606639D01*
X147602316Y-80620343D01*
X147603350Y-80634742D01*
X147604331Y-80649836D01*
X147605258Y-80665624D01*
X147606132Y-80682106D01*
X147606953Y-80699284D01*
X147607720Y-80717155D01*
X147608433Y-80735721D01*
X147609094Y-80754982D01*
X147609404Y-80764873D01*
X147609700Y-80774938D01*
X147609984Y-80785176D01*
X147610254Y-80795588D01*
X147610510Y-80806173D01*
X147610754Y-80816932D01*
X147610984Y-80827865D01*
X147611200Y-80838971D01*
X147611403Y-80850251D01*
X147611593Y-80861705D01*
X147611830Y-80876311D01*
X147612022Y-80890638D01*
X147612168Y-80904686D01*
X147612269Y-80918453D01*
X147612324Y-80931942D01*
X147612335Y-80945150D01*
X147612300Y-80958079D01*
X147612219Y-80970729D01*
X147612094Y-80983099D01*
X147611923Y-80995189D01*
X147611706Y-81007000D01*
X147611445Y-81018532D01*
X147611138Y-81029784D01*
X147610785Y-81040756D01*
X147610388Y-81051449D01*
X147609945Y-81061862D01*
X147609456Y-81071996D01*
X147608923Y-81081850D01*
X147607720Y-81100720D01*
X147606335Y-81118471D01*
X147604770Y-81135104D01*
X147603023Y-81150619D01*
X147601095Y-81165016D01*
X147598985Y-81178295D01*
X147596695Y-81190456D01*
X147594165Y-81201695D01*
X147591340Y-81212209D01*
X147588220Y-81221998D01*
X147582984Y-81235321D01*
X147577083Y-81247013D01*
X147570516Y-81257074D01*
X147563284Y-81265503D01*
X147555386Y-81272301D01*
X147546823Y-81277467D01*
X147537595Y-81281002D01*
X147527701Y-81282906D01*
X147520735Y-81283268D01*
X147508177Y-81279255D01*
X147495181Y-81272995D01*
X147484242Y-81267216D01*
X147471482Y-81260153D01*
X147456902Y-81251806D01*
X147440501Y-81242174D01*
X147431618Y-81236877D01*
X147422280Y-81231259D01*
X147412487Y-81225319D01*
X147402239Y-81219059D01*
X147391536Y-81212478D01*
X147380377Y-81205575D01*
X147368764Y-81198352D01*
X147356695Y-81190807D01*
X147344172Y-81182941D01*
X147331193Y-81174755D01*
X147317759Y-81166247D01*
X147303870Y-81157418D01*
X147289526Y-81148268D01*
X147274727Y-81138798D01*
X147259473Y-81129006D01*
X147243764Y-81118893D01*
X147227331Y-81108634D01*
X147211311Y-81098679D01*
X147195703Y-81089028D01*
X147180509Y-81079680D01*
X147165726Y-81070637D01*
X147151357Y-81061897D01*
X147137400Y-81053462D01*
X147123856Y-81045330D01*
X147110724Y-81037502D01*
X147098005Y-81029978D01*
X147085699Y-81022758D01*
X147073805Y-81015841D01*
X147062324Y-81009229D01*
X147051255Y-81002920D01*
X147040600Y-80996916D01*
X147030356Y-80991215D01*
X147020526Y-80985818D01*
X147011108Y-80980725D01*
X147002103Y-80975936D01*
X146985330Y-80967269D01*
X146970208Y-80959817D01*
X146956737Y-80953582D01*
X146944916Y-80948561D01*
X146934745Y-80944756D01*
X146922584Y-80941328D01*
X146911366Y-80938319D01*
X146901066Y-80934971D01*
X146891685Y-80931284D01*
X146880606Y-80925840D01*
X146871161Y-80919793D01*
X146863349Y-80913143D01*
X146855881Y-80903983D01*
X146850965Y-80893880D01*
X146850288Y-80891747D01*
X146848733Y-80881284D01*
X146850327Y-80871573D01*
X146855068Y-80862613D01*
X146862959Y-80854404D01*
X146871538Y-80848379D01*
X146882132Y-80842833D01*
X146891399Y-80838990D01*
X146894741Y-80837769D01*
X146904208Y-80834686D01*
X146914659Y-80832672D01*
X146926093Y-80831726D01*
X146938510Y-80831850D01*
X146951910Y-80833043D01*
X146966293Y-80835305D01*
X146976428Y-80837407D01*
X146987000Y-80839984D01*
X146998010Y-80843036D01*
X147009456Y-80846563D01*
X147021339Y-80850565D01*
X147033658Y-80855043D01*
X147046415Y-80859995D01*
X147059522Y-80865381D01*
X147072889Y-80871158D01*
X147086518Y-80877326D01*
X147100408Y-80883885D01*
X147114560Y-80890836D01*
X147128973Y-80898177D01*
X147143648Y-80905910D01*
X147158584Y-80914034D01*
X147173781Y-80922549D01*
X147189240Y-80931455D01*
X147204961Y-80940753D01*
X147220942Y-80950441D01*
X147237185Y-80960521D01*
X147253690Y-80970992D01*
X147262040Y-80976374D01*
X147270456Y-80981854D01*
X147278937Y-80987432D01*
X147287483Y-80993108D01*
X147295833Y-80998703D01*
X147304092Y-81004194D01*
X147312258Y-81009580D01*
X147324337Y-81017462D01*
X147336210Y-81025107D01*
X147347876Y-81032517D01*
X147359336Y-81039690D01*
X147370591Y-81046628D01*
X147381639Y-81053329D01*
X147392481Y-81059794D01*
X147403117Y-81066023D01*
X147410093Y-81070044D01*
X147420011Y-81075719D01*
X147429067Y-81080835D01*
X147439798Y-81086788D01*
X147448995Y-81091749D01*
X147458335Y-81096555D01*
X147467382Y-81100679D01*
X147471398Y-81101796D01*
X147473193Y-81091694D01*
X147474085Y-81080424D01*
X147474833Y-81068403D01*
X147475414Y-81057634D01*
X147476012Y-81045362D01*
X147476627Y-81031588D01*
X147477047Y-81021570D01*
X147477260Y-81016311D01*
X147477657Y-81005476D01*
X147477993Y-80994344D01*
X147478267Y-80982914D01*
X147478481Y-80971187D01*
X147478634Y-80959162D01*
X147478725Y-80946839D01*
X147478756Y-80934218D01*
X147478725Y-80921300D01*
X147478634Y-80908084D01*
X147478481Y-80894571D01*
X147478267Y-80880760D01*
X147477993Y-80866651D01*
X147477657Y-80852244D01*
X147477260Y-80837540D01*
X147476802Y-80822538D01*
X147476283Y-80807239D01*
X147476017Y-80796562D01*
X147475740Y-80786085D01*
X147475451Y-80775809D01*
X147475149Y-80765733D01*
X147474836Y-80755857D01*
X147474174Y-80736707D01*
X147473464Y-80718358D01*
X147472707Y-80700811D01*
X147471901Y-80684065D01*
X147471049Y-80668121D01*
X147470148Y-80652978D01*
X147469200Y-80638636D01*
X147468203Y-80625096D01*
X147467160Y-80612357D01*
X147466068Y-80600420D01*
X147464929Y-80589284D01*
X147463742Y-80578949D01*
X147461872Y-80564950D01*
X147459857Y-80552348D01*
X147457656Y-80540738D01*
X147455271Y-80530120D01*
X147452702Y-80520494D01*
X147448989Y-80509202D01*
X147444947Y-80499672D01*
X147439434Y-80490240D01*
X147432141Y-80482558D01*
X147430854Y-80481663D01*
X147419050Y-80476328D01*
X147407046Y-80472777D01*
X147392342Y-80469613D01*
X147381040Y-80467718D01*
X147368536Y-80465995D01*
X147354833Y-80464444D01*
X147339929Y-80463064D01*
X147323826Y-80461857D01*
X147306522Y-80460820D01*
X147288017Y-80459956D01*
X147268313Y-80459263D01*
X147258011Y-80458981D01*
X147247408Y-80458742D01*
X147236506Y-80458546D01*
X147225303Y-80458393D01*
X147213801Y-80458283D01*
X147201998Y-80458216D01*
X147190112Y-80458192D01*
X147178359Y-80458214D01*
X147166739Y-80458280D01*
X147155252Y-80458391D01*
X147143899Y-80458547D01*
X147132678Y-80458748D01*
X147121590Y-80458994D01*
X147110636Y-80459284D01*
X147099815Y-80459620D01*
X147089126Y-80460000D01*
X147078571Y-80460425D01*
X147068149Y-80460895D01*
X147057860Y-80461410D01*
X147047704Y-80461969D01*
X147037682Y-80462574D01*
X147027792Y-80463223D01*
X147018035Y-80463917D01*
X146998921Y-80465440D01*
X146980340Y-80467142D01*
X146962291Y-80469023D01*
X146944774Y-80471084D01*
X146927789Y-80473324D01*
X146911337Y-80475744D01*
X146895418Y-80478342D01*
X146887658Y-80479709D01*
X146871932Y-80482787D01*
X146856933Y-80485548D01*
X146842661Y-80487992D01*
X146829116Y-80490120D01*
X146816298Y-80491931D01*
X146804207Y-80493425D01*
X146792843Y-80494602D01*
X146782206Y-80495463D01*
X146772296Y-80496007D01*
X146758794Y-80496229D01*
X146746928Y-80495738D01*
X146736698Y-80494534D01*
X146725602Y-80491821D01*
X146723282Y-80490944D01*
G37*
G36*
X147222896Y-79246741D02*
G01*
X147235666Y-79247273D01*
X147248255Y-79248168D01*
X147260663Y-79249426D01*
X147272890Y-79251046D01*
X147284935Y-79253028D01*
X147296799Y-79255373D01*
X147308481Y-79258081D01*
X147319983Y-79261151D01*
X147331303Y-79264584D01*
X147342442Y-79268379D01*
X147353399Y-79272537D01*
X147364175Y-79277057D01*
X147374832Y-79281960D01*
X147385493Y-79287327D01*
X147396158Y-79293157D01*
X147406826Y-79299451D01*
X147417499Y-79306209D01*
X147428175Y-79313431D01*
X147438855Y-79321116D01*
X147449538Y-79329264D01*
X147460226Y-79337877D01*
X147470917Y-79346953D01*
X147481612Y-79356493D01*
X147492311Y-79366496D01*
X147503014Y-79376963D01*
X147513721Y-79387894D01*
X147524431Y-79399289D01*
X147535145Y-79411147D01*
X147545051Y-79422413D01*
X147554618Y-79433743D01*
X147563846Y-79445136D01*
X147572736Y-79456591D01*
X147581287Y-79468110D01*
X147589499Y-79479691D01*
X147597372Y-79491336D01*
X147604907Y-79503043D01*
X147612103Y-79514814D01*
X147618961Y-79526647D01*
X147625479Y-79538543D01*
X147631659Y-79550503D01*
X147637501Y-79562525D01*
X147643003Y-79574610D01*
X147648167Y-79586758D01*
X147652993Y-79598969D01*
X147657479Y-79611244D01*
X147661627Y-79623581D01*
X147665436Y-79635981D01*
X147668906Y-79648444D01*
X147672038Y-79660970D01*
X147674831Y-79673559D01*
X147677286Y-79686211D01*
X147679401Y-79698926D01*
X147681178Y-79711704D01*
X147682617Y-79724545D01*
X147683716Y-79737449D01*
X147684477Y-79750415D01*
X147684899Y-79763445D01*
X147684983Y-79776538D01*
X147684727Y-79789694D01*
X147684133Y-79802912D01*
X147683202Y-79816135D01*
X147681932Y-79829302D01*
X147680326Y-79842414D01*
X147678382Y-79855470D01*
X147676101Y-79868471D01*
X147673483Y-79881417D01*
X147670528Y-79894308D01*
X147667235Y-79907143D01*
X147663605Y-79919923D01*
X147659638Y-79932647D01*
X147655333Y-79945316D01*
X147650691Y-79957930D01*
X147645712Y-79970489D01*
X147640396Y-79982992D01*
X147634742Y-79995440D01*
X147628751Y-80007832D01*
X147622423Y-80020169D01*
X147615758Y-80032451D01*
X147608755Y-80044677D01*
X147601415Y-80056849D01*
X147593738Y-80068964D01*
X147585724Y-80081025D01*
X147577372Y-80093030D01*
X147568683Y-80104980D01*
X147559657Y-80116874D01*
X147550293Y-80128713D01*
X147540592Y-80140497D01*
X147530554Y-80152225D01*
X147520179Y-80163898D01*
X147509466Y-80175516D01*
X147498417Y-80187079D01*
X147487030Y-80198586D01*
X147478200Y-80207286D01*
X147469297Y-80215679D01*
X147460321Y-80223765D01*
X147451271Y-80231543D01*
X147442147Y-80239015D01*
X147432951Y-80246179D01*
X147423680Y-80253036D01*
X147414337Y-80259585D01*
X147404920Y-80265828D01*
X147395429Y-80271763D01*
X147385865Y-80277391D01*
X147376227Y-80282712D01*
X147366516Y-80287726D01*
X147356732Y-80292432D01*
X147346874Y-80296831D01*
X147336942Y-80300923D01*
X147326937Y-80304708D01*
X147316859Y-80308186D01*
X147306707Y-80311356D01*
X147296482Y-80314219D01*
X147286183Y-80316775D01*
X147275811Y-80319024D01*
X147265365Y-80320966D01*
X147254846Y-80322600D01*
X147244254Y-80323927D01*
X147233587Y-80324947D01*
X147222848Y-80325660D01*
X147212035Y-80326065D01*
X147201149Y-80326163D01*
X147190189Y-80325955D01*
X147179155Y-80325438D01*
X147168048Y-80324615D01*
X147156916Y-80323474D01*
X147145806Y-80322037D01*
X147134719Y-80320303D01*
X147123653Y-80318272D01*
X147112611Y-80315945D01*
X147101590Y-80313321D01*
X147090593Y-80310400D01*
X147079617Y-80307182D01*
X147068664Y-80303668D01*
X147057734Y-80299857D01*
X147046825Y-80295749D01*
X147035940Y-80291345D01*
X147025076Y-80286643D01*
X147014235Y-80281645D01*
X147003417Y-80276351D01*
X146992621Y-80270759D01*
X146981847Y-80264871D01*
X146971096Y-80258687D01*
X146960367Y-80252205D01*
X146949661Y-80245427D01*
X146938977Y-80238352D01*
X146928315Y-80230980D01*
X146917676Y-80223312D01*
X146907060Y-80215347D01*
X146896465Y-80207085D01*
X146885893Y-80198527D01*
X146875344Y-80189671D01*
X146864817Y-80180519D01*
X146854312Y-80171071D01*
X146843830Y-80161325D01*
X146833371Y-80151283D01*
X146822933Y-80140944D01*
X146815369Y-80133471D01*
X146807943Y-80125950D01*
X146800654Y-80118381D01*
X146793502Y-80110765D01*
X146786488Y-80103101D01*
X146779611Y-80095389D01*
X146772871Y-80087630D01*
X146766269Y-80079823D01*
X146759804Y-80071968D01*
X146753477Y-80064065D01*
X146747287Y-80056115D01*
X146741234Y-80048117D01*
X146735319Y-80040071D01*
X146729541Y-80031978D01*
X146723900Y-80023837D01*
X146718397Y-80015648D01*
X146710503Y-80003451D01*
X146703124Y-79991499D01*
X146696261Y-79979792D01*
X146689912Y-79968330D01*
X146684079Y-79957112D01*
X146678761Y-79946139D01*
X146673958Y-79935410D01*
X146669671Y-79924927D01*
X146665898Y-79914688D01*
X146662641Y-79904694D01*
X146660756Y-79898167D01*
X146657856Y-79887224D01*
X146655199Y-79876193D01*
X146652788Y-79865074D01*
X146650620Y-79853867D01*
X146648696Y-79842573D01*
X146647017Y-79831191D01*
X146645582Y-79819721D01*
X146644392Y-79808163D01*
X146643445Y-79796518D01*
X146642743Y-79784785D01*
X146642285Y-79772964D01*
X146642071Y-79761055D01*
X146642102Y-79749059D01*
X146642377Y-79736974D01*
X146642896Y-79724802D01*
X146643659Y-79712542D01*
X146644667Y-79700311D01*
X146645922Y-79688225D01*
X146647423Y-79676284D01*
X146649170Y-79664488D01*
X146651163Y-79652836D01*
X146653402Y-79641330D01*
X146655887Y-79629969D01*
X146658619Y-79618753D01*
X146661596Y-79607682D01*
X146664820Y-79596756D01*
X146668290Y-79585975D01*
X146672006Y-79575339D01*
X146675969Y-79564848D01*
X146680177Y-79554502D01*
X146684632Y-79544301D01*
X146689332Y-79534245D01*
X146693498Y-79525014D01*
X146701547Y-79508318D01*
X146709218Y-79493976D01*
X146716511Y-79481989D01*
X146723426Y-79472357D01*
X146729963Y-79465079D01*
X146739061Y-79458578D01*
X146749868Y-79458150D01*
X146759165Y-79467141D01*
X146765145Y-79480066D01*
X146768660Y-79491625D01*
X146771797Y-79505539D01*
X146774556Y-79521808D01*
X146775794Y-79530826D01*
X146776825Y-79540809D01*
X146777718Y-79551586D01*
X146778473Y-79563157D01*
X146779092Y-79575522D01*
X146779465Y-79585317D01*
X146779761Y-79595558D01*
X146779980Y-79606245D01*
X146780122Y-79617379D01*
X146780186Y-79628960D01*
X146780191Y-79632919D01*
X146780301Y-79650821D01*
X146780633Y-79668254D01*
X146781187Y-79685221D01*
X146781961Y-79701719D01*
X146782958Y-79717751D01*
X146784175Y-79733315D01*
X146785614Y-79748411D01*
X146787274Y-79763040D01*
X146789155Y-79777201D01*
X146791258Y-79790895D01*
X146793582Y-79804121D01*
X146796128Y-79816880D01*
X146798894Y-79829171D01*
X146801883Y-79840995D01*
X146805092Y-79852351D01*
X146808523Y-79863240D01*
X146812246Y-79873835D01*
X146816331Y-79884371D01*
X146820779Y-79894848D01*
X146825589Y-79905265D01*
X146830762Y-79915624D01*
X146836298Y-79925923D01*
X146842196Y-79936163D01*
X146848457Y-79946344D01*
X146855080Y-79956466D01*
X146862065Y-79966528D01*
X146869414Y-79976532D01*
X146877125Y-79986476D01*
X146885198Y-79996361D01*
X146893634Y-80006187D01*
X146902432Y-80015954D01*
X146911593Y-80025662D01*
X146921454Y-80036027D01*
X146931313Y-80046027D01*
X146941171Y-80055662D01*
X146951027Y-80064931D01*
X146960882Y-80073835D01*
X146970735Y-80082374D01*
X146980587Y-80090547D01*
X146990438Y-80098355D01*
X147000287Y-80105797D01*
X147010135Y-80112874D01*
X147019981Y-80119585D01*
X147029826Y-80125931D01*
X147039669Y-80131912D01*
X147049511Y-80137527D01*
X147059352Y-80142777D01*
X147069191Y-80147661D01*
X147079029Y-80152180D01*
X147088865Y-80156334D01*
X147098700Y-80160122D01*
X147108533Y-80163544D01*
X147118365Y-80166602D01*
X147128196Y-80169294D01*
X147138025Y-80171620D01*
X147147853Y-80173581D01*
X147157679Y-80175177D01*
X147167504Y-80176407D01*
X147177327Y-80177272D01*
X147187149Y-80177772D01*
X147196969Y-80177906D01*
X147206789Y-80177674D01*
X147216606Y-80177078D01*
X147226422Y-80176115D01*
X147236182Y-80174782D01*
X147245828Y-80173101D01*
X147264784Y-80168700D01*
X147283289Y-80162912D01*
X147301344Y-80155736D01*
X147318948Y-80147174D01*
X147327582Y-80142372D01*
X147336103Y-80137223D01*
X147344511Y-80131728D01*
X147352807Y-80125886D01*
X147360990Y-80119697D01*
X147369060Y-80113162D01*
X147377018Y-80106279D01*
X147384863Y-80099050D01*
X147392596Y-80091474D01*
X147400216Y-80083551D01*
X147407724Y-80075281D01*
X147415119Y-80066665D01*
X147422402Y-80057702D01*
X147429571Y-80048392D01*
X147436629Y-80038735D01*
X147443573Y-80028731D01*
X147450405Y-80018380D01*
X147457125Y-80007683D01*
X147463732Y-79996639D01*
X147470226Y-79985248D01*
X147476608Y-79973510D01*
X147482877Y-79961426D01*
X147489065Y-79949415D01*
X147494864Y-79937624D01*
X147500277Y-79926052D01*
X147505302Y-79914699D01*
X147509940Y-79903566D01*
X147514190Y-79892652D01*
X147518053Y-79881958D01*
X147521529Y-79871483D01*
X147524617Y-79861228D01*
X147527318Y-79851192D01*
X147529632Y-79841376D01*
X147531558Y-79831779D01*
X147533721Y-79817795D01*
X147535013Y-79804304D01*
X147535390Y-79795585D01*
X147535252Y-79783039D01*
X147534290Y-79771322D01*
X147532504Y-79760433D01*
X147529894Y-79750373D01*
X147526459Y-79741142D01*
X147520598Y-79730122D01*
X147513270Y-79720576D01*
X147504478Y-79712503D01*
X147494219Y-79705902D01*
X147491426Y-79704482D01*
X147480313Y-79698086D01*
X147469494Y-79693389D01*
X147456545Y-79688778D01*
X147446729Y-79685752D01*
X147435967Y-79682764D01*
X147424259Y-79679814D01*
X147411604Y-79676902D01*
X147398003Y-79674028D01*
X147383455Y-79671193D01*
X147367961Y-79668396D01*
X147351521Y-79665636D01*
X147334133Y-79662915D01*
X147315800Y-79660232D01*
X147296520Y-79657588D01*
X147286540Y-79657111D01*
X147277713Y-79656367D01*
X147267950Y-79655084D01*
X147255761Y-79653513D01*
X147244518Y-79652103D01*
X147234222Y-79650853D01*
X147222682Y-79649516D01*
X147212622Y-79648430D01*
X147202501Y-79647457D01*
X147201021Y-79647330D01*
X147190295Y-79646099D01*
X147180358Y-79644616D01*
X147169733Y-79642739D01*
X147158422Y-79640466D01*
X147148471Y-79638271D01*
X147144357Y-79637316D01*
X147134455Y-79634922D01*
X147124036Y-79632380D01*
X147113900Y-79629871D01*
X147104062Y-79627366D01*
X147100149Y-79626325D01*
X147091093Y-79622329D01*
X147082024Y-79616533D01*
X147073773Y-79610282D01*
X147071572Y-79608495D01*
X147063665Y-79601412D01*
X147056614Y-79593589D01*
X147052033Y-79584559D01*
X147050200Y-79574398D01*
X147048412Y-79564294D01*
X147046466Y-79553204D01*
X147045927Y-79550121D01*
X147044284Y-79539524D01*
X147043202Y-79529745D01*
X147042653Y-79519571D01*
X147042910Y-79509402D01*
X147042996Y-79508355D01*
X147043820Y-79497236D01*
X147044461Y-79486129D01*
X147045011Y-79474898D01*
X147045469Y-79464332D01*
X147045927Y-79452668D01*
X147045927Y-79442593D01*
X147045927Y-79434350D01*
X147046316Y-79426290D01*
X147167071Y-79426290D01*
X147167106Y-79437106D01*
X147167232Y-79447692D01*
X147167519Y-79458263D01*
X147167804Y-79463903D01*
X147169240Y-79473968D01*
X147171997Y-79483732D01*
X147173422Y-79487595D01*
X147177673Y-79496426D01*
X147184083Y-79504081D01*
X147184901Y-79504692D01*
X147193806Y-79509794D01*
X147203023Y-79514030D01*
X147211035Y-79517392D01*
X147220957Y-79521239D01*
X147231185Y-79524720D01*
X147241718Y-79527834D01*
X147251185Y-79530258D01*
X147252556Y-79530581D01*
X147263214Y-79532882D01*
X147274004Y-79535115D01*
X147284164Y-79537159D01*
X147295385Y-79539370D01*
X147305126Y-79541259D01*
X147315546Y-79543255D01*
X147318258Y-79543771D01*
X147336462Y-79547001D01*
X147353585Y-79549915D01*
X147369626Y-79552512D01*
X147384585Y-79554792D01*
X147398462Y-79556756D01*
X147411257Y-79558402D01*
X147422970Y-79559732D01*
X147433601Y-79560745D01*
X147447520Y-79561671D01*
X147459004Y-79561885D01*
X147470529Y-79561060D01*
X147479702Y-79557448D01*
X147479049Y-79547242D01*
X147474183Y-79537988D01*
X147469200Y-79530337D01*
X147462563Y-79521897D01*
X147454291Y-79513763D01*
X147446359Y-79506856D01*
X147436946Y-79499257D01*
X147426052Y-79490967D01*
X147417966Y-79485057D01*
X147409222Y-79478839D01*
X147399820Y-79472314D01*
X147389759Y-79465482D01*
X147379040Y-79458343D01*
X147367662Y-79450896D01*
X147355627Y-79443143D01*
X147343439Y-79435400D01*
X147331603Y-79427988D01*
X147320121Y-79420906D01*
X147308992Y-79414154D01*
X147298215Y-79407732D01*
X147287792Y-79401640D01*
X147277722Y-79395879D01*
X147268005Y-79390447D01*
X147258641Y-79385346D01*
X147249629Y-79380574D01*
X147236774Y-79374036D01*
X147224714Y-79368241D01*
X147213447Y-79363189D01*
X147202975Y-79358879D01*
X147192824Y-79356085D01*
X147182839Y-79355727D01*
X147173910Y-79361077D01*
X147170304Y-79371643D01*
X147168781Y-79382265D01*
X147167879Y-79393570D01*
X147167399Y-79404219D01*
X147167131Y-79416296D01*
X147167071Y-79426290D01*
X147046316Y-79426290D01*
X147054475Y-79257030D01*
X147170002Y-79248237D01*
X147183498Y-79247319D01*
X147196812Y-79246764D01*
X147209945Y-79246571D01*
X147222896Y-79246741D01*
G37*
D13*
X138275904Y-71056476D02*
X138275904Y-71532666D01*
X138561619Y-70961238D02*
X137561619Y-71294571D01*
X137561619Y-71294571D02*
X138561619Y-71627904D01*
X171767523Y-122146904D02*
X171291333Y-122146904D01*
X171862761Y-122432619D02*
X171529428Y-121432619D01*
X171529428Y-121432619D02*
X171196095Y-122432619D01*
X156019523Y-94333904D02*
X155543333Y-94333904D01*
X156114761Y-94619619D02*
X155781428Y-93619619D01*
X155781428Y-93619619D02*
X155448095Y-94619619D01*
X112585523Y-122241904D02*
X112109333Y-122241904D01*
X112680761Y-122527619D02*
X112347428Y-121527619D01*
X112347428Y-121527619D02*
X112014095Y-122527619D01*
X128587523Y-94333904D02*
X128111333Y-94333904D01*
X128682761Y-94619619D02*
X128349428Y-93619619D01*
X128349428Y-93619619D02*
X128016095Y-94619619D01*
D10*
%TO.C,R4*%
X141940619Y-74466666D02*
X141464428Y-74799999D01*
X141940619Y-75038094D02*
X140940619Y-75038094D01*
X140940619Y-75038094D02*
X140940619Y-74657142D01*
X140940619Y-74657142D02*
X140988238Y-74561904D01*
X140988238Y-74561904D02*
X141035857Y-74514285D01*
X141035857Y-74514285D02*
X141131095Y-74466666D01*
X141131095Y-74466666D02*
X141273952Y-74466666D01*
X141273952Y-74466666D02*
X141369190Y-74514285D01*
X141369190Y-74514285D02*
X141416809Y-74561904D01*
X141416809Y-74561904D02*
X141464428Y-74657142D01*
X141464428Y-74657142D02*
X141464428Y-75038094D01*
X141273952Y-73609523D02*
X141940619Y-73609523D01*
X140893000Y-73847618D02*
X141607285Y-74085713D01*
X141607285Y-74085713D02*
X141607285Y-73466666D01*
%TO.C,R2*%
X137247333Y-102570619D02*
X136914000Y-102094428D01*
X136675905Y-102570619D02*
X136675905Y-101570619D01*
X136675905Y-101570619D02*
X137056857Y-101570619D01*
X137056857Y-101570619D02*
X137152095Y-101618238D01*
X137152095Y-101618238D02*
X137199714Y-101665857D01*
X137199714Y-101665857D02*
X137247333Y-101761095D01*
X137247333Y-101761095D02*
X137247333Y-101903952D01*
X137247333Y-101903952D02*
X137199714Y-101999190D01*
X137199714Y-101999190D02*
X137152095Y-102046809D01*
X137152095Y-102046809D02*
X137056857Y-102094428D01*
X137056857Y-102094428D02*
X136675905Y-102094428D01*
X137628286Y-101665857D02*
X137675905Y-101618238D01*
X137675905Y-101618238D02*
X137771143Y-101570619D01*
X137771143Y-101570619D02*
X138009238Y-101570619D01*
X138009238Y-101570619D02*
X138104476Y-101618238D01*
X138104476Y-101618238D02*
X138152095Y-101665857D01*
X138152095Y-101665857D02*
X138199714Y-101761095D01*
X138199714Y-101761095D02*
X138199714Y-101856333D01*
X138199714Y-101856333D02*
X138152095Y-101999190D01*
X138152095Y-101999190D02*
X137580667Y-102570619D01*
X137580667Y-102570619D02*
X138199714Y-102570619D01*
%TO.C,J1*%
X132000666Y-83282619D02*
X132000666Y-83996904D01*
X132000666Y-83996904D02*
X131953047Y-84139761D01*
X131953047Y-84139761D02*
X131857809Y-84235000D01*
X131857809Y-84235000D02*
X131714952Y-84282619D01*
X131714952Y-84282619D02*
X131619714Y-84282619D01*
X133000666Y-84282619D02*
X132429238Y-84282619D01*
X132714952Y-84282619D02*
X132714952Y-83282619D01*
X132714952Y-83282619D02*
X132619714Y-83425476D01*
X132619714Y-83425476D02*
X132524476Y-83520714D01*
X132524476Y-83520714D02*
X132429238Y-83568333D01*
%TO.C,R3*%
X133651333Y-88918619D02*
X133318000Y-88442428D01*
X133079905Y-88918619D02*
X133079905Y-87918619D01*
X133079905Y-87918619D02*
X133460857Y-87918619D01*
X133460857Y-87918619D02*
X133556095Y-87966238D01*
X133556095Y-87966238D02*
X133603714Y-88013857D01*
X133603714Y-88013857D02*
X133651333Y-88109095D01*
X133651333Y-88109095D02*
X133651333Y-88251952D01*
X133651333Y-88251952D02*
X133603714Y-88347190D01*
X133603714Y-88347190D02*
X133556095Y-88394809D01*
X133556095Y-88394809D02*
X133460857Y-88442428D01*
X133460857Y-88442428D02*
X133079905Y-88442428D01*
X133984667Y-87918619D02*
X134603714Y-87918619D01*
X134603714Y-87918619D02*
X134270381Y-88299571D01*
X134270381Y-88299571D02*
X134413238Y-88299571D01*
X134413238Y-88299571D02*
X134508476Y-88347190D01*
X134508476Y-88347190D02*
X134556095Y-88394809D01*
X134556095Y-88394809D02*
X134603714Y-88490047D01*
X134603714Y-88490047D02*
X134603714Y-88728142D01*
X134603714Y-88728142D02*
X134556095Y-88823380D01*
X134556095Y-88823380D02*
X134508476Y-88871000D01*
X134508476Y-88871000D02*
X134413238Y-88918619D01*
X134413238Y-88918619D02*
X134127524Y-88918619D01*
X134127524Y-88918619D02*
X134032286Y-88871000D01*
X134032286Y-88871000D02*
X133984667Y-88823380D01*
%TO.C,C4*%
X131401333Y-95573380D02*
X131353714Y-95621000D01*
X131353714Y-95621000D02*
X131210857Y-95668619D01*
X131210857Y-95668619D02*
X131115619Y-95668619D01*
X131115619Y-95668619D02*
X130972762Y-95621000D01*
X130972762Y-95621000D02*
X130877524Y-95525761D01*
X130877524Y-95525761D02*
X130829905Y-95430523D01*
X130829905Y-95430523D02*
X130782286Y-95240047D01*
X130782286Y-95240047D02*
X130782286Y-95097190D01*
X130782286Y-95097190D02*
X130829905Y-94906714D01*
X130829905Y-94906714D02*
X130877524Y-94811476D01*
X130877524Y-94811476D02*
X130972762Y-94716238D01*
X130972762Y-94716238D02*
X131115619Y-94668619D01*
X131115619Y-94668619D02*
X131210857Y-94668619D01*
X131210857Y-94668619D02*
X131353714Y-94716238D01*
X131353714Y-94716238D02*
X131401333Y-94763857D01*
X132258476Y-95001952D02*
X132258476Y-95668619D01*
X132020381Y-94621000D02*
X131782286Y-95335285D01*
X131782286Y-95335285D02*
X132401333Y-95335285D01*
%TO.C,C3*%
X131401333Y-93073380D02*
X131353714Y-93121000D01*
X131353714Y-93121000D02*
X131210857Y-93168619D01*
X131210857Y-93168619D02*
X131115619Y-93168619D01*
X131115619Y-93168619D02*
X130972762Y-93121000D01*
X130972762Y-93121000D02*
X130877524Y-93025761D01*
X130877524Y-93025761D02*
X130829905Y-92930523D01*
X130829905Y-92930523D02*
X130782286Y-92740047D01*
X130782286Y-92740047D02*
X130782286Y-92597190D01*
X130782286Y-92597190D02*
X130829905Y-92406714D01*
X130829905Y-92406714D02*
X130877524Y-92311476D01*
X130877524Y-92311476D02*
X130972762Y-92216238D01*
X130972762Y-92216238D02*
X131115619Y-92168619D01*
X131115619Y-92168619D02*
X131210857Y-92168619D01*
X131210857Y-92168619D02*
X131353714Y-92216238D01*
X131353714Y-92216238D02*
X131401333Y-92263857D01*
X131734667Y-92168619D02*
X132353714Y-92168619D01*
X132353714Y-92168619D02*
X132020381Y-92549571D01*
X132020381Y-92549571D02*
X132163238Y-92549571D01*
X132163238Y-92549571D02*
X132258476Y-92597190D01*
X132258476Y-92597190D02*
X132306095Y-92644809D01*
X132306095Y-92644809D02*
X132353714Y-92740047D01*
X132353714Y-92740047D02*
X132353714Y-92978142D01*
X132353714Y-92978142D02*
X132306095Y-93073380D01*
X132306095Y-93073380D02*
X132258476Y-93121000D01*
X132258476Y-93121000D02*
X132163238Y-93168619D01*
X132163238Y-93168619D02*
X131877524Y-93168619D01*
X131877524Y-93168619D02*
X131782286Y-93121000D01*
X131782286Y-93121000D02*
X131734667Y-93073380D01*
%TO.C,Y1*%
X134098428Y-96976190D02*
X134574619Y-96976190D01*
X133574619Y-97309523D02*
X134098428Y-96976190D01*
X134098428Y-96976190D02*
X133574619Y-96642857D01*
X134574619Y-95785714D02*
X134574619Y-96357142D01*
X134574619Y-96071428D02*
X133574619Y-96071428D01*
X133574619Y-96071428D02*
X133717476Y-96166666D01*
X133717476Y-96166666D02*
X133812714Y-96261904D01*
X133812714Y-96261904D02*
X133860333Y-96357142D01*
%TO.C,R1*%
X141812619Y-144946666D02*
X141336428Y-145279999D01*
X141812619Y-145518094D02*
X140812619Y-145518094D01*
X140812619Y-145518094D02*
X140812619Y-145137142D01*
X140812619Y-145137142D02*
X140860238Y-145041904D01*
X140860238Y-145041904D02*
X140907857Y-144994285D01*
X140907857Y-144994285D02*
X141003095Y-144946666D01*
X141003095Y-144946666D02*
X141145952Y-144946666D01*
X141145952Y-144946666D02*
X141241190Y-144994285D01*
X141241190Y-144994285D02*
X141288809Y-145041904D01*
X141288809Y-145041904D02*
X141336428Y-145137142D01*
X141336428Y-145137142D02*
X141336428Y-145518094D01*
X141812619Y-143994285D02*
X141812619Y-144565713D01*
X141812619Y-144279999D02*
X140812619Y-144279999D01*
X140812619Y-144279999D02*
X140955476Y-144375237D01*
X140955476Y-144375237D02*
X141050714Y-144470475D01*
X141050714Y-144470475D02*
X141098333Y-144565713D01*
%TO.C,D3*%
X109472405Y-120952619D02*
X109472405Y-119952619D01*
X109472405Y-119952619D02*
X109710500Y-119952619D01*
X109710500Y-119952619D02*
X109853357Y-120000238D01*
X109853357Y-120000238D02*
X109948595Y-120095476D01*
X109948595Y-120095476D02*
X109996214Y-120190714D01*
X109996214Y-120190714D02*
X110043833Y-120381190D01*
X110043833Y-120381190D02*
X110043833Y-120524047D01*
X110043833Y-120524047D02*
X109996214Y-120714523D01*
X109996214Y-120714523D02*
X109948595Y-120809761D01*
X109948595Y-120809761D02*
X109853357Y-120905000D01*
X109853357Y-120905000D02*
X109710500Y-120952619D01*
X109710500Y-120952619D02*
X109472405Y-120952619D01*
X110377167Y-119952619D02*
X110996214Y-119952619D01*
X110996214Y-119952619D02*
X110662881Y-120333571D01*
X110662881Y-120333571D02*
X110805738Y-120333571D01*
X110805738Y-120333571D02*
X110900976Y-120381190D01*
X110900976Y-120381190D02*
X110948595Y-120428809D01*
X110948595Y-120428809D02*
X110996214Y-120524047D01*
X110996214Y-120524047D02*
X110996214Y-120762142D01*
X110996214Y-120762142D02*
X110948595Y-120857380D01*
X110948595Y-120857380D02*
X110900976Y-120905000D01*
X110900976Y-120905000D02*
X110805738Y-120952619D01*
X110805738Y-120952619D02*
X110520024Y-120952619D01*
X110520024Y-120952619D02*
X110424786Y-120905000D01*
X110424786Y-120905000D02*
X110377167Y-120857380D01*
%TO.C,J3*%
X148510666Y-93017619D02*
X148510666Y-93731904D01*
X148510666Y-93731904D02*
X148463047Y-93874761D01*
X148463047Y-93874761D02*
X148367809Y-93970000D01*
X148367809Y-93970000D02*
X148224952Y-94017619D01*
X148224952Y-94017619D02*
X148129714Y-94017619D01*
X148891619Y-93017619D02*
X149510666Y-93017619D01*
X149510666Y-93017619D02*
X149177333Y-93398571D01*
X149177333Y-93398571D02*
X149320190Y-93398571D01*
X149320190Y-93398571D02*
X149415428Y-93446190D01*
X149415428Y-93446190D02*
X149463047Y-93493809D01*
X149463047Y-93493809D02*
X149510666Y-93589047D01*
X149510666Y-93589047D02*
X149510666Y-93827142D01*
X149510666Y-93827142D02*
X149463047Y-93922380D01*
X149463047Y-93922380D02*
X149415428Y-93970000D01*
X149415428Y-93970000D02*
X149320190Y-94017619D01*
X149320190Y-94017619D02*
X149034476Y-94017619D01*
X149034476Y-94017619D02*
X148939238Y-93970000D01*
X148939238Y-93970000D02*
X148891619Y-93922380D01*
D13*
%TO.C,SW2*%
X138620667Y-113971000D02*
X138763524Y-114018619D01*
X138763524Y-114018619D02*
X139001619Y-114018619D01*
X139001619Y-114018619D02*
X139096857Y-113971000D01*
X139096857Y-113971000D02*
X139144476Y-113923380D01*
X139144476Y-113923380D02*
X139192095Y-113828142D01*
X139192095Y-113828142D02*
X139192095Y-113732904D01*
X139192095Y-113732904D02*
X139144476Y-113637666D01*
X139144476Y-113637666D02*
X139096857Y-113590047D01*
X139096857Y-113590047D02*
X139001619Y-113542428D01*
X139001619Y-113542428D02*
X138811143Y-113494809D01*
X138811143Y-113494809D02*
X138715905Y-113447190D01*
X138715905Y-113447190D02*
X138668286Y-113399571D01*
X138668286Y-113399571D02*
X138620667Y-113304333D01*
X138620667Y-113304333D02*
X138620667Y-113209095D01*
X138620667Y-113209095D02*
X138668286Y-113113857D01*
X138668286Y-113113857D02*
X138715905Y-113066238D01*
X138715905Y-113066238D02*
X138811143Y-113018619D01*
X138811143Y-113018619D02*
X139049238Y-113018619D01*
X139049238Y-113018619D02*
X139192095Y-113066238D01*
X139525429Y-113018619D02*
X139763524Y-114018619D01*
X139763524Y-114018619D02*
X139954000Y-113304333D01*
X139954000Y-113304333D02*
X140144476Y-114018619D01*
X140144476Y-114018619D02*
X140382572Y-113018619D01*
X140715905Y-113113857D02*
X140763524Y-113066238D01*
X140763524Y-113066238D02*
X140858762Y-113018619D01*
X140858762Y-113018619D02*
X141096857Y-113018619D01*
X141096857Y-113018619D02*
X141192095Y-113066238D01*
X141192095Y-113066238D02*
X141239714Y-113113857D01*
X141239714Y-113113857D02*
X141287333Y-113209095D01*
X141287333Y-113209095D02*
X141287333Y-113304333D01*
X141287333Y-113304333D02*
X141239714Y-113447190D01*
X141239714Y-113447190D02*
X140668286Y-114018619D01*
X140668286Y-114018619D02*
X141287333Y-114018619D01*
D10*
%TO.C,D1*%
X125372905Y-93139619D02*
X125372905Y-92139619D01*
X125372905Y-92139619D02*
X125611000Y-92139619D01*
X125611000Y-92139619D02*
X125753857Y-92187238D01*
X125753857Y-92187238D02*
X125849095Y-92282476D01*
X125849095Y-92282476D02*
X125896714Y-92377714D01*
X125896714Y-92377714D02*
X125944333Y-92568190D01*
X125944333Y-92568190D02*
X125944333Y-92711047D01*
X125944333Y-92711047D02*
X125896714Y-92901523D01*
X125896714Y-92901523D02*
X125849095Y-92996761D01*
X125849095Y-92996761D02*
X125753857Y-93092000D01*
X125753857Y-93092000D02*
X125611000Y-93139619D01*
X125611000Y-93139619D02*
X125372905Y-93139619D01*
X126896714Y-93139619D02*
X126325286Y-93139619D01*
X126611000Y-93139619D02*
X126611000Y-92139619D01*
X126611000Y-92139619D02*
X126515762Y-92282476D01*
X126515762Y-92282476D02*
X126420524Y-92377714D01*
X126420524Y-92377714D02*
X126325286Y-92425333D01*
%TO.C,D5*%
X141592619Y-71375594D02*
X140592619Y-71375594D01*
X140592619Y-71375594D02*
X140592619Y-71137499D01*
X140592619Y-71137499D02*
X140640238Y-70994642D01*
X140640238Y-70994642D02*
X140735476Y-70899404D01*
X140735476Y-70899404D02*
X140830714Y-70851785D01*
X140830714Y-70851785D02*
X141021190Y-70804166D01*
X141021190Y-70804166D02*
X141164047Y-70804166D01*
X141164047Y-70804166D02*
X141354523Y-70851785D01*
X141354523Y-70851785D02*
X141449761Y-70899404D01*
X141449761Y-70899404D02*
X141545000Y-70994642D01*
X141545000Y-70994642D02*
X141592619Y-71137499D01*
X141592619Y-71137499D02*
X141592619Y-71375594D01*
X140592619Y-69899404D02*
X140592619Y-70375594D01*
X140592619Y-70375594D02*
X141068809Y-70423213D01*
X141068809Y-70423213D02*
X141021190Y-70375594D01*
X141021190Y-70375594D02*
X140973571Y-70280356D01*
X140973571Y-70280356D02*
X140973571Y-70042261D01*
X140973571Y-70042261D02*
X141021190Y-69947023D01*
X141021190Y-69947023D02*
X141068809Y-69899404D01*
X141068809Y-69899404D02*
X141164047Y-69851785D01*
X141164047Y-69851785D02*
X141402142Y-69851785D01*
X141402142Y-69851785D02*
X141497380Y-69899404D01*
X141497380Y-69899404D02*
X141545000Y-69947023D01*
X141545000Y-69947023D02*
X141592619Y-70042261D01*
X141592619Y-70042261D02*
X141592619Y-70280356D01*
X141592619Y-70280356D02*
X141545000Y-70375594D01*
X141545000Y-70375594D02*
X141497380Y-70423213D01*
%TO.C,Q1*%
X148052760Y-90077858D02*
X147957522Y-90030239D01*
X147957522Y-90030239D02*
X147862284Y-89935001D01*
X147862284Y-89935001D02*
X147719427Y-89792143D01*
X147719427Y-89792143D02*
X147624189Y-89744524D01*
X147624189Y-89744524D02*
X147528951Y-89744524D01*
X147576570Y-89982620D02*
X147481332Y-89935001D01*
X147481332Y-89935001D02*
X147386094Y-89839762D01*
X147386094Y-89839762D02*
X147338475Y-89649286D01*
X147338475Y-89649286D02*
X147338475Y-89315953D01*
X147338475Y-89315953D02*
X147386094Y-89125477D01*
X147386094Y-89125477D02*
X147481332Y-89030239D01*
X147481332Y-89030239D02*
X147576570Y-88982620D01*
X147576570Y-88982620D02*
X147767046Y-88982620D01*
X147767046Y-88982620D02*
X147862284Y-89030239D01*
X147862284Y-89030239D02*
X147957522Y-89125477D01*
X147957522Y-89125477D02*
X148005141Y-89315953D01*
X148005141Y-89315953D02*
X148005141Y-89649286D01*
X148005141Y-89649286D02*
X147957522Y-89839762D01*
X147957522Y-89839762D02*
X147862284Y-89935001D01*
X147862284Y-89935001D02*
X147767046Y-89982620D01*
X147767046Y-89982620D02*
X147576570Y-89982620D01*
X148957522Y-89982620D02*
X148386094Y-89982620D01*
X148671808Y-89982620D02*
X148671808Y-88982620D01*
X148671808Y-88982620D02*
X148576570Y-89125477D01*
X148576570Y-89125477D02*
X148481332Y-89220715D01*
X148481332Y-89220715D02*
X148386094Y-89268334D01*
%TO.C,C2*%
X140321380Y-88171666D02*
X140369000Y-88219285D01*
X140369000Y-88219285D02*
X140416619Y-88362142D01*
X140416619Y-88362142D02*
X140416619Y-88457380D01*
X140416619Y-88457380D02*
X140369000Y-88600237D01*
X140369000Y-88600237D02*
X140273761Y-88695475D01*
X140273761Y-88695475D02*
X140178523Y-88743094D01*
X140178523Y-88743094D02*
X139988047Y-88790713D01*
X139988047Y-88790713D02*
X139845190Y-88790713D01*
X139845190Y-88790713D02*
X139654714Y-88743094D01*
X139654714Y-88743094D02*
X139559476Y-88695475D01*
X139559476Y-88695475D02*
X139464238Y-88600237D01*
X139464238Y-88600237D02*
X139416619Y-88457380D01*
X139416619Y-88457380D02*
X139416619Y-88362142D01*
X139416619Y-88362142D02*
X139464238Y-88219285D01*
X139464238Y-88219285D02*
X139511857Y-88171666D01*
X139511857Y-87790713D02*
X139464238Y-87743094D01*
X139464238Y-87743094D02*
X139416619Y-87647856D01*
X139416619Y-87647856D02*
X139416619Y-87409761D01*
X139416619Y-87409761D02*
X139464238Y-87314523D01*
X139464238Y-87314523D02*
X139511857Y-87266904D01*
X139511857Y-87266904D02*
X139607095Y-87219285D01*
X139607095Y-87219285D02*
X139702333Y-87219285D01*
X139702333Y-87219285D02*
X139845190Y-87266904D01*
X139845190Y-87266904D02*
X140416619Y-87838332D01*
X140416619Y-87838332D02*
X140416619Y-87219285D01*
%TO.C,U1*%
X135636095Y-88108619D02*
X135636095Y-88918142D01*
X135636095Y-88918142D02*
X135683714Y-89013380D01*
X135683714Y-89013380D02*
X135731333Y-89061000D01*
X135731333Y-89061000D02*
X135826571Y-89108619D01*
X135826571Y-89108619D02*
X136017047Y-89108619D01*
X136017047Y-89108619D02*
X136112285Y-89061000D01*
X136112285Y-89061000D02*
X136159904Y-89013380D01*
X136159904Y-89013380D02*
X136207523Y-88918142D01*
X136207523Y-88918142D02*
X136207523Y-88108619D01*
X137207523Y-89108619D02*
X136636095Y-89108619D01*
X136921809Y-89108619D02*
X136921809Y-88108619D01*
X136921809Y-88108619D02*
X136826571Y-88251476D01*
X136826571Y-88251476D02*
X136731333Y-88346714D01*
X136731333Y-88346714D02*
X136636095Y-88394333D01*
%TO.C,D4*%
X168679905Y-120952619D02*
X168679905Y-119952619D01*
X168679905Y-119952619D02*
X168918000Y-119952619D01*
X168918000Y-119952619D02*
X169060857Y-120000238D01*
X169060857Y-120000238D02*
X169156095Y-120095476D01*
X169156095Y-120095476D02*
X169203714Y-120190714D01*
X169203714Y-120190714D02*
X169251333Y-120381190D01*
X169251333Y-120381190D02*
X169251333Y-120524047D01*
X169251333Y-120524047D02*
X169203714Y-120714523D01*
X169203714Y-120714523D02*
X169156095Y-120809761D01*
X169156095Y-120809761D02*
X169060857Y-120905000D01*
X169060857Y-120905000D02*
X168918000Y-120952619D01*
X168918000Y-120952619D02*
X168679905Y-120952619D01*
X170108476Y-120285952D02*
X170108476Y-120952619D01*
X169870381Y-119905000D02*
X169632286Y-120619285D01*
X169632286Y-120619285D02*
X170251333Y-120619285D01*
%TO.C,C1*%
X145147380Y-101766666D02*
X145195000Y-101814285D01*
X145195000Y-101814285D02*
X145242619Y-101957142D01*
X145242619Y-101957142D02*
X145242619Y-102052380D01*
X145242619Y-102052380D02*
X145195000Y-102195237D01*
X145195000Y-102195237D02*
X145099761Y-102290475D01*
X145099761Y-102290475D02*
X145004523Y-102338094D01*
X145004523Y-102338094D02*
X144814047Y-102385713D01*
X144814047Y-102385713D02*
X144671190Y-102385713D01*
X144671190Y-102385713D02*
X144480714Y-102338094D01*
X144480714Y-102338094D02*
X144385476Y-102290475D01*
X144385476Y-102290475D02*
X144290238Y-102195237D01*
X144290238Y-102195237D02*
X144242619Y-102052380D01*
X144242619Y-102052380D02*
X144242619Y-101957142D01*
X144242619Y-101957142D02*
X144290238Y-101814285D01*
X144290238Y-101814285D02*
X144337857Y-101766666D01*
X145242619Y-100814285D02*
X145242619Y-101385713D01*
X145242619Y-101099999D02*
X144242619Y-101099999D01*
X144242619Y-101099999D02*
X144385476Y-101195237D01*
X144385476Y-101195237D02*
X144480714Y-101290475D01*
X144480714Y-101290475D02*
X144528333Y-101385713D01*
%TO.C,D2*%
X152804905Y-93139619D02*
X152804905Y-92139619D01*
X152804905Y-92139619D02*
X153043000Y-92139619D01*
X153043000Y-92139619D02*
X153185857Y-92187238D01*
X153185857Y-92187238D02*
X153281095Y-92282476D01*
X153281095Y-92282476D02*
X153328714Y-92377714D01*
X153328714Y-92377714D02*
X153376333Y-92568190D01*
X153376333Y-92568190D02*
X153376333Y-92711047D01*
X153376333Y-92711047D02*
X153328714Y-92901523D01*
X153328714Y-92901523D02*
X153281095Y-92996761D01*
X153281095Y-92996761D02*
X153185857Y-93092000D01*
X153185857Y-93092000D02*
X153043000Y-93139619D01*
X153043000Y-93139619D02*
X152804905Y-93139619D01*
X153757286Y-92234857D02*
X153804905Y-92187238D01*
X153804905Y-92187238D02*
X153900143Y-92139619D01*
X153900143Y-92139619D02*
X154138238Y-92139619D01*
X154138238Y-92139619D02*
X154233476Y-92187238D01*
X154233476Y-92187238D02*
X154281095Y-92234857D01*
X154281095Y-92234857D02*
X154328714Y-92330095D01*
X154328714Y-92330095D02*
X154328714Y-92425333D01*
X154328714Y-92425333D02*
X154281095Y-92568190D01*
X154281095Y-92568190D02*
X153709667Y-93139619D01*
X153709667Y-93139619D02*
X154328714Y-93139619D01*
D14*
%TO.C,R4*%
X138983000Y-74527064D02*
X138983000Y-74072936D01*
X140453000Y-74527064D02*
X140453000Y-74072936D01*
%TO.C,R2*%
X137176742Y-100061500D02*
X137651258Y-100061500D01*
X137176742Y-101106500D02*
X137651258Y-101106500D01*
D13*
%TO.C,J1*%
X133350000Y-82550000D02*
X146050000Y-82550000D01*
X133350000Y-85090000D02*
X133350000Y-82550000D01*
X146050000Y-82550000D02*
X146050000Y-85090000D01*
X146050000Y-85090000D02*
X133350000Y-85090000D01*
D14*
%TO.C,R3*%
X133580742Y-86433500D02*
X134055258Y-86433500D01*
X133580742Y-87478500D02*
X134055258Y-87478500D01*
%TO.C,C4*%
X131707836Y-94260000D02*
X131492164Y-94260000D01*
X131707836Y-93540000D02*
X131492164Y-93540000D01*
%TO.C,C3*%
X131707836Y-91760000D02*
X131492164Y-91760000D01*
X131707836Y-91040000D02*
X131492164Y-91040000D01*
D13*
%TO.C,Y1*%
X133012000Y-95142000D02*
X135212000Y-95142000D01*
X132862000Y-93892000D02*
X132862000Y-91392000D01*
X135362000Y-93892000D02*
X135362000Y-91392000D01*
X135212000Y-90142000D02*
X133012000Y-90142000D01*
D14*
%TO.C,R1*%
X140435000Y-144552936D02*
X140435000Y-145007064D01*
X138965000Y-144552936D02*
X138965000Y-145007064D01*
%TO.C,D3*%
X108725500Y-121185000D02*
X108725500Y-122655000D01*
X108725500Y-122655000D02*
X111010500Y-122655000D01*
X111010500Y-121185000D02*
X108725500Y-121185000D01*
%TO.C,J3*%
X149954000Y-96010000D02*
X149954000Y-99755000D01*
X149407471Y-96010000D02*
X149954000Y-96010000D01*
X149151530Y-99755000D02*
X149954000Y-99755000D01*
X147734000Y-99755000D02*
X148536470Y-99755000D01*
X147734000Y-96010000D02*
X148280529Y-96010000D01*
X147734000Y-96010000D02*
X147734000Y-99755000D01*
X147734000Y-95250000D02*
X147734000Y-94490000D01*
X147734000Y-94490000D02*
X148844000Y-94490000D01*
D13*
%TO.C,SW2*%
X136025000Y-107600000D02*
X143375000Y-107600000D01*
X136025000Y-111920000D02*
X136025000Y-107600000D01*
X136025000Y-112400000D02*
X136025000Y-111920000D01*
X143375000Y-107600000D02*
X143375000Y-112400000D01*
X143375000Y-112400000D02*
X136025000Y-112400000D01*
D14*
%TO.C,D1*%
X124626000Y-93372000D02*
X124626000Y-94842000D01*
X124626000Y-94842000D02*
X126911000Y-94842000D01*
X126911000Y-93372000D02*
X124626000Y-93372000D01*
%TO.C,D5*%
X140435000Y-69152500D02*
X138965000Y-69152500D01*
X138965000Y-69152500D02*
X138965000Y-71437500D01*
X140435000Y-71437500D02*
X140435000Y-69152500D01*
D15*
%TO.C,Q1*%
X147345999Y-88461001D02*
X148949999Y-88461001D01*
X148949999Y-86007001D02*
X147345999Y-86007001D01*
D14*
%TO.C,C2*%
X138940000Y-87864420D02*
X138940000Y-88145580D01*
X137920000Y-87864420D02*
X137920000Y-88145580D01*
%TO.C,U1*%
X139765000Y-90053000D02*
X136315000Y-90053000D01*
X139765000Y-90053000D02*
X141715000Y-90053000D01*
X139765000Y-98923000D02*
X137815000Y-98923000D01*
X139765000Y-98923000D02*
X141715000Y-98923000D01*
%TO.C,D4*%
X167933000Y-121185000D02*
X167933000Y-122655000D01*
X167933000Y-122655000D02*
X170218000Y-122655000D01*
X170218000Y-121185000D02*
X167933000Y-121185000D01*
%TO.C,C1*%
X142013000Y-101861252D02*
X142013000Y-101338748D01*
X143483000Y-101861252D02*
X143483000Y-101338748D01*
%TO.C,D2*%
X152058000Y-93372000D02*
X152058000Y-94842000D01*
X152058000Y-94842000D02*
X154343000Y-94842000D01*
X154343000Y-93372000D02*
X152058000Y-93372000D01*
%TD*%
M02*
