%TF.GenerationSoftware,KiCad,Pcbnew,7.0.2-0*%
%TF.CreationDate,2024-07-21T16:06:54-04:00*%
%TF.ProjectId,Tree Ornanment 2024,54726565-204f-4726-9e61-6e6d656e7420,rev?*%
%TF.SameCoordinates,Original*%
%TF.FileFunction,Soldermask,Top*%
%TF.FilePolarity,Negative*%
%FSLAX46Y46*%
G04 Gerber Fmt 4.6, Leading zero omitted, Abs format (unit mm)*
G04 Created by KiCad (PCBNEW 7.0.2-0) date 2024-07-21 16:06:54*
%MOMM*%
%LPD*%
G01*
G04 APERTURE LIST*
G04 Aperture macros list*
%AMRoundRect*
0 Rectangle with rounded corners*
0 $1 Rounding radius*
0 $2 $3 $4 $5 $6 $7 $8 $9 X,Y pos of 4 corners*
0 Add a 4 corners polygon primitive as box body*
4,1,4,$2,$3,$4,$5,$6,$7,$8,$9,$2,$3,0*
0 Add four circle primitives for the rounded corners*
1,1,$1+$1,$2,$3*
1,1,$1+$1,$4,$5*
1,1,$1+$1,$6,$7*
1,1,$1+$1,$8,$9*
0 Add four rect primitives between the rounded corners*
20,1,$1+$1,$2,$3,$4,$5,0*
20,1,$1+$1,$4,$5,$6,$7,0*
20,1,$1+$1,$6,$7,$8,$9,0*
20,1,$1+$1,$8,$9,$2,$3,0*%
G04 Aperture macros list end*
%ADD10RoundRect,0.250000X0.450000X-0.262500X0.450000X0.262500X-0.450000X0.262500X-0.450000X-0.262500X0*%
%ADD11RoundRect,0.200000X-0.200000X-0.275000X0.200000X-0.275000X0.200000X0.275000X-0.200000X0.275000X0*%
%ADD12C,1.152000*%
%ADD13C,1.500000*%
%ADD14R,1.600000X1.600000*%
%ADD15C,1.600000*%
%ADD16RoundRect,0.140000X0.140000X0.170000X-0.140000X0.170000X-0.140000X-0.170000X0.140000X-0.170000X0*%
%ADD17RoundRect,0.250000X0.650000X-0.250000X0.650000X0.250000X-0.650000X0.250000X-0.650000X-0.250000X0*%
%ADD18RoundRect,0.250000X-0.450000X0.262500X-0.450000X-0.262500X0.450000X-0.262500X0.450000X0.262500X0*%
%ADD19RoundRect,0.218750X-0.218750X-0.256250X0.218750X-0.256250X0.218750X0.256250X-0.218750X0.256250X0*%
%ADD20O,1.000000X1.000000*%
%ADD21R,1.000000X1.000000*%
%ADD22RoundRect,0.250000X-0.525000X-0.250000X0.525000X-0.250000X0.525000X0.250000X-0.525000X0.250000X0*%
%ADD23RoundRect,0.218750X-0.256250X0.218750X-0.256250X-0.218750X0.256250X-0.218750X0.256250X0.218750X0*%
%ADD24R,0.600000X0.420000*%
%ADD25O,0.600000X0.420000*%
%ADD26RoundRect,0.225000X-0.250000X0.225000X-0.250000X-0.225000X0.250000X-0.225000X0.250000X0.225000X0*%
%ADD27RoundRect,0.150000X-0.825000X-0.150000X0.825000X-0.150000X0.825000X0.150000X-0.825000X0.150000X0*%
%ADD28C,2.000000*%
%ADD29R,2.000000X2.000000*%
%ADD30RoundRect,0.250000X0.475000X-0.250000X0.475000X0.250000X-0.475000X0.250000X-0.475000X-0.250000X0*%
G04 APERTURE END LIST*
D10*
%TO.C,R4*%
X139718000Y-75212500D03*
X139718000Y-73387500D03*
%TD*%
D11*
%TO.C,R2*%
X136589000Y-100584000D03*
X138239000Y-100584000D03*
%TD*%
D12*
%TO.C,REF\u002A\u002A*%
X175641000Y-125984000D03*
%TD*%
D13*
%TO.C,REF\u002A\u002A*%
X139700000Y-65532000D03*
%TD*%
D14*
%TO.C,J1*%
X134620000Y-83820000D03*
D15*
X137160000Y-83820000D03*
X139700000Y-83820000D03*
X142240000Y-83820000D03*
X144780000Y-83820000D03*
%TD*%
D11*
%TO.C,R3*%
X132993000Y-86956000D03*
X134643000Y-86956000D03*
%TD*%
D16*
%TO.C,C4*%
X132080000Y-93900000D03*
X131120000Y-93900000D03*
%TD*%
%TO.C,C3*%
X132080000Y-91400000D03*
X131120000Y-91400000D03*
%TD*%
D17*
%TO.C,Y1*%
X134112000Y-93892000D03*
X134112000Y-91392000D03*
%TD*%
D18*
%TO.C,R1*%
X139700000Y-143867500D03*
X139700000Y-145692500D03*
%TD*%
D12*
%TO.C,REF\u002A\u002A*%
X104267000Y-125984000D03*
%TD*%
D19*
%TO.C,D3*%
X109423000Y-121920000D03*
X110998000Y-121920000D03*
%TD*%
D20*
%TO.C,J3*%
X148844000Y-99060000D03*
X148844000Y-97790000D03*
X148844000Y-96520000D03*
D21*
X148844000Y-95250000D03*
%TD*%
D22*
%TO.C,SW2*%
X137075000Y-108400000D03*
X142325000Y-108400000D03*
X137075000Y-111600000D03*
X142325000Y-111600000D03*
%TD*%
D19*
%TO.C,D1*%
X125323500Y-94107000D03*
X126898500Y-94107000D03*
%TD*%
D23*
%TO.C,D5*%
X139700000Y-69850000D03*
X139700000Y-71425000D03*
%TD*%
D24*
%TO.C,Q1*%
X147197998Y-86584002D03*
D25*
X147197998Y-87234001D03*
X147197998Y-87884000D03*
X149098000Y-87884000D03*
X149098000Y-87234001D03*
X149098000Y-86584002D03*
%TD*%
D26*
%TO.C,C2*%
X138430000Y-87230000D03*
X138430000Y-88780000D03*
%TD*%
D27*
%TO.C,U1*%
X137290000Y-90678000D03*
X137290000Y-91948000D03*
X137290000Y-93218000D03*
X137290000Y-94488000D03*
X137290000Y-95758000D03*
X137290000Y-97028000D03*
X137290000Y-98298000D03*
X142240000Y-98298000D03*
X142240000Y-97028000D03*
X142240000Y-95758000D03*
X142240000Y-94488000D03*
X142240000Y-93218000D03*
X142240000Y-91948000D03*
X142240000Y-90678000D03*
%TD*%
D19*
%TO.C,D4*%
X168630500Y-121920000D03*
X170205500Y-121920000D03*
%TD*%
D28*
%TO.C,J2*%
X144780000Y-79248000D03*
X142240000Y-79248000D03*
X139700000Y-79248000D03*
X137160000Y-79248000D03*
D29*
X134620000Y-79248000D03*
%TD*%
D30*
%TO.C,C1*%
X142748000Y-102550000D03*
X142748000Y-100650000D03*
%TD*%
D19*
%TO.C,D2*%
X152755500Y-94107000D03*
X154330500Y-94107000D03*
%TD*%
M02*
