%TF.GenerationSoftware,KiCad,Pcbnew,7.0.2-0*%
%TF.CreationDate,2024-07-21T16:06:54-04:00*%
%TF.ProjectId,Tree Ornanment 2024,54726565-204f-4726-9e61-6e6d656e7420,rev?*%
%TF.SameCoordinates,Original*%
%TF.FileFunction,Copper,L2,Bot*%
%TF.FilePolarity,Positive*%
%FSLAX46Y46*%
G04 Gerber Fmt 4.6, Leading zero omitted, Abs format (unit mm)*
G04 Created by KiCad (PCBNEW 7.0.2-0) date 2024-07-21 16:06:54*
%MOMM*%
%LPD*%
G01*
G04 APERTURE LIST*
G04 Aperture macros list*
%AMRoundRect*
0 Rectangle with rounded corners*
0 $1 Rounding radius*
0 $2 $3 $4 $5 $6 $7 $8 $9 X,Y pos of 4 corners*
0 Add a 4 corners polygon primitive as box body*
4,1,4,$2,$3,$4,$5,$6,$7,$8,$9,$2,$3,0*
0 Add four circle primitives for the rounded corners*
1,1,$1+$1,$2,$3*
1,1,$1+$1,$4,$5*
1,1,$1+$1,$6,$7*
1,1,$1+$1,$8,$9*
0 Add four rect primitives between the rounded corners*
20,1,$1+$1,$2,$3,$4,$5,0*
20,1,$1+$1,$4,$5,$6,$7,0*
20,1,$1+$1,$6,$7,$8,$9,0*
20,1,$1+$1,$8,$9,$2,$3,0*%
G04 Aperture macros list end*
%TA.AperFunction,ComponentPad*%
%ADD10C,1.500000*%
%TD*%
%TA.AperFunction,ComponentPad*%
%ADD11R,1.600000X1.600000*%
%TD*%
%TA.AperFunction,ComponentPad*%
%ADD12C,1.600000*%
%TD*%
%TA.AperFunction,ComponentPad*%
%ADD13O,1.000000X1.000000*%
%TD*%
%TA.AperFunction,ComponentPad*%
%ADD14R,1.000000X1.000000*%
%TD*%
%TA.AperFunction,SMDPad,CuDef*%
%ADD15RoundRect,0.300000X0.700000X-0.300000X0.700000X0.300000X-0.700000X0.300000X-0.700000X-0.300000X0*%
%TD*%
%TA.AperFunction,SMDPad,CuDef*%
%ADD16RoundRect,0.800000X0.800000X1.300000X-0.800000X1.300000X-0.800000X-1.300000X0.800000X-1.300000X0*%
%TD*%
%TA.AperFunction,ViaPad*%
%ADD17C,0.800000*%
%TD*%
%TA.AperFunction,Conductor*%
%ADD18C,0.350000*%
%TD*%
%TA.AperFunction,Conductor*%
%ADD19C,0.250000*%
%TD*%
G04 APERTURE END LIST*
D10*
%TO.P,REF\u002A\u002A,*%
%TO.N,*%
X139700000Y-65532000D03*
%TD*%
D11*
%TO.P,J1,1,Vpp*%
%TO.N,/MCLR*%
X134620000Y-83820000D03*
D12*
%TO.P,J1,2,Vdd*%
%TO.N,+3V0*%
X137160000Y-83820000D03*
%TO.P,J1,3,Vss*%
%TO.N,GND*%
X139700000Y-83820000D03*
%TO.P,J1,4,PGD*%
%TO.N,/DATA*%
X142240000Y-83820000D03*
%TO.P,J1,5,PGC*%
%TO.N,/CLK*%
X144780000Y-83820000D03*
%TD*%
D13*
%TO.P,J3,4,4*%
%TO.N,Net-(U1-RC2)*%
X148844000Y-99060000D03*
%TO.P,J3,3,3*%
%TO.N,Net-(U1-RC1)*%
X148844000Y-97790000D03*
%TO.P,J3,2,2*%
%TO.N,Net-(U1-RC0)*%
X148844000Y-96520000D03*
D14*
%TO.P,J3,1,1*%
%TO.N,Net-(U1-RA2)*%
X148844000Y-95250000D03*
%TD*%
D15*
%TO.P,SW1,1,NO*%
%TO.N,+3V0*%
X142490000Y-138390000D03*
%TO.P,SW1,2,C*%
%TO.N,/BAT+*%
X142490000Y-135890000D03*
%TO.P,SW1,3,NC*%
%TO.N,unconnected-(SW1-NC-Pad3)*%
X142490000Y-133390000D03*
%TO.P,SW1,4,NO*%
%TO.N,+3V0*%
X136990000Y-138390000D03*
%TO.P,SW1,5,C*%
%TO.N,/BAT+*%
X136990000Y-135890000D03*
%TO.P,SW1,6,NC*%
%TO.N,unconnected-(SW1-NC-Pad6)*%
X136990000Y-133390000D03*
%TD*%
D16*
%TO.P,B1,1,+*%
%TO.N,/BAT+*%
X154350000Y-114300000D03*
%TO.P,B1,2,-*%
%TO.N,GND*%
X125050000Y-114300000D03*
%TD*%
D17*
%TO.N,+3V0*%
X144518000Y-138000000D03*
X144518000Y-139100000D03*
%TO.N,GND*%
X130318000Y-90956000D03*
X138945378Y-89798751D03*
X141418000Y-100456000D03*
X137934500Y-89778500D03*
X137068000Y-110456000D03*
X142318000Y-112706000D03*
X130318000Y-93456000D03*
X146304000Y-86584002D03*
X149860000Y-87884000D03*
X137068000Y-112706000D03*
X141818000Y-89706000D03*
X149098000Y-88646000D03*
X130318000Y-94456000D03*
X140818000Y-90656000D03*
X130318000Y-91956000D03*
X142318000Y-110456000D03*
X143943000Y-100456000D03*
X139700000Y-81280000D03*
X138684000Y-80772000D03*
X146812000Y-85852000D03*
X140716000Y-80772000D03*
%TO.N,/PWM_OUT*%
X145542000Y-92710000D03*
X138684000Y-95758000D03*
%TO.N,/BAT+*%
X144780000Y-118364000D03*
X144218000Y-135400000D03*
X144218000Y-136300000D03*
%TO.N,/STAR_LED*%
X146558000Y-92710000D03*
X138775775Y-97028000D03*
%TO.N,/ARR_CATH*%
X167818000Y-122456000D03*
X167818000Y-121456000D03*
X149098000Y-84582000D03*
X108818000Y-122956000D03*
X151130000Y-86614000D03*
X124568000Y-94706000D03*
X124568000Y-93500000D03*
X152068000Y-94706000D03*
X110068000Y-122956000D03*
X152068000Y-93456000D03*
%TD*%
D18*
%TO.N,+3V0*%
X144218000Y-138800000D02*
X144518000Y-139100000D01*
X142490000Y-138390000D02*
X143828000Y-138390000D01*
X136990000Y-138390000D02*
X142490000Y-138390000D01*
X144218000Y-138000000D02*
X143828000Y-138390000D01*
X143828000Y-138410000D02*
X144218000Y-138800000D01*
D19*
X143828000Y-138390000D02*
X143828000Y-138410000D01*
D18*
X144518000Y-138000000D02*
X144218000Y-138000000D01*
D19*
%TO.N,/PWM_OUT*%
X138684000Y-95758000D02*
X142494000Y-95758000D01*
X142494000Y-95758000D02*
X145542000Y-92710000D01*
D18*
%TO.N,/BAT+*%
X136990000Y-135890000D02*
X142490000Y-135890000D01*
X143746000Y-135400000D02*
X143256000Y-135890000D01*
X143408000Y-135890000D02*
X142490000Y-135890000D01*
X148844000Y-114300000D02*
X154940000Y-114300000D01*
X144780000Y-118364000D02*
X148844000Y-114300000D01*
X143818000Y-136300000D02*
X143408000Y-135890000D01*
X144218000Y-135400000D02*
X143746000Y-135400000D01*
X144218000Y-136300000D02*
X143818000Y-136300000D01*
D19*
%TO.N,/STAR_LED*%
X146558000Y-92719305D02*
X142249305Y-97028000D01*
X146558000Y-92710000D02*
X146558000Y-92719305D01*
X142249305Y-97028000D02*
X138775775Y-97028000D01*
%TD*%
%TA.AperFunction,Conductor*%
%TO.N,GND*%
G36*
X146261039Y-77975685D02*
G01*
X146306794Y-78028489D01*
X146318000Y-78080000D01*
X146318000Y-83637781D01*
X146298315Y-83704820D01*
X146245511Y-83750575D01*
X146176353Y-83760519D01*
X146112797Y-83731494D01*
X146075023Y-83672716D01*
X146070472Y-83648588D01*
X146065635Y-83593310D01*
X146065635Y-83593308D01*
X146006739Y-83373504D01*
X145910568Y-83167266D01*
X145859636Y-83094526D01*
X145780046Y-82980859D01*
X145619140Y-82819953D01*
X145432735Y-82689432D01*
X145226497Y-82593261D01*
X145006689Y-82534364D01*
X144780000Y-82514531D01*
X144553310Y-82534364D01*
X144333502Y-82593261D01*
X144127264Y-82689432D01*
X143940859Y-82819953D01*
X143779953Y-82980859D01*
X143649433Y-83167263D01*
X143622382Y-83225275D01*
X143576209Y-83277714D01*
X143509015Y-83296865D01*
X143442134Y-83276649D01*
X143397618Y-83225275D01*
X143370568Y-83167266D01*
X143319636Y-83094527D01*
X143240046Y-82980859D01*
X143079140Y-82819953D01*
X142892735Y-82689432D01*
X142686497Y-82593261D01*
X142466689Y-82534364D01*
X142239999Y-82514531D01*
X142013310Y-82534364D01*
X141793502Y-82593261D01*
X141587264Y-82689432D01*
X141400859Y-82819953D01*
X141239953Y-82980859D01*
X141109430Y-83167267D01*
X141082105Y-83225866D01*
X141035932Y-83278305D01*
X140968739Y-83297456D01*
X140901858Y-83277239D01*
X140857342Y-83225865D01*
X140830133Y-83167515D01*
X140779025Y-83094526D01*
X140225929Y-83647622D01*
X140223116Y-83634085D01*
X140153558Y-83499844D01*
X140050362Y-83389348D01*
X139921181Y-83310791D01*
X139869996Y-83296449D01*
X140425472Y-82740974D01*
X140425471Y-82740972D01*
X140352484Y-82689866D01*
X140146326Y-82593733D01*
X139926602Y-82534858D01*
X139699999Y-82515033D01*
X139473397Y-82534858D01*
X139253672Y-82593733D01*
X139047516Y-82689865D01*
X138974527Y-82740973D01*
X138974526Y-82740973D01*
X139528432Y-83294878D01*
X139411542Y-83345651D01*
X139294261Y-83441066D01*
X139207072Y-83564585D01*
X139176645Y-83650197D01*
X138620973Y-83094526D01*
X138620973Y-83094527D01*
X138569865Y-83167517D01*
X138542657Y-83225865D01*
X138496484Y-83278304D01*
X138429290Y-83297456D01*
X138362409Y-83277240D01*
X138317893Y-83225865D01*
X138290567Y-83167264D01*
X138160046Y-82980859D01*
X137999140Y-82819953D01*
X137812735Y-82689432D01*
X137606497Y-82593261D01*
X137386689Y-82534364D01*
X137160000Y-82514531D01*
X136933310Y-82534364D01*
X136713502Y-82593261D01*
X136507264Y-82689432D01*
X136320859Y-82819953D01*
X136159951Y-82980861D01*
X136142725Y-83005463D01*
X136088148Y-83049088D01*
X136018649Y-83056280D01*
X135956295Y-83024757D01*
X135920882Y-82964527D01*
X135917861Y-82947592D01*
X135914091Y-82912517D01*
X135863796Y-82777669D01*
X135777546Y-82662454D01*
X135662331Y-82576204D01*
X135527483Y-82525909D01*
X135467873Y-82519500D01*
X135464550Y-82519500D01*
X133775439Y-82519500D01*
X133775420Y-82519500D01*
X133772128Y-82519501D01*
X133768848Y-82519853D01*
X133768840Y-82519854D01*
X133712515Y-82525909D01*
X133577669Y-82576204D01*
X133462454Y-82662454D01*
X133376204Y-82777668D01*
X133325910Y-82912515D01*
X133325909Y-82912517D01*
X133319500Y-82972127D01*
X133319500Y-82975448D01*
X133319500Y-82975449D01*
X133319500Y-84664560D01*
X133319500Y-84664578D01*
X133319501Y-84667872D01*
X133319853Y-84671152D01*
X133319854Y-84671159D01*
X133325909Y-84727483D01*
X133376204Y-84862331D01*
X133462454Y-84977546D01*
X133577669Y-85063796D01*
X133712517Y-85114091D01*
X133772127Y-85120500D01*
X135467872Y-85120499D01*
X135527483Y-85114091D01*
X135662331Y-85063796D01*
X135777546Y-84977546D01*
X135863796Y-84862331D01*
X135914091Y-84727483D01*
X135917862Y-84692404D01*
X135944598Y-84627856D01*
X136001989Y-84588006D01*
X136071814Y-84585511D01*
X136131904Y-84621162D01*
X136142726Y-84634537D01*
X136159953Y-84659140D01*
X136320859Y-84820046D01*
X136507264Y-84950567D01*
X136507265Y-84950567D01*
X136507266Y-84950568D01*
X136713504Y-85046739D01*
X136933308Y-85105635D01*
X137084435Y-85118856D01*
X137159999Y-85125468D01*
X137159999Y-85125467D01*
X137160000Y-85125468D01*
X137386692Y-85105635D01*
X137606496Y-85046739D01*
X137812734Y-84950568D01*
X137999139Y-84820047D01*
X138160047Y-84659139D01*
X138290568Y-84472734D01*
X138317893Y-84414134D01*
X138364065Y-84361695D01*
X138431258Y-84342543D01*
X138498139Y-84362758D01*
X138542657Y-84414133D01*
X138569867Y-84472485D01*
X138620972Y-84545471D01*
X138620974Y-84545472D01*
X139174070Y-83992375D01*
X139176884Y-84005915D01*
X139246442Y-84140156D01*
X139349638Y-84250652D01*
X139478819Y-84329209D01*
X139530002Y-84343549D01*
X138974526Y-84899025D01*
X138974526Y-84899026D01*
X139047515Y-84950133D01*
X139253673Y-85046266D01*
X139473397Y-85105141D01*
X139700000Y-85124966D01*
X139926602Y-85105141D01*
X140146326Y-85046266D01*
X140352480Y-84950134D01*
X140425472Y-84899025D01*
X139871568Y-84345121D01*
X139988458Y-84294349D01*
X140105739Y-84198934D01*
X140192928Y-84075415D01*
X140223354Y-83989801D01*
X140779025Y-84545472D01*
X140830136Y-84472479D01*
X140857342Y-84414135D01*
X140903514Y-84361695D01*
X140970707Y-84342543D01*
X141037589Y-84362758D01*
X141082106Y-84414133D01*
X141109433Y-84472736D01*
X141239953Y-84659140D01*
X141400859Y-84820046D01*
X141587264Y-84950567D01*
X141587265Y-84950567D01*
X141587266Y-84950568D01*
X141793504Y-85046739D01*
X142013308Y-85105635D01*
X142240000Y-85125468D01*
X142466692Y-85105635D01*
X142686496Y-85046739D01*
X142892734Y-84950568D01*
X143079139Y-84820047D01*
X143240047Y-84659139D01*
X143370568Y-84472734D01*
X143397618Y-84414724D01*
X143443790Y-84362285D01*
X143510983Y-84343133D01*
X143577865Y-84363348D01*
X143622382Y-84414725D01*
X143649431Y-84472733D01*
X143779953Y-84659140D01*
X143940859Y-84820046D01*
X144127264Y-84950567D01*
X144127265Y-84950567D01*
X144127266Y-84950568D01*
X144333504Y-85046739D01*
X144553308Y-85105635D01*
X144780000Y-85125468D01*
X145006692Y-85105635D01*
X145226496Y-85046739D01*
X145432734Y-84950568D01*
X145619139Y-84820047D01*
X145780047Y-84659139D01*
X145910568Y-84472734D01*
X146006739Y-84266496D01*
X146065635Y-84046692D01*
X146069526Y-84002218D01*
X146070472Y-83991411D01*
X146095924Y-83926342D01*
X146152515Y-83885363D01*
X146222277Y-83881485D01*
X146283061Y-83915939D01*
X146315569Y-83977786D01*
X146318000Y-84002218D01*
X146318000Y-84956000D01*
X148202529Y-84956000D01*
X148269568Y-84975685D01*
X148309916Y-85018000D01*
X148365466Y-85114215D01*
X148492129Y-85254889D01*
X148645269Y-85366151D01*
X148818197Y-85443144D01*
X149003352Y-85482500D01*
X149003354Y-85482500D01*
X149192648Y-85482500D01*
X149316084Y-85456262D01*
X149377803Y-85443144D01*
X149550730Y-85366151D01*
X149703871Y-85254888D01*
X149830533Y-85114216D01*
X149869491Y-85046739D01*
X149886084Y-85018000D01*
X149936651Y-84969784D01*
X149993471Y-84956000D01*
X150194000Y-84956000D01*
X150261039Y-84975685D01*
X150306794Y-85028489D01*
X150318000Y-85080000D01*
X150318000Y-86186199D01*
X150305491Y-86232880D01*
X150306848Y-86233321D01*
X150244326Y-86425742D01*
X150224540Y-86613999D01*
X150244326Y-86802257D01*
X150306849Y-86994680D01*
X150305491Y-86995121D01*
X150318000Y-87041799D01*
X150318000Y-89632000D01*
X150298315Y-89699039D01*
X150245511Y-89744794D01*
X150194000Y-89756000D01*
X146318000Y-89756000D01*
X146318000Y-91750608D01*
X146298315Y-91817647D01*
X146245511Y-91863402D01*
X146244435Y-91863888D01*
X146100435Y-91928001D01*
X146031185Y-91937285D01*
X145999564Y-91928001D01*
X145854473Y-91863402D01*
X145821803Y-91848856D01*
X145821802Y-91848855D01*
X145821798Y-91848854D01*
X145636648Y-91809500D01*
X145636646Y-91809500D01*
X145447354Y-91809500D01*
X145447352Y-91809500D01*
X145262197Y-91848855D01*
X145089269Y-91925848D01*
X144936129Y-92037110D01*
X144809466Y-92177783D01*
X144714820Y-92341715D01*
X144656326Y-92521742D01*
X144638679Y-92689649D01*
X144612094Y-92754263D01*
X144603039Y-92764368D01*
X142947728Y-94419681D01*
X142886405Y-94453166D01*
X142860047Y-94456000D01*
X137818000Y-94456000D01*
X137818000Y-95489554D01*
X137811931Y-95527871D01*
X137798326Y-95569740D01*
X137778540Y-95758000D01*
X137798326Y-95946257D01*
X137811931Y-95988127D01*
X137818000Y-96026445D01*
X137818000Y-96956000D01*
X137818001Y-96956000D01*
X137836953Y-96974953D01*
X137870438Y-97036276D01*
X137872593Y-97049672D01*
X137890101Y-97216257D01*
X137948595Y-97396284D01*
X138043241Y-97560216D01*
X138169904Y-97700889D01*
X138323044Y-97812151D01*
X138495972Y-97889144D01*
X138681127Y-97928500D01*
X138681129Y-97928500D01*
X138870423Y-97928500D01*
X138993859Y-97902262D01*
X139055578Y-97889144D01*
X139228505Y-97812151D01*
X139381646Y-97700888D01*
X139387373Y-97694527D01*
X139446859Y-97657879D01*
X139479522Y-97653500D01*
X142166561Y-97653500D01*
X142187067Y-97655764D01*
X142189970Y-97655672D01*
X142189972Y-97655673D01*
X142257177Y-97653561D01*
X142261073Y-97653500D01*
X142284753Y-97653500D01*
X142288655Y-97653500D01*
X142292618Y-97652999D01*
X142304267Y-97652080D01*
X142347932Y-97650709D01*
X142367164Y-97645120D01*
X142386223Y-97641174D01*
X142392501Y-97640381D01*
X142406097Y-97638664D01*
X142446712Y-97622582D01*
X142457749Y-97618803D01*
X142499695Y-97606618D01*
X142516934Y-97596422D01*
X142534407Y-97587862D01*
X142553037Y-97580486D01*
X142588369Y-97554814D01*
X142598135Y-97548400D01*
X142635723Y-97526171D01*
X142635722Y-97526171D01*
X142635725Y-97526170D01*
X142649890Y-97512004D01*
X142664678Y-97499373D01*
X142680892Y-97487594D01*
X142708743Y-97453926D01*
X142716584Y-97445309D01*
X143169575Y-96992318D01*
X143230898Y-96958834D01*
X143257256Y-96956000D01*
X146193895Y-96956000D01*
X146260934Y-96975685D01*
X146306689Y-97028489D01*
X146317894Y-97080103D01*
X146317175Y-97928500D01*
X146304043Y-113404826D01*
X146284302Y-113471849D01*
X146267878Y-113492248D01*
X142354345Y-117419527D01*
X142293080Y-117453120D01*
X142266510Y-117456000D01*
X122442000Y-117456000D01*
X122374961Y-117436315D01*
X122329206Y-117383511D01*
X122318000Y-117332000D01*
X122318000Y-116446015D01*
X123257537Y-116446015D01*
X123411180Y-116599658D01*
X123597519Y-116730134D01*
X123803673Y-116826266D01*
X124023397Y-116885141D01*
X124190535Y-116899763D01*
X124195946Y-116899999D01*
X125904052Y-116899999D01*
X125909464Y-116899762D01*
X126076601Y-116885141D01*
X126296326Y-116826266D01*
X126502480Y-116730134D01*
X126688818Y-116599658D01*
X126842462Y-116446015D01*
X126842462Y-116446014D01*
X125050000Y-114653553D01*
X123257537Y-116446015D01*
X122318000Y-116446015D01*
X122318000Y-115654052D01*
X122950000Y-115654052D01*
X122950237Y-115659464D01*
X122964858Y-115826601D01*
X123008177Y-115988268D01*
X124696447Y-114300000D01*
X125403553Y-114300000D01*
X127091821Y-115988269D01*
X127135141Y-115826600D01*
X127149763Y-115659464D01*
X127149999Y-115654053D01*
X127149999Y-112945947D01*
X127149762Y-112940535D01*
X127135141Y-112773397D01*
X127091821Y-112611729D01*
X125403553Y-114299999D01*
X125403553Y-114300000D01*
X124696447Y-114300000D01*
X124696447Y-114299999D01*
X123008176Y-112611729D01*
X122964858Y-112773397D01*
X122950236Y-112940535D01*
X122950000Y-112945946D01*
X122950000Y-115654052D01*
X122318000Y-115654052D01*
X122318000Y-112153984D01*
X123257537Y-112153984D01*
X125049999Y-113946446D01*
X126842462Y-112153984D01*
X126688819Y-112000341D01*
X126502480Y-111869865D01*
X126296326Y-111773733D01*
X126076602Y-111714858D01*
X125909464Y-111700236D01*
X125904053Y-111700000D01*
X124195947Y-111700000D01*
X124190535Y-111700237D01*
X124023398Y-111714858D01*
X123803673Y-111773733D01*
X123597519Y-111869865D01*
X123411183Y-112000338D01*
X123257537Y-112153984D01*
X122318000Y-112153984D01*
X122318000Y-111507362D01*
X122337685Y-111440323D01*
X122354319Y-111419681D01*
X123781681Y-109992319D01*
X123843004Y-109958834D01*
X123869362Y-109956000D01*
X134818000Y-109956000D01*
X134818000Y-95956000D01*
X129442000Y-95956000D01*
X129374961Y-95936315D01*
X129329206Y-95883511D01*
X129318000Y-95832000D01*
X129318000Y-85180000D01*
X129337685Y-85112961D01*
X129390489Y-85067206D01*
X129442000Y-85056000D01*
X132818000Y-85056000D01*
X132818000Y-78080000D01*
X132837685Y-78012961D01*
X132890489Y-77967206D01*
X132942000Y-77956000D01*
X146194000Y-77956000D01*
X146261039Y-77975685D01*
G37*
%TD.AperFunction*%
%TD*%
%TA.AperFunction,Conductor*%
%TO.N,/ARR_CATH*%
G36*
X140451172Y-66641478D02*
G01*
X140473165Y-66665976D01*
X162171223Y-98489794D01*
X162427827Y-98866146D01*
X162449329Y-98932625D01*
X162431476Y-99000175D01*
X162379937Y-99047351D01*
X162325375Y-99060000D01*
X152400000Y-99060000D01*
X172558830Y-124258538D01*
X172585338Y-124323184D01*
X172572688Y-124391899D01*
X172524896Y-124442866D01*
X172462002Y-124460000D01*
X147320000Y-124460000D01*
X147320000Y-149736000D01*
X147300315Y-149803039D01*
X147247511Y-149848794D01*
X147196000Y-149860000D01*
X132204000Y-149860000D01*
X132136961Y-149840315D01*
X132091206Y-149787511D01*
X132080000Y-149736000D01*
X132080000Y-138734954D01*
X135489500Y-138734954D01*
X135489889Y-138738410D01*
X135489890Y-138738420D01*
X135504631Y-138869250D01*
X135504632Y-138869255D01*
X135564211Y-139039522D01*
X135564212Y-139039523D01*
X135660185Y-139192264D01*
X135787735Y-139319814D01*
X135787737Y-139319815D01*
X135787738Y-139319816D01*
X135940478Y-139415789D01*
X136110745Y-139475368D01*
X136245046Y-139490500D01*
X136248530Y-139490500D01*
X137731470Y-139490500D01*
X137734954Y-139490500D01*
X137869255Y-139475368D01*
X138039522Y-139415789D01*
X138192262Y-139319816D01*
X138319816Y-139192262D01*
X138363003Y-139123528D01*
X138415340Y-139077237D01*
X138467999Y-139065500D01*
X141012001Y-139065500D01*
X141079040Y-139085185D01*
X141116995Y-139123528D01*
X141160184Y-139192263D01*
X141287735Y-139319814D01*
X141287737Y-139319815D01*
X141287738Y-139319816D01*
X141440478Y-139415789D01*
X141610745Y-139475368D01*
X141745046Y-139490500D01*
X141748530Y-139490500D01*
X143231470Y-139490500D01*
X143234954Y-139490500D01*
X143369255Y-139475368D01*
X143539522Y-139415789D01*
X143539524Y-139415787D01*
X143543204Y-139414500D01*
X143612983Y-139410938D01*
X143673610Y-139445666D01*
X143691546Y-139469541D01*
X143785466Y-139632215D01*
X143912129Y-139772889D01*
X144065269Y-139884151D01*
X144238197Y-139961144D01*
X144423352Y-140000500D01*
X144423354Y-140000500D01*
X144612648Y-140000500D01*
X144736083Y-139974262D01*
X144797803Y-139961144D01*
X144970730Y-139884151D01*
X145123871Y-139772888D01*
X145250533Y-139632216D01*
X145345179Y-139468284D01*
X145403674Y-139288256D01*
X145423460Y-139100000D01*
X145403674Y-138911744D01*
X145373332Y-138818363D01*
X145345179Y-138731715D01*
X145276061Y-138612000D01*
X145259588Y-138544100D01*
X145276061Y-138488000D01*
X145345179Y-138368284D01*
X145345178Y-138368284D01*
X145403674Y-138188256D01*
X145423460Y-138000000D01*
X145403674Y-137811744D01*
X145345179Y-137631716D01*
X145345179Y-137631715D01*
X145250533Y-137467783D01*
X145123870Y-137327110D01*
X144970734Y-137215850D01*
X144881642Y-137176184D01*
X144865651Y-137169064D01*
X144812415Y-137123814D01*
X144792094Y-137056965D01*
X144811139Y-136989741D01*
X144823930Y-136972821D01*
X144950533Y-136832216D01*
X144957694Y-136819814D01*
X145045179Y-136668284D01*
X145059721Y-136623528D01*
X145103674Y-136488256D01*
X145123460Y-136300000D01*
X145103674Y-136111744D01*
X145045179Y-135931716D01*
X145033795Y-135911999D01*
X145017323Y-135844101D01*
X145033796Y-135787999D01*
X145045179Y-135768284D01*
X145103674Y-135588256D01*
X145123460Y-135400000D01*
X145103674Y-135211744D01*
X145045179Y-135031716D01*
X145045179Y-135031715D01*
X144950533Y-134867783D01*
X144823870Y-134727110D01*
X144670730Y-134615848D01*
X144497802Y-134538855D01*
X144312648Y-134499500D01*
X144312646Y-134499500D01*
X144123354Y-134499500D01*
X144123352Y-134499500D01*
X143938197Y-134538855D01*
X143765269Y-134615848D01*
X143622053Y-134719901D01*
X143593134Y-134735527D01*
X143574384Y-134742637D01*
X143552776Y-134748661D01*
X143543561Y-134750350D01*
X143490782Y-134774102D01*
X143483868Y-134776965D01*
X143429426Y-134797613D01*
X143371570Y-134804892D01*
X143238421Y-134789890D01*
X143238409Y-134789889D01*
X143234954Y-134789500D01*
X141745046Y-134789500D01*
X141741590Y-134789889D01*
X141741579Y-134789890D01*
X141610749Y-134804631D01*
X141610746Y-134804631D01*
X141610745Y-134804632D01*
X141440478Y-134864211D01*
X141440476Y-134864211D01*
X141440476Y-134864212D01*
X141287735Y-134960185D01*
X141160184Y-135087736D01*
X141116995Y-135156472D01*
X141064660Y-135202763D01*
X141012001Y-135214500D01*
X138467999Y-135214500D01*
X138400960Y-135194815D01*
X138363005Y-135156472D01*
X138319815Y-135087736D01*
X138192264Y-134960185D01*
X138045208Y-134867784D01*
X138039522Y-134864211D01*
X137869255Y-134804632D01*
X137869251Y-134804631D01*
X137869250Y-134804631D01*
X137738420Y-134789890D01*
X137738410Y-134789889D01*
X137734954Y-134789500D01*
X136245046Y-134789500D01*
X136241590Y-134789889D01*
X136241579Y-134789890D01*
X136110749Y-134804631D01*
X136110746Y-134804631D01*
X136110745Y-134804632D01*
X135940478Y-134864211D01*
X135940476Y-134864211D01*
X135940476Y-134864212D01*
X135787735Y-134960185D01*
X135660185Y-135087735D01*
X135580534Y-135214500D01*
X135564211Y-135240478D01*
X135508393Y-135399999D01*
X135504631Y-135410749D01*
X135489890Y-135541579D01*
X135489889Y-135541590D01*
X135489500Y-135545046D01*
X135489500Y-136234954D01*
X135489889Y-136238410D01*
X135489890Y-136238420D01*
X135504631Y-136369250D01*
X135504632Y-136369255D01*
X135564211Y-136539522D01*
X135564212Y-136539523D01*
X135660185Y-136692264D01*
X135787735Y-136819814D01*
X135787737Y-136819815D01*
X135787738Y-136819816D01*
X135940478Y-136915789D01*
X136110745Y-136975368D01*
X136245046Y-136990500D01*
X136248530Y-136990500D01*
X137731470Y-136990500D01*
X137734954Y-136990500D01*
X137869255Y-136975368D01*
X138039522Y-136915789D01*
X138192262Y-136819816D01*
X138319816Y-136692262D01*
X138363003Y-136623528D01*
X138415340Y-136577237D01*
X138467999Y-136565500D01*
X141012001Y-136565500D01*
X141079040Y-136585185D01*
X141116995Y-136623528D01*
X141160184Y-136692263D01*
X141287735Y-136819814D01*
X141287737Y-136819815D01*
X141287738Y-136819816D01*
X141440478Y-136915789D01*
X141610745Y-136975368D01*
X141745046Y-136990500D01*
X141748530Y-136990500D01*
X143231470Y-136990500D01*
X143234954Y-136990500D01*
X143369255Y-136975368D01*
X143477751Y-136937402D01*
X143547527Y-136933840D01*
X143608155Y-136968569D01*
X143610855Y-136971473D01*
X143612130Y-136972889D01*
X143765267Y-137084150D01*
X143807371Y-137102896D01*
X143870347Y-137130934D01*
X143923583Y-137176184D01*
X143943905Y-137243033D01*
X143924860Y-137310257D01*
X143912060Y-137327187D01*
X143825956Y-137422814D01*
X143766470Y-137459462D01*
X143696613Y-137458131D01*
X143667835Y-137444835D01*
X143595314Y-137399267D01*
X143539522Y-137364211D01*
X143369255Y-137304632D01*
X143369251Y-137304631D01*
X143369250Y-137304631D01*
X143238420Y-137289890D01*
X143238410Y-137289889D01*
X143234954Y-137289500D01*
X141745046Y-137289500D01*
X141741590Y-137289889D01*
X141741579Y-137289890D01*
X141610749Y-137304631D01*
X141610746Y-137304631D01*
X141610745Y-137304632D01*
X141440478Y-137364211D01*
X141440476Y-137364211D01*
X141440476Y-137364212D01*
X141287735Y-137460185D01*
X141160184Y-137587736D01*
X141116995Y-137656472D01*
X141064660Y-137702763D01*
X141012001Y-137714500D01*
X138467999Y-137714500D01*
X138400960Y-137694815D01*
X138363005Y-137656472D01*
X138319815Y-137587736D01*
X138192264Y-137460185D01*
X138129867Y-137420978D01*
X138039522Y-137364211D01*
X137869255Y-137304632D01*
X137869251Y-137304631D01*
X137869250Y-137304631D01*
X137738420Y-137289890D01*
X137738410Y-137289889D01*
X137734954Y-137289500D01*
X136245046Y-137289500D01*
X136241590Y-137289889D01*
X136241579Y-137289890D01*
X136110749Y-137304631D01*
X136110746Y-137304631D01*
X136110745Y-137304632D01*
X135940478Y-137364211D01*
X135940476Y-137364211D01*
X135940476Y-137364212D01*
X135787735Y-137460185D01*
X135660185Y-137587735D01*
X135564212Y-137740476D01*
X135504631Y-137910749D01*
X135489890Y-138041579D01*
X135489889Y-138041590D01*
X135489500Y-138045046D01*
X135489500Y-138734954D01*
X132080000Y-138734954D01*
X132080000Y-133734954D01*
X135489500Y-133734954D01*
X135489889Y-133738410D01*
X135489890Y-133738420D01*
X135504631Y-133869250D01*
X135504632Y-133869255D01*
X135564211Y-134039522D01*
X135564212Y-134039523D01*
X135660185Y-134192264D01*
X135787735Y-134319814D01*
X135787737Y-134319815D01*
X135787738Y-134319816D01*
X135940478Y-134415789D01*
X136110745Y-134475368D01*
X136245046Y-134490500D01*
X136248530Y-134490500D01*
X137731470Y-134490500D01*
X137734954Y-134490500D01*
X137869255Y-134475368D01*
X138039522Y-134415789D01*
X138192262Y-134319816D01*
X138319816Y-134192262D01*
X138415789Y-134039522D01*
X138475368Y-133869255D01*
X138490500Y-133734954D01*
X140989500Y-133734954D01*
X140989889Y-133738410D01*
X140989890Y-133738420D01*
X141004631Y-133869250D01*
X141004632Y-133869255D01*
X141064211Y-134039522D01*
X141064212Y-134039523D01*
X141160185Y-134192264D01*
X141287735Y-134319814D01*
X141287737Y-134319815D01*
X141287738Y-134319816D01*
X141440478Y-134415789D01*
X141610745Y-134475368D01*
X141745046Y-134490500D01*
X141748530Y-134490500D01*
X143231470Y-134490500D01*
X143234954Y-134490500D01*
X143369255Y-134475368D01*
X143539522Y-134415789D01*
X143692262Y-134319816D01*
X143819816Y-134192262D01*
X143915789Y-134039522D01*
X143975368Y-133869255D01*
X143990500Y-133734954D01*
X143990500Y-133045046D01*
X143975368Y-132910745D01*
X143915789Y-132740478D01*
X143819816Y-132587738D01*
X143819815Y-132587737D01*
X143819814Y-132587735D01*
X143692264Y-132460185D01*
X143629867Y-132420979D01*
X143539522Y-132364211D01*
X143369255Y-132304632D01*
X143369251Y-132304631D01*
X143369250Y-132304631D01*
X143238420Y-132289890D01*
X143238410Y-132289889D01*
X143234954Y-132289500D01*
X141745046Y-132289500D01*
X141741590Y-132289889D01*
X141741579Y-132289890D01*
X141610749Y-132304631D01*
X141610746Y-132304631D01*
X141610745Y-132304632D01*
X141440478Y-132364211D01*
X141440476Y-132364211D01*
X141440476Y-132364212D01*
X141287735Y-132460185D01*
X141160185Y-132587735D01*
X141064212Y-132740476D01*
X141004631Y-132910749D01*
X140989890Y-133041579D01*
X140989889Y-133041590D01*
X140989500Y-133045046D01*
X140989500Y-133734954D01*
X138490500Y-133734954D01*
X138490500Y-133045046D01*
X138475368Y-132910745D01*
X138415789Y-132740478D01*
X138319816Y-132587738D01*
X138319815Y-132587737D01*
X138319814Y-132587735D01*
X138192264Y-132460185D01*
X138129867Y-132420978D01*
X138039522Y-132364211D01*
X137869255Y-132304632D01*
X137869251Y-132304631D01*
X137869250Y-132304631D01*
X137738420Y-132289890D01*
X137738410Y-132289889D01*
X137734954Y-132289500D01*
X136245046Y-132289500D01*
X136241590Y-132289889D01*
X136241579Y-132289890D01*
X136110749Y-132304631D01*
X136110746Y-132304631D01*
X136110745Y-132304632D01*
X135940478Y-132364211D01*
X135940476Y-132364211D01*
X135940476Y-132364212D01*
X135787735Y-132460185D01*
X135660185Y-132587735D01*
X135564212Y-132740476D01*
X135504631Y-132910749D01*
X135489890Y-133041579D01*
X135489889Y-133041590D01*
X135489500Y-133045046D01*
X135489500Y-133734954D01*
X132080000Y-133734954D01*
X132080000Y-124460000D01*
X106937998Y-124460000D01*
X106870959Y-124440315D01*
X106825204Y-124387511D01*
X106815260Y-124318353D01*
X106841170Y-124258538D01*
X111556800Y-118364000D01*
X143874540Y-118364000D01*
X143894326Y-118552257D01*
X143952820Y-118732284D01*
X144047466Y-118896216D01*
X144174129Y-119036889D01*
X144327269Y-119148151D01*
X144500197Y-119225144D01*
X144685352Y-119264500D01*
X144685354Y-119264500D01*
X144874648Y-119264500D01*
X144998084Y-119238262D01*
X145059803Y-119225144D01*
X145232730Y-119148151D01*
X145385871Y-119036888D01*
X145512533Y-118896216D01*
X145607179Y-118732284D01*
X145665674Y-118552256D01*
X145675016Y-118463362D01*
X145701599Y-118398749D01*
X145710647Y-118388652D01*
X149087481Y-115011819D01*
X149148805Y-114978334D01*
X149175163Y-114975500D01*
X152125500Y-114975500D01*
X152192539Y-114995185D01*
X152238294Y-115047989D01*
X152249500Y-115099500D01*
X152249500Y-115656784D01*
X152249735Y-115659479D01*
X152249736Y-115659484D01*
X152264364Y-115826689D01*
X152323261Y-116046497D01*
X152419432Y-116252735D01*
X152549953Y-116439140D01*
X152710859Y-116600046D01*
X152897264Y-116730567D01*
X152897265Y-116730567D01*
X152897266Y-116730568D01*
X153103504Y-116826739D01*
X153323308Y-116885635D01*
X153493216Y-116900500D01*
X153495925Y-116900500D01*
X155204075Y-116900500D01*
X155206784Y-116900500D01*
X155376692Y-116885635D01*
X155596496Y-116826739D01*
X155802734Y-116730568D01*
X155989139Y-116600047D01*
X156150047Y-116439139D01*
X156280568Y-116252734D01*
X156376739Y-116046496D01*
X156435635Y-115826692D01*
X156450500Y-115656784D01*
X156450500Y-112943216D01*
X156435635Y-112773308D01*
X156376739Y-112553504D01*
X156280568Y-112347266D01*
X156150047Y-112160861D01*
X156150046Y-112160859D01*
X155989140Y-111999953D01*
X155802735Y-111869432D01*
X155596497Y-111773261D01*
X155376689Y-111714364D01*
X155209484Y-111699736D01*
X155209479Y-111699735D01*
X155206784Y-111699500D01*
X153493216Y-111699500D01*
X153490521Y-111699735D01*
X153490515Y-111699736D01*
X153323310Y-111714364D01*
X153103502Y-111773261D01*
X152897264Y-111869432D01*
X152710859Y-111999953D01*
X152549953Y-112160859D01*
X152419432Y-112347264D01*
X152323261Y-112553502D01*
X152264364Y-112773310D01*
X152249736Y-112940515D01*
X152249500Y-112943216D01*
X152249500Y-112945925D01*
X152249500Y-113500500D01*
X152229815Y-113567539D01*
X152177011Y-113613294D01*
X152125500Y-113624500D01*
X148868151Y-113624500D01*
X148860665Y-113624274D01*
X148858385Y-113624136D01*
X148802912Y-113620780D01*
X148746011Y-113631207D01*
X148738612Y-113632333D01*
X148681157Y-113639310D01*
X148672383Y-113642638D01*
X148650776Y-113648661D01*
X148641562Y-113650349D01*
X148588782Y-113674102D01*
X148581868Y-113676965D01*
X148527775Y-113697481D01*
X148520058Y-113702807D01*
X148500524Y-113713824D01*
X148491973Y-113717673D01*
X148446417Y-113753363D01*
X148440387Y-113757800D01*
X148392770Y-113790668D01*
X148354406Y-113833972D01*
X148349273Y-113839424D01*
X144761518Y-117427181D01*
X144700195Y-117460666D01*
X144697140Y-117460994D01*
X144500197Y-117502855D01*
X144327269Y-117579848D01*
X144174129Y-117691110D01*
X144047466Y-117831783D01*
X143952820Y-117995715D01*
X143894326Y-118175742D01*
X143874540Y-118364000D01*
X111556800Y-118364000D01*
X117042111Y-111507362D01*
X121812499Y-111507362D01*
X121812500Y-114975500D01*
X121812500Y-116368831D01*
X121812500Y-117332000D01*
X121812854Y-117335294D01*
X121812855Y-117335309D01*
X121822733Y-117427181D01*
X121824053Y-117439456D01*
X121824757Y-117442693D01*
X121824759Y-117442704D01*
X121834553Y-117487722D01*
X121835259Y-117490967D01*
X121836305Y-117494110D01*
X121836309Y-117494124D01*
X121869385Y-117593503D01*
X121947173Y-117714541D01*
X121947175Y-117714543D01*
X121992930Y-117767347D01*
X122101664Y-117861567D01*
X122232541Y-117921338D01*
X122299580Y-117941023D01*
X122299584Y-117941024D01*
X122442000Y-117961500D01*
X142264821Y-117961500D01*
X142266510Y-117961500D01*
X142320984Y-117958556D01*
X142347554Y-117955676D01*
X142401399Y-117946878D01*
X142536119Y-117896361D01*
X142597384Y-117862768D01*
X142712414Y-117776342D01*
X146625947Y-113849063D01*
X146661619Y-113809263D01*
X146678043Y-113788864D01*
X146709326Y-113745501D01*
X146769206Y-113614673D01*
X146788947Y-113547650D01*
X146809543Y-113405255D01*
X146821714Y-99059999D01*
X147838659Y-99059999D01*
X147857976Y-99256133D01*
X147915185Y-99444726D01*
X147915186Y-99444727D01*
X148008090Y-99618538D01*
X148133117Y-99770883D01*
X148285462Y-99895910D01*
X148459273Y-99988814D01*
X148647868Y-100046024D01*
X148844000Y-100065341D01*
X149040132Y-100046024D01*
X149228727Y-99988814D01*
X149402538Y-99895910D01*
X149554883Y-99770883D01*
X149679910Y-99618538D01*
X149772814Y-99444727D01*
X149830024Y-99256132D01*
X149849341Y-99060000D01*
X149830024Y-98863868D01*
X149772814Y-98675273D01*
X149674153Y-98490690D01*
X149675828Y-98489794D01*
X149654406Y-98439362D01*
X149666193Y-98370494D01*
X149677970Y-98352168D01*
X149710359Y-98291571D01*
X149772814Y-98174727D01*
X149830024Y-97986132D01*
X149849341Y-97790000D01*
X149830024Y-97593868D01*
X149772814Y-97405273D01*
X149679910Y-97231462D01*
X149674153Y-97220691D01*
X149675827Y-97219796D01*
X149654405Y-97169354D01*
X149666196Y-97100487D01*
X149677972Y-97082164D01*
X149697562Y-97045512D01*
X149772814Y-96904727D01*
X149830024Y-96716132D01*
X149849341Y-96520000D01*
X149830024Y-96323868D01*
X149772814Y-96135273D01*
X149771677Y-96133146D01*
X149770603Y-96127988D01*
X149769268Y-96123586D01*
X149769661Y-96123466D01*
X149757435Y-96064746D01*
X149781768Y-96000382D01*
X149787796Y-95992331D01*
X149838091Y-95857483D01*
X149844500Y-95797873D01*
X149844499Y-94702128D01*
X149838091Y-94642517D01*
X149787796Y-94507669D01*
X149701546Y-94392454D01*
X149586331Y-94306204D01*
X149451483Y-94255909D01*
X149391873Y-94249500D01*
X149388550Y-94249500D01*
X148299439Y-94249500D01*
X148299420Y-94249500D01*
X148296128Y-94249501D01*
X148292848Y-94249853D01*
X148292840Y-94249854D01*
X148236515Y-94255909D01*
X148101669Y-94306204D01*
X147986454Y-94392454D01*
X147900204Y-94507668D01*
X147849910Y-94642515D01*
X147849909Y-94642517D01*
X147843500Y-94702127D01*
X147843500Y-94705448D01*
X147843500Y-94705449D01*
X147843500Y-95794560D01*
X147843500Y-95794578D01*
X147843501Y-95797872D01*
X147843853Y-95801152D01*
X147843854Y-95801159D01*
X147849909Y-95857484D01*
X147900204Y-95992332D01*
X147906232Y-96000384D01*
X147930648Y-96065849D01*
X147918381Y-96123481D01*
X147918731Y-96123587D01*
X147917484Y-96127696D01*
X147916326Y-96133139D01*
X147915186Y-96135270D01*
X147857976Y-96323866D01*
X147838659Y-96520000D01*
X147857976Y-96716133D01*
X147915185Y-96904726D01*
X148013847Y-97089309D01*
X148012171Y-97090204D01*
X148033594Y-97140637D01*
X148021807Y-97209505D01*
X148010026Y-97227839D01*
X147915185Y-97405273D01*
X147857976Y-97593866D01*
X147838659Y-97790000D01*
X147857976Y-97986133D01*
X147915185Y-98174726D01*
X148013847Y-98359309D01*
X148012172Y-98360203D01*
X148033595Y-98410646D01*
X148021804Y-98479513D01*
X148010025Y-98497840D01*
X147915185Y-98675273D01*
X147857976Y-98863866D01*
X147838659Y-99059999D01*
X146821714Y-99059999D01*
X146823394Y-97080532D01*
X146811887Y-96972861D01*
X146800682Y-96921247D01*
X146766508Y-96818496D01*
X146688720Y-96697457D01*
X146642965Y-96644653D01*
X146534231Y-96550433D01*
X146534230Y-96550432D01*
X146403355Y-96490662D01*
X146338008Y-96471474D01*
X146338006Y-96471473D01*
X146336315Y-96470977D01*
X146336311Y-96470976D01*
X146333185Y-96470526D01*
X146333172Y-96470524D01*
X146193895Y-96450500D01*
X144010757Y-96450500D01*
X143943718Y-96430815D01*
X143897963Y-96378011D01*
X143888019Y-96308853D01*
X143917044Y-96245297D01*
X143923076Y-96238819D01*
X144225750Y-95936145D01*
X145387955Y-94773938D01*
X145449276Y-94740455D01*
X145518967Y-94745439D01*
X145556833Y-94767906D01*
X145664922Y-94861567D01*
X145795799Y-94921338D01*
X145862838Y-94941023D01*
X145862842Y-94941024D01*
X146005258Y-94961500D01*
X146190676Y-94961500D01*
X146194000Y-94961500D01*
X146301456Y-94949947D01*
X146352967Y-94938741D01*
X146382165Y-94929022D01*
X146455503Y-94904614D01*
X146576541Y-94826826D01*
X146576543Y-94826825D01*
X146629347Y-94781070D01*
X146723567Y-94672336D01*
X146783338Y-94541459D01*
X146803023Y-94474420D01*
X146803024Y-94474416D01*
X146823500Y-94332000D01*
X146823500Y-94143257D01*
X146823178Y-94125211D01*
X146823176Y-94125092D01*
X146822854Y-94116140D01*
X146821898Y-94098359D01*
X146791313Y-93957759D01*
X146767821Y-93894774D01*
X146766896Y-93892293D01*
X146766894Y-93892288D01*
X146697938Y-93766008D01*
X146697936Y-93766006D01*
X146696925Y-93764154D01*
X146682072Y-93695881D01*
X146706488Y-93630416D01*
X146762420Y-93588544D01*
X146779961Y-93583438D01*
X146837803Y-93571144D01*
X146837804Y-93571143D01*
X146837806Y-93571143D01*
X147010730Y-93494151D01*
X147163870Y-93382889D01*
X147290533Y-93242216D01*
X147385179Y-93078284D01*
X147443674Y-92898256D01*
X147463460Y-92710000D01*
X147443674Y-92521744D01*
X147385179Y-92341716D01*
X147385179Y-92341715D01*
X147290533Y-92177783D01*
X147163870Y-92037110D01*
X147010732Y-91925849D01*
X146896729Y-91875092D01*
X146843491Y-91829841D01*
X146823170Y-91762992D01*
X146823500Y-91758049D01*
X146823500Y-90385500D01*
X146843185Y-90318461D01*
X146895989Y-90272706D01*
X146947500Y-90261500D01*
X150190676Y-90261500D01*
X150194000Y-90261500D01*
X150301456Y-90249947D01*
X150352967Y-90238741D01*
X150382165Y-90229022D01*
X150455503Y-90204614D01*
X150576541Y-90126826D01*
X150576543Y-90126825D01*
X150629347Y-90081070D01*
X150723567Y-89972336D01*
X150783338Y-89841459D01*
X150803023Y-89774420D01*
X150803024Y-89774416D01*
X150823500Y-89632000D01*
X150823500Y-87041799D01*
X150806271Y-86910950D01*
X150793762Y-86864272D01*
X150790443Y-86851888D01*
X150788036Y-86840952D01*
X150787607Y-86838470D01*
X150784278Y-86828224D01*
X150782557Y-86822419D01*
X150781803Y-86820610D01*
X150745529Y-86708970D01*
X150740141Y-86683620D01*
X150734186Y-86626958D01*
X150734186Y-86601039D01*
X150740141Y-86544379D01*
X150745528Y-86519032D01*
X150787607Y-86389531D01*
X150796873Y-86352117D01*
X150806273Y-86317040D01*
X150823500Y-86186199D01*
X150823500Y-85080000D01*
X150811947Y-84972544D01*
X150800741Y-84921033D01*
X150799690Y-84917875D01*
X150766614Y-84818496D01*
X150688826Y-84697458D01*
X150678183Y-84685176D01*
X150643070Y-84644653D01*
X150534336Y-84550433D01*
X150534335Y-84550432D01*
X150403460Y-84490662D01*
X150338113Y-84471474D01*
X150338111Y-84471473D01*
X150336420Y-84470977D01*
X150336416Y-84470976D01*
X150333290Y-84470526D01*
X150333277Y-84470524D01*
X150194000Y-84450500D01*
X149993471Y-84450500D01*
X149989802Y-84450938D01*
X149989796Y-84450939D01*
X149877956Y-84464310D01*
X149877945Y-84464311D01*
X149874298Y-84464748D01*
X149870722Y-84465615D01*
X149870719Y-84465616D01*
X149821067Y-84477661D01*
X149821061Y-84477662D01*
X149817478Y-84478532D01*
X149814036Y-84479815D01*
X149814019Y-84479821D01*
X149705012Y-84520479D01*
X149587816Y-84603935D01*
X149537248Y-84652151D01*
X149448308Y-84765249D01*
X149425837Y-84804167D01*
X149410603Y-84825134D01*
X149372485Y-84867469D01*
X149353219Y-84884817D01*
X149307126Y-84918305D01*
X149284677Y-84931265D01*
X149232639Y-84954434D01*
X149207986Y-84962445D01*
X149170790Y-84970352D01*
X149152263Y-84974290D01*
X149126482Y-84977000D01*
X149069516Y-84977000D01*
X149043737Y-84974290D01*
X149005635Y-84966191D01*
X148988010Y-84962445D01*
X148963357Y-84954434D01*
X148911315Y-84931263D01*
X148888867Y-84918303D01*
X148884245Y-84914945D01*
X148842778Y-84884817D01*
X148823519Y-84867476D01*
X148785394Y-84825134D01*
X148770160Y-84804167D01*
X148747691Y-84765249D01*
X148675760Y-84669162D01*
X148635412Y-84626847D01*
X148621063Y-84614999D01*
X148542866Y-84550433D01*
X148411989Y-84490662D01*
X148346642Y-84471474D01*
X148346640Y-84471473D01*
X148344949Y-84470977D01*
X148344945Y-84470976D01*
X148341819Y-84470526D01*
X148341806Y-84470524D01*
X148202529Y-84450500D01*
X146947500Y-84450500D01*
X146880461Y-84430815D01*
X146834706Y-84378011D01*
X146823500Y-84326500D01*
X146823500Y-84003746D01*
X146823500Y-84003745D01*
X146823500Y-84002218D01*
X146821016Y-83952168D01*
X146818585Y-83927736D01*
X146818358Y-83926227D01*
X146818356Y-83926204D01*
X146811159Y-83878186D01*
X146804402Y-83859152D01*
X146800525Y-83789390D01*
X146802281Y-83782728D01*
X146802294Y-83782681D01*
X146803023Y-83780201D01*
X146803024Y-83780197D01*
X146823500Y-83637781D01*
X146823500Y-78080000D01*
X146811947Y-77972544D01*
X146800741Y-77921033D01*
X146799690Y-77917875D01*
X146766614Y-77818496D01*
X146688826Y-77697458D01*
X146684004Y-77691894D01*
X146643070Y-77644653D01*
X146534336Y-77550433D01*
X146534335Y-77550432D01*
X146403460Y-77490662D01*
X146338113Y-77471474D01*
X146338111Y-77471473D01*
X146336420Y-77470977D01*
X146336416Y-77470976D01*
X146333290Y-77470526D01*
X146333277Y-77470524D01*
X146194000Y-77450500D01*
X132942000Y-77450500D01*
X132938706Y-77450854D01*
X132938690Y-77450855D01*
X132837854Y-77461697D01*
X132837851Y-77461697D01*
X132834544Y-77462053D01*
X132831309Y-77462756D01*
X132831295Y-77462759D01*
X132786277Y-77472553D01*
X132786272Y-77472554D01*
X132783033Y-77473259D01*
X132779893Y-77474303D01*
X132779875Y-77474309D01*
X132680496Y-77507385D01*
X132559458Y-77585173D01*
X132506652Y-77630931D01*
X132412432Y-77739664D01*
X132352662Y-77870539D01*
X132336883Y-77924277D01*
X132332977Y-77937580D01*
X132332976Y-77937584D01*
X132332527Y-77940706D01*
X132332524Y-77940722D01*
X132312500Y-78080000D01*
X132312500Y-84426500D01*
X132292815Y-84493539D01*
X132240011Y-84539294D01*
X132188500Y-84550500D01*
X129442000Y-84550500D01*
X129438706Y-84550854D01*
X129438690Y-84550855D01*
X129337854Y-84561697D01*
X129337851Y-84561697D01*
X129334544Y-84562053D01*
X129331309Y-84562756D01*
X129331295Y-84562759D01*
X129286277Y-84572553D01*
X129286272Y-84572554D01*
X129283033Y-84573259D01*
X129279899Y-84574301D01*
X129279881Y-84574307D01*
X129180495Y-84607387D01*
X129168652Y-84614999D01*
X129059455Y-84685176D01*
X129006655Y-84730928D01*
X128912432Y-84839664D01*
X128852662Y-84970539D01*
X128850765Y-84977000D01*
X128832977Y-85037580D01*
X128832976Y-85037584D01*
X128832527Y-85040706D01*
X128832524Y-85040722D01*
X128812499Y-85179999D01*
X128812500Y-85180000D01*
X128812500Y-95832000D01*
X128812854Y-95835294D01*
X128812855Y-95835309D01*
X128823697Y-95936145D01*
X128824053Y-95939456D01*
X128824757Y-95942693D01*
X128824759Y-95942704D01*
X128834553Y-95987722D01*
X128835259Y-95990967D01*
X128836305Y-95994110D01*
X128836309Y-95994124D01*
X128869385Y-96093503D01*
X128947173Y-96214541D01*
X128947175Y-96214543D01*
X128992930Y-96267347D01*
X129101664Y-96361567D01*
X129232541Y-96421338D01*
X129299580Y-96441023D01*
X129299584Y-96441024D01*
X129442000Y-96461500D01*
X134188500Y-96461500D01*
X134255539Y-96481185D01*
X134301294Y-96533989D01*
X134312500Y-96585500D01*
X134312500Y-109326500D01*
X134292815Y-109393539D01*
X134240011Y-109439294D01*
X134188500Y-109450500D01*
X123869362Y-109450500D01*
X123867726Y-109450587D01*
X123867714Y-109450588D01*
X123816995Y-109453307D01*
X123816983Y-109453307D01*
X123815322Y-109453397D01*
X123813675Y-109453574D01*
X123813651Y-109453576D01*
X123790643Y-109456050D01*
X123790625Y-109456052D01*
X123788964Y-109456231D01*
X123787329Y-109456495D01*
X123787321Y-109456497D01*
X123735548Y-109464886D01*
X123600746Y-109515166D01*
X123539419Y-109548653D01*
X123424236Y-109634879D01*
X121998061Y-111061054D01*
X121998042Y-111061073D01*
X121996877Y-111062239D01*
X121995786Y-111063452D01*
X121995759Y-111063482D01*
X121961817Y-111101268D01*
X121961787Y-111101302D01*
X121960712Y-111102500D01*
X121959686Y-111103772D01*
X121959670Y-111103792D01*
X121945121Y-111121846D01*
X121945097Y-111121877D01*
X121944078Y-111123142D01*
X121943129Y-111124457D01*
X121943113Y-111124479D01*
X121912431Y-111167028D01*
X121852662Y-111297901D01*
X121833474Y-111363248D01*
X121832977Y-111364942D01*
X121832976Y-111364946D01*
X121832527Y-111368068D01*
X121832524Y-111368084D01*
X121812499Y-111507362D01*
X117042111Y-111507362D01*
X127000000Y-99060000D01*
X117074625Y-99060000D01*
X117007586Y-99040315D01*
X116961831Y-98987511D01*
X116951887Y-98918353D01*
X116972173Y-98866146D01*
X117228777Y-98489794D01*
X138926834Y-66665976D01*
X138980861Y-66621678D01*
X139050264Y-66613621D01*
X139081686Y-66623450D01*
X139270670Y-66711575D01*
X139482023Y-66768207D01*
X139700000Y-66787277D01*
X139917977Y-66768207D01*
X140129330Y-66711575D01*
X140318313Y-66623450D01*
X140387388Y-66612959D01*
X140451172Y-66641478D01*
G37*
%TD.AperFunction*%
%TD*%
M02*
