%TF.GenerationSoftware,KiCad,Pcbnew,7.0.2-0*%
%TF.CreationDate,2024-07-21T16:06:54-04:00*%
%TF.ProjectId,Tree Ornanment 2024,54726565-204f-4726-9e61-6e6d656e7420,rev?*%
%TF.SameCoordinates,Original*%
%TF.FileFunction,Legend,Bot*%
%TF.FilePolarity,Positive*%
%FSLAX46Y46*%
G04 Gerber Fmt 4.6, Leading zero omitted, Abs format (unit mm)*
G04 Created by KiCad (PCBNEW 7.0.2-0) date 2024-07-21 16:06:54*
%MOMM*%
%LPD*%
G01*
G04 APERTURE LIST*
%ADD10C,0.100000*%
%ADD11C,0.150000*%
%ADD12C,0.400000*%
%ADD13C,0.200000*%
G04 APERTURE END LIST*
D10*
X147081904Y-141321619D02*
X147081904Y-140321619D01*
X147081904Y-140321619D02*
X146843809Y-140321619D01*
X146843809Y-140321619D02*
X146700952Y-140369238D01*
X146700952Y-140369238D02*
X146605714Y-140464476D01*
X146605714Y-140464476D02*
X146558095Y-140559714D01*
X146558095Y-140559714D02*
X146510476Y-140750190D01*
X146510476Y-140750190D02*
X146510476Y-140893047D01*
X146510476Y-140893047D02*
X146558095Y-141083523D01*
X146558095Y-141083523D02*
X146605714Y-141178761D01*
X146605714Y-141178761D02*
X146700952Y-141274000D01*
X146700952Y-141274000D02*
X146843809Y-141321619D01*
X146843809Y-141321619D02*
X147081904Y-141321619D01*
X145700952Y-141274000D02*
X145796190Y-141321619D01*
X145796190Y-141321619D02*
X145986666Y-141321619D01*
X145986666Y-141321619D02*
X146081904Y-141274000D01*
X146081904Y-141274000D02*
X146129523Y-141178761D01*
X146129523Y-141178761D02*
X146129523Y-140797809D01*
X146129523Y-140797809D02*
X146081904Y-140702571D01*
X146081904Y-140702571D02*
X145986666Y-140654952D01*
X145986666Y-140654952D02*
X145796190Y-140654952D01*
X145796190Y-140654952D02*
X145700952Y-140702571D01*
X145700952Y-140702571D02*
X145653333Y-140797809D01*
X145653333Y-140797809D02*
X145653333Y-140893047D01*
X145653333Y-140893047D02*
X146129523Y-140988285D01*
X145319999Y-140654952D02*
X145081904Y-141321619D01*
X145081904Y-141321619D02*
X144843809Y-140654952D01*
X144462856Y-141321619D02*
X144462856Y-140654952D01*
X144462856Y-140321619D02*
X144510475Y-140369238D01*
X144510475Y-140369238D02*
X144462856Y-140416857D01*
X144462856Y-140416857D02*
X144415237Y-140369238D01*
X144415237Y-140369238D02*
X144462856Y-140321619D01*
X144462856Y-140321619D02*
X144462856Y-140416857D01*
X143558095Y-141274000D02*
X143653333Y-141321619D01*
X143653333Y-141321619D02*
X143843809Y-141321619D01*
X143843809Y-141321619D02*
X143939047Y-141274000D01*
X143939047Y-141274000D02*
X143986666Y-141226380D01*
X143986666Y-141226380D02*
X144034285Y-141131142D01*
X144034285Y-141131142D02*
X144034285Y-140845428D01*
X144034285Y-140845428D02*
X143986666Y-140750190D01*
X143986666Y-140750190D02*
X143939047Y-140702571D01*
X143939047Y-140702571D02*
X143843809Y-140654952D01*
X143843809Y-140654952D02*
X143653333Y-140654952D01*
X143653333Y-140654952D02*
X143558095Y-140702571D01*
X142748571Y-141274000D02*
X142843809Y-141321619D01*
X142843809Y-141321619D02*
X143034285Y-141321619D01*
X143034285Y-141321619D02*
X143129523Y-141274000D01*
X143129523Y-141274000D02*
X143177142Y-141178761D01*
X143177142Y-141178761D02*
X143177142Y-140797809D01*
X143177142Y-140797809D02*
X143129523Y-140702571D01*
X143129523Y-140702571D02*
X143034285Y-140654952D01*
X143034285Y-140654952D02*
X142843809Y-140654952D01*
X142843809Y-140654952D02*
X142748571Y-140702571D01*
X142748571Y-140702571D02*
X142700952Y-140797809D01*
X142700952Y-140797809D02*
X142700952Y-140893047D01*
X142700952Y-140893047D02*
X143177142Y-140988285D01*
X141510475Y-141321619D02*
X141510475Y-140654952D01*
X141510475Y-140321619D02*
X141558094Y-140369238D01*
X141558094Y-140369238D02*
X141510475Y-140416857D01*
X141510475Y-140416857D02*
X141462856Y-140369238D01*
X141462856Y-140369238D02*
X141510475Y-140321619D01*
X141510475Y-140321619D02*
X141510475Y-140416857D01*
X141034285Y-140654952D02*
X141034285Y-141321619D01*
X141034285Y-140750190D02*
X140986666Y-140702571D01*
X140986666Y-140702571D02*
X140891428Y-140654952D01*
X140891428Y-140654952D02*
X140748571Y-140654952D01*
X140748571Y-140654952D02*
X140653333Y-140702571D01*
X140653333Y-140702571D02*
X140605714Y-140797809D01*
X140605714Y-140797809D02*
X140605714Y-141321619D01*
X140272380Y-140654952D02*
X139891428Y-140654952D01*
X140129523Y-141321619D02*
X140129523Y-140464476D01*
X140129523Y-140464476D02*
X140081904Y-140369238D01*
X140081904Y-140369238D02*
X139986666Y-140321619D01*
X139986666Y-140321619D02*
X139891428Y-140321619D01*
X139415237Y-141321619D02*
X139510475Y-141274000D01*
X139510475Y-141274000D02*
X139558094Y-141226380D01*
X139558094Y-141226380D02*
X139605713Y-141131142D01*
X139605713Y-141131142D02*
X139605713Y-140845428D01*
X139605713Y-140845428D02*
X139558094Y-140750190D01*
X139558094Y-140750190D02*
X139510475Y-140702571D01*
X139510475Y-140702571D02*
X139415237Y-140654952D01*
X139415237Y-140654952D02*
X139272380Y-140654952D01*
X139272380Y-140654952D02*
X139177142Y-140702571D01*
X139177142Y-140702571D02*
X139129523Y-140750190D01*
X139129523Y-140750190D02*
X139081904Y-140845428D01*
X139081904Y-140845428D02*
X139081904Y-141131142D01*
X139081904Y-141131142D02*
X139129523Y-141226380D01*
X139129523Y-141226380D02*
X139177142Y-141274000D01*
X139177142Y-141274000D02*
X139272380Y-141321619D01*
X139272380Y-141321619D02*
X139415237Y-141321619D01*
X146891428Y-141941619D02*
X146700952Y-141941619D01*
X146700952Y-141941619D02*
X146605714Y-141989238D01*
X146605714Y-141989238D02*
X146510476Y-142084476D01*
X146510476Y-142084476D02*
X146462857Y-142274952D01*
X146462857Y-142274952D02*
X146462857Y-142608285D01*
X146462857Y-142608285D02*
X146510476Y-142798761D01*
X146510476Y-142798761D02*
X146605714Y-142894000D01*
X146605714Y-142894000D02*
X146700952Y-142941619D01*
X146700952Y-142941619D02*
X146891428Y-142941619D01*
X146891428Y-142941619D02*
X146986666Y-142894000D01*
X146986666Y-142894000D02*
X147081904Y-142798761D01*
X147081904Y-142798761D02*
X147129523Y-142608285D01*
X147129523Y-142608285D02*
X147129523Y-142274952D01*
X147129523Y-142274952D02*
X147081904Y-142084476D01*
X147081904Y-142084476D02*
X146986666Y-141989238D01*
X146986666Y-141989238D02*
X146891428Y-141941619D01*
X146034285Y-142274952D02*
X146034285Y-142941619D01*
X146034285Y-142370190D02*
X145986666Y-142322571D01*
X145986666Y-142322571D02*
X145891428Y-142274952D01*
X145891428Y-142274952D02*
X145748571Y-142274952D01*
X145748571Y-142274952D02*
X145653333Y-142322571D01*
X145653333Y-142322571D02*
X145605714Y-142417809D01*
X145605714Y-142417809D02*
X145605714Y-142941619D01*
X145129523Y-142846380D02*
X145081904Y-142894000D01*
X145081904Y-142894000D02*
X145129523Y-142941619D01*
X145129523Y-142941619D02*
X145177142Y-142894000D01*
X145177142Y-142894000D02*
X145129523Y-142846380D01*
X145129523Y-142846380D02*
X145129523Y-142941619D01*
X145129523Y-142322571D02*
X145081904Y-142370190D01*
X145081904Y-142370190D02*
X145129523Y-142417809D01*
X145129523Y-142417809D02*
X145177142Y-142370190D01*
X145177142Y-142370190D02*
X145129523Y-142322571D01*
X145129523Y-142322571D02*
X145129523Y-142417809D01*
X143462857Y-142274952D02*
X143462857Y-142941619D01*
X143700952Y-141894000D02*
X143939047Y-142608285D01*
X143939047Y-142608285D02*
X143320000Y-142608285D01*
X142177142Y-142941619D02*
X142177142Y-141941619D01*
X141748571Y-142941619D02*
X141748571Y-142417809D01*
X141748571Y-142417809D02*
X141796190Y-142322571D01*
X141796190Y-142322571D02*
X141891428Y-142274952D01*
X141891428Y-142274952D02*
X142034285Y-142274952D01*
X142034285Y-142274952D02*
X142129523Y-142322571D01*
X142129523Y-142322571D02*
X142177142Y-142370190D01*
X141129523Y-142941619D02*
X141224761Y-142894000D01*
X141224761Y-142894000D02*
X141272380Y-142846380D01*
X141272380Y-142846380D02*
X141319999Y-142751142D01*
X141319999Y-142751142D02*
X141319999Y-142465428D01*
X141319999Y-142465428D02*
X141272380Y-142370190D01*
X141272380Y-142370190D02*
X141224761Y-142322571D01*
X141224761Y-142322571D02*
X141129523Y-142274952D01*
X141129523Y-142274952D02*
X140986666Y-142274952D01*
X140986666Y-142274952D02*
X140891428Y-142322571D01*
X140891428Y-142322571D02*
X140843809Y-142370190D01*
X140843809Y-142370190D02*
X140796190Y-142465428D01*
X140796190Y-142465428D02*
X140796190Y-142751142D01*
X140796190Y-142751142D02*
X140843809Y-142846380D01*
X140843809Y-142846380D02*
X140891428Y-142894000D01*
X140891428Y-142894000D02*
X140986666Y-142941619D01*
X140986666Y-142941619D02*
X141129523Y-142941619D01*
X139939047Y-142274952D02*
X139939047Y-142941619D01*
X140367618Y-142274952D02*
X140367618Y-142798761D01*
X140367618Y-142798761D02*
X140319999Y-142894000D01*
X140319999Y-142894000D02*
X140224761Y-142941619D01*
X140224761Y-142941619D02*
X140081904Y-142941619D01*
X140081904Y-142941619D02*
X139986666Y-142894000D01*
X139986666Y-142894000D02*
X139939047Y-142846380D01*
X139462856Y-142941619D02*
X139462856Y-142274952D01*
X139462856Y-142465428D02*
X139415237Y-142370190D01*
X139415237Y-142370190D02*
X139367618Y-142322571D01*
X139367618Y-142322571D02*
X139272380Y-142274952D01*
X139272380Y-142274952D02*
X139177142Y-142274952D01*
X138891427Y-142894000D02*
X138796189Y-142941619D01*
X138796189Y-142941619D02*
X138605713Y-142941619D01*
X138605713Y-142941619D02*
X138510475Y-142894000D01*
X138510475Y-142894000D02*
X138462856Y-142798761D01*
X138462856Y-142798761D02*
X138462856Y-142751142D01*
X138462856Y-142751142D02*
X138510475Y-142655904D01*
X138510475Y-142655904D02*
X138605713Y-142608285D01*
X138605713Y-142608285D02*
X138748570Y-142608285D01*
X138748570Y-142608285D02*
X138843808Y-142560666D01*
X138843808Y-142560666D02*
X138891427Y-142465428D01*
X138891427Y-142465428D02*
X138891427Y-142417809D01*
X138891427Y-142417809D02*
X138843808Y-142322571D01*
X138843808Y-142322571D02*
X138748570Y-142274952D01*
X138748570Y-142274952D02*
X138605713Y-142274952D01*
X138605713Y-142274952D02*
X138510475Y-142322571D01*
X146891428Y-143561619D02*
X146700952Y-143561619D01*
X146700952Y-143561619D02*
X146605714Y-143609238D01*
X146605714Y-143609238D02*
X146510476Y-143704476D01*
X146510476Y-143704476D02*
X146462857Y-143894952D01*
X146462857Y-143894952D02*
X146462857Y-144228285D01*
X146462857Y-144228285D02*
X146510476Y-144418761D01*
X146510476Y-144418761D02*
X146605714Y-144514000D01*
X146605714Y-144514000D02*
X146700952Y-144561619D01*
X146700952Y-144561619D02*
X146891428Y-144561619D01*
X146891428Y-144561619D02*
X146986666Y-144514000D01*
X146986666Y-144514000D02*
X147081904Y-144418761D01*
X147081904Y-144418761D02*
X147129523Y-144228285D01*
X147129523Y-144228285D02*
X147129523Y-143894952D01*
X147129523Y-143894952D02*
X147081904Y-143704476D01*
X147081904Y-143704476D02*
X146986666Y-143609238D01*
X146986666Y-143609238D02*
X146891428Y-143561619D01*
X146177142Y-143894952D02*
X145796190Y-143894952D01*
X146034285Y-144561619D02*
X146034285Y-143704476D01*
X146034285Y-143704476D02*
X145986666Y-143609238D01*
X145986666Y-143609238D02*
X145891428Y-143561619D01*
X145891428Y-143561619D02*
X145796190Y-143561619D01*
X145605713Y-143894952D02*
X145224761Y-143894952D01*
X145462856Y-144561619D02*
X145462856Y-143704476D01*
X145462856Y-143704476D02*
X145415237Y-143609238D01*
X145415237Y-143609238D02*
X145319999Y-143561619D01*
X145319999Y-143561619D02*
X145224761Y-143561619D01*
X144891427Y-144466380D02*
X144843808Y-144514000D01*
X144843808Y-144514000D02*
X144891427Y-144561619D01*
X144891427Y-144561619D02*
X144939046Y-144514000D01*
X144939046Y-144514000D02*
X144891427Y-144466380D01*
X144891427Y-144466380D02*
X144891427Y-144561619D01*
X144891427Y-143942571D02*
X144843808Y-143990190D01*
X144843808Y-143990190D02*
X144891427Y-144037809D01*
X144891427Y-144037809D02*
X144939046Y-143990190D01*
X144939046Y-143990190D02*
X144891427Y-143942571D01*
X144891427Y-143942571D02*
X144891427Y-144037809D01*
X143700951Y-143656857D02*
X143653332Y-143609238D01*
X143653332Y-143609238D02*
X143558094Y-143561619D01*
X143558094Y-143561619D02*
X143319999Y-143561619D01*
X143319999Y-143561619D02*
X143224761Y-143609238D01*
X143224761Y-143609238D02*
X143177142Y-143656857D01*
X143177142Y-143656857D02*
X143129523Y-143752095D01*
X143129523Y-143752095D02*
X143129523Y-143847333D01*
X143129523Y-143847333D02*
X143177142Y-143990190D01*
X143177142Y-143990190D02*
X143748570Y-144561619D01*
X143748570Y-144561619D02*
X143129523Y-144561619D01*
X142510475Y-143561619D02*
X142415237Y-143561619D01*
X142415237Y-143561619D02*
X142319999Y-143609238D01*
X142319999Y-143609238D02*
X142272380Y-143656857D01*
X142272380Y-143656857D02*
X142224761Y-143752095D01*
X142224761Y-143752095D02*
X142177142Y-143942571D01*
X142177142Y-143942571D02*
X142177142Y-144180666D01*
X142177142Y-144180666D02*
X142224761Y-144371142D01*
X142224761Y-144371142D02*
X142272380Y-144466380D01*
X142272380Y-144466380D02*
X142319999Y-144514000D01*
X142319999Y-144514000D02*
X142415237Y-144561619D01*
X142415237Y-144561619D02*
X142510475Y-144561619D01*
X142510475Y-144561619D02*
X142605713Y-144514000D01*
X142605713Y-144514000D02*
X142653332Y-144466380D01*
X142653332Y-144466380D02*
X142700951Y-144371142D01*
X142700951Y-144371142D02*
X142748570Y-144180666D01*
X142748570Y-144180666D02*
X142748570Y-143942571D01*
X142748570Y-143942571D02*
X142700951Y-143752095D01*
X142700951Y-143752095D02*
X142653332Y-143656857D01*
X142653332Y-143656857D02*
X142605713Y-143609238D01*
X142605713Y-143609238D02*
X142510475Y-143561619D01*
X140986665Y-144561619D02*
X140986665Y-143561619D01*
X140558094Y-144561619D02*
X140558094Y-144037809D01*
X140558094Y-144037809D02*
X140605713Y-143942571D01*
X140605713Y-143942571D02*
X140700951Y-143894952D01*
X140700951Y-143894952D02*
X140843808Y-143894952D01*
X140843808Y-143894952D02*
X140939046Y-143942571D01*
X140939046Y-143942571D02*
X140986665Y-143990190D01*
X139939046Y-144561619D02*
X140034284Y-144514000D01*
X140034284Y-144514000D02*
X140081903Y-144466380D01*
X140081903Y-144466380D02*
X140129522Y-144371142D01*
X140129522Y-144371142D02*
X140129522Y-144085428D01*
X140129522Y-144085428D02*
X140081903Y-143990190D01*
X140081903Y-143990190D02*
X140034284Y-143942571D01*
X140034284Y-143942571D02*
X139939046Y-143894952D01*
X139939046Y-143894952D02*
X139796189Y-143894952D01*
X139796189Y-143894952D02*
X139700951Y-143942571D01*
X139700951Y-143942571D02*
X139653332Y-143990190D01*
X139653332Y-143990190D02*
X139605713Y-144085428D01*
X139605713Y-144085428D02*
X139605713Y-144371142D01*
X139605713Y-144371142D02*
X139653332Y-144466380D01*
X139653332Y-144466380D02*
X139700951Y-144514000D01*
X139700951Y-144514000D02*
X139796189Y-144561619D01*
X139796189Y-144561619D02*
X139939046Y-144561619D01*
X138748570Y-143894952D02*
X138748570Y-144561619D01*
X139177141Y-143894952D02*
X139177141Y-144418761D01*
X139177141Y-144418761D02*
X139129522Y-144514000D01*
X139129522Y-144514000D02*
X139034284Y-144561619D01*
X139034284Y-144561619D02*
X138891427Y-144561619D01*
X138891427Y-144561619D02*
X138796189Y-144514000D01*
X138796189Y-144514000D02*
X138748570Y-144466380D01*
X138272379Y-144561619D02*
X138272379Y-143894952D01*
X138272379Y-144085428D02*
X138224760Y-143990190D01*
X138224760Y-143990190D02*
X138177141Y-143942571D01*
X138177141Y-143942571D02*
X138081903Y-143894952D01*
X138081903Y-143894952D02*
X137986665Y-143894952D01*
X137700950Y-144514000D02*
X137605712Y-144561619D01*
X137605712Y-144561619D02*
X137415236Y-144561619D01*
X137415236Y-144561619D02*
X137319998Y-144514000D01*
X137319998Y-144514000D02*
X137272379Y-144418761D01*
X137272379Y-144418761D02*
X137272379Y-144371142D01*
X137272379Y-144371142D02*
X137319998Y-144275904D01*
X137319998Y-144275904D02*
X137415236Y-144228285D01*
X137415236Y-144228285D02*
X137558093Y-144228285D01*
X137558093Y-144228285D02*
X137653331Y-144180666D01*
X137653331Y-144180666D02*
X137700950Y-144085428D01*
X137700950Y-144085428D02*
X137700950Y-144037809D01*
X137700950Y-144037809D02*
X137653331Y-143942571D01*
X137653331Y-143942571D02*
X137558093Y-143894952D01*
X137558093Y-143894952D02*
X137415236Y-143894952D01*
X137415236Y-143894952D02*
X137319998Y-143942571D01*
X146510476Y-146086380D02*
X146558095Y-146134000D01*
X146558095Y-146134000D02*
X146700952Y-146181619D01*
X146700952Y-146181619D02*
X146796190Y-146181619D01*
X146796190Y-146181619D02*
X146939047Y-146134000D01*
X146939047Y-146134000D02*
X147034285Y-146038761D01*
X147034285Y-146038761D02*
X147081904Y-145943523D01*
X147081904Y-145943523D02*
X147129523Y-145753047D01*
X147129523Y-145753047D02*
X147129523Y-145610190D01*
X147129523Y-145610190D02*
X147081904Y-145419714D01*
X147081904Y-145419714D02*
X147034285Y-145324476D01*
X147034285Y-145324476D02*
X146939047Y-145229238D01*
X146939047Y-145229238D02*
X146796190Y-145181619D01*
X146796190Y-145181619D02*
X146700952Y-145181619D01*
X146700952Y-145181619D02*
X146558095Y-145229238D01*
X146558095Y-145229238D02*
X146510476Y-145276857D01*
X146177142Y-145514952D02*
X145939047Y-146181619D01*
X145700952Y-145514952D02*
X145939047Y-146181619D01*
X145939047Y-146181619D02*
X146034285Y-146419714D01*
X146034285Y-146419714D02*
X146081904Y-146467333D01*
X146081904Y-146467333D02*
X146177142Y-146514952D01*
X144891428Y-146134000D02*
X144986666Y-146181619D01*
X144986666Y-146181619D02*
X145177142Y-146181619D01*
X145177142Y-146181619D02*
X145272380Y-146134000D01*
X145272380Y-146134000D02*
X145319999Y-146086380D01*
X145319999Y-146086380D02*
X145367618Y-145991142D01*
X145367618Y-145991142D02*
X145367618Y-145705428D01*
X145367618Y-145705428D02*
X145319999Y-145610190D01*
X145319999Y-145610190D02*
X145272380Y-145562571D01*
X145272380Y-145562571D02*
X145177142Y-145514952D01*
X145177142Y-145514952D02*
X144986666Y-145514952D01*
X144986666Y-145514952D02*
X144891428Y-145562571D01*
X144319999Y-146181619D02*
X144415237Y-146134000D01*
X144415237Y-146134000D02*
X144462856Y-146038761D01*
X144462856Y-146038761D02*
X144462856Y-145181619D01*
X143558094Y-146134000D02*
X143653332Y-146181619D01*
X143653332Y-146181619D02*
X143843808Y-146181619D01*
X143843808Y-146181619D02*
X143939046Y-146134000D01*
X143939046Y-146134000D02*
X143986665Y-146038761D01*
X143986665Y-146038761D02*
X143986665Y-145657809D01*
X143986665Y-145657809D02*
X143939046Y-145562571D01*
X143939046Y-145562571D02*
X143843808Y-145514952D01*
X143843808Y-145514952D02*
X143653332Y-145514952D01*
X143653332Y-145514952D02*
X143558094Y-145562571D01*
X143558094Y-145562571D02*
X143510475Y-145657809D01*
X143510475Y-145657809D02*
X143510475Y-145753047D01*
X143510475Y-145753047D02*
X143986665Y-145848285D01*
X142319998Y-145514952D02*
X142319998Y-146514952D01*
X142319998Y-145562571D02*
X142224760Y-145514952D01*
X142224760Y-145514952D02*
X142034284Y-145514952D01*
X142034284Y-145514952D02*
X141939046Y-145562571D01*
X141939046Y-145562571D02*
X141891427Y-145610190D01*
X141891427Y-145610190D02*
X141843808Y-145705428D01*
X141843808Y-145705428D02*
X141843808Y-145991142D01*
X141843808Y-145991142D02*
X141891427Y-146086380D01*
X141891427Y-146086380D02*
X141939046Y-146134000D01*
X141939046Y-146134000D02*
X142034284Y-146181619D01*
X142034284Y-146181619D02*
X142224760Y-146181619D01*
X142224760Y-146181619D02*
X142319998Y-146134000D01*
X141272379Y-146181619D02*
X141367617Y-146134000D01*
X141367617Y-146134000D02*
X141415236Y-146086380D01*
X141415236Y-146086380D02*
X141462855Y-145991142D01*
X141462855Y-145991142D02*
X141462855Y-145705428D01*
X141462855Y-145705428D02*
X141415236Y-145610190D01*
X141415236Y-145610190D02*
X141367617Y-145562571D01*
X141367617Y-145562571D02*
X141272379Y-145514952D01*
X141272379Y-145514952D02*
X141129522Y-145514952D01*
X141129522Y-145514952D02*
X141034284Y-145562571D01*
X141034284Y-145562571D02*
X140986665Y-145610190D01*
X140986665Y-145610190D02*
X140939046Y-145705428D01*
X140939046Y-145705428D02*
X140939046Y-145991142D01*
X140939046Y-145991142D02*
X140986665Y-146086380D01*
X140986665Y-146086380D02*
X141034284Y-146134000D01*
X141034284Y-146134000D02*
X141129522Y-146181619D01*
X141129522Y-146181619D02*
X141272379Y-146181619D01*
X140605712Y-145514952D02*
X140415236Y-146181619D01*
X140415236Y-146181619D02*
X140224760Y-145705428D01*
X140224760Y-145705428D02*
X140034284Y-146181619D01*
X140034284Y-146181619D02*
X139843808Y-145514952D01*
X139081903Y-146134000D02*
X139177141Y-146181619D01*
X139177141Y-146181619D02*
X139367617Y-146181619D01*
X139367617Y-146181619D02*
X139462855Y-146134000D01*
X139462855Y-146134000D02*
X139510474Y-146038761D01*
X139510474Y-146038761D02*
X139510474Y-145657809D01*
X139510474Y-145657809D02*
X139462855Y-145562571D01*
X139462855Y-145562571D02*
X139367617Y-145514952D01*
X139367617Y-145514952D02*
X139177141Y-145514952D01*
X139177141Y-145514952D02*
X139081903Y-145562571D01*
X139081903Y-145562571D02*
X139034284Y-145657809D01*
X139034284Y-145657809D02*
X139034284Y-145753047D01*
X139034284Y-145753047D02*
X139510474Y-145848285D01*
X138605712Y-146181619D02*
X138605712Y-145514952D01*
X138605712Y-145705428D02*
X138558093Y-145610190D01*
X138558093Y-145610190D02*
X138510474Y-145562571D01*
X138510474Y-145562571D02*
X138415236Y-145514952D01*
X138415236Y-145514952D02*
X138319998Y-145514952D01*
X137367616Y-145514952D02*
X136986664Y-145514952D01*
X137224759Y-145181619D02*
X137224759Y-146038761D01*
X137224759Y-146038761D02*
X137177140Y-146134000D01*
X137177140Y-146134000D02*
X137081902Y-146181619D01*
X137081902Y-146181619D02*
X136986664Y-146181619D01*
X136510473Y-146181619D02*
X136605711Y-146134000D01*
X136605711Y-146134000D02*
X136653330Y-146086380D01*
X136653330Y-146086380D02*
X136700949Y-145991142D01*
X136700949Y-145991142D02*
X136700949Y-145705428D01*
X136700949Y-145705428D02*
X136653330Y-145610190D01*
X136653330Y-145610190D02*
X136605711Y-145562571D01*
X136605711Y-145562571D02*
X136510473Y-145514952D01*
X136510473Y-145514952D02*
X136367616Y-145514952D01*
X136367616Y-145514952D02*
X136272378Y-145562571D01*
X136272378Y-145562571D02*
X136224759Y-145610190D01*
X136224759Y-145610190D02*
X136177140Y-145705428D01*
X136177140Y-145705428D02*
X136177140Y-145991142D01*
X136177140Y-145991142D02*
X136224759Y-146086380D01*
X136224759Y-146086380D02*
X136272378Y-146134000D01*
X136272378Y-146134000D02*
X136367616Y-146181619D01*
X136367616Y-146181619D02*
X136510473Y-146181619D01*
X134986663Y-146181619D02*
X134986663Y-145514952D01*
X134986663Y-145705428D02*
X134939044Y-145610190D01*
X134939044Y-145610190D02*
X134891425Y-145562571D01*
X134891425Y-145562571D02*
X134796187Y-145514952D01*
X134796187Y-145514952D02*
X134700949Y-145514952D01*
X133986663Y-146134000D02*
X134081901Y-146181619D01*
X134081901Y-146181619D02*
X134272377Y-146181619D01*
X134272377Y-146181619D02*
X134367615Y-146134000D01*
X134367615Y-146134000D02*
X134415234Y-146038761D01*
X134415234Y-146038761D02*
X134415234Y-145657809D01*
X134415234Y-145657809D02*
X134367615Y-145562571D01*
X134367615Y-145562571D02*
X134272377Y-145514952D01*
X134272377Y-145514952D02*
X134081901Y-145514952D01*
X134081901Y-145514952D02*
X133986663Y-145562571D01*
X133986663Y-145562571D02*
X133939044Y-145657809D01*
X133939044Y-145657809D02*
X133939044Y-145753047D01*
X133939044Y-145753047D02*
X134415234Y-145848285D01*
X133558091Y-146134000D02*
X133462853Y-146181619D01*
X133462853Y-146181619D02*
X133272377Y-146181619D01*
X133272377Y-146181619D02*
X133177139Y-146134000D01*
X133177139Y-146134000D02*
X133129520Y-146038761D01*
X133129520Y-146038761D02*
X133129520Y-145991142D01*
X133129520Y-145991142D02*
X133177139Y-145895904D01*
X133177139Y-145895904D02*
X133272377Y-145848285D01*
X133272377Y-145848285D02*
X133415234Y-145848285D01*
X133415234Y-145848285D02*
X133510472Y-145800666D01*
X133510472Y-145800666D02*
X133558091Y-145705428D01*
X133558091Y-145705428D02*
X133558091Y-145657809D01*
X133558091Y-145657809D02*
X133510472Y-145562571D01*
X133510472Y-145562571D02*
X133415234Y-145514952D01*
X133415234Y-145514952D02*
X133272377Y-145514952D01*
X133272377Y-145514952D02*
X133177139Y-145562571D01*
X132319996Y-146134000D02*
X132415234Y-146181619D01*
X132415234Y-146181619D02*
X132605710Y-146181619D01*
X132605710Y-146181619D02*
X132700948Y-146134000D01*
X132700948Y-146134000D02*
X132748567Y-146038761D01*
X132748567Y-146038761D02*
X132748567Y-145657809D01*
X132748567Y-145657809D02*
X132700948Y-145562571D01*
X132700948Y-145562571D02*
X132605710Y-145514952D01*
X132605710Y-145514952D02*
X132415234Y-145514952D01*
X132415234Y-145514952D02*
X132319996Y-145562571D01*
X132319996Y-145562571D02*
X132272377Y-145657809D01*
X132272377Y-145657809D02*
X132272377Y-145753047D01*
X132272377Y-145753047D02*
X132748567Y-145848285D01*
X131986662Y-145514952D02*
X131605710Y-145514952D01*
X131843805Y-145181619D02*
X131843805Y-146038761D01*
X131843805Y-146038761D02*
X131796186Y-146134000D01*
X131796186Y-146134000D02*
X131700948Y-146181619D01*
X131700948Y-146181619D02*
X131605710Y-146181619D01*
D11*
G36*
X134632501Y-147181310D02*
G01*
X134651647Y-147185329D01*
X134671866Y-147197887D01*
X134685071Y-147213961D01*
X134695634Y-147235393D01*
X134701824Y-147254984D01*
X134706528Y-147277588D01*
X134709747Y-147303206D01*
X134711480Y-147331838D01*
X134711810Y-147352601D01*
X134712512Y-147375033D01*
X134714618Y-147397145D01*
X134718129Y-147418936D01*
X134723045Y-147440406D01*
X134729365Y-147461556D01*
X134737089Y-147482386D01*
X134746217Y-147502894D01*
X134756750Y-147523083D01*
X134768863Y-147543355D01*
X134782732Y-147564115D01*
X134794285Y-147580006D01*
X134806826Y-147596172D01*
X134820354Y-147612613D01*
X134834870Y-147629328D01*
X134850373Y-147646318D01*
X134866864Y-147663583D01*
X134884342Y-147681123D01*
X134902808Y-147698937D01*
X134925668Y-147720916D01*
X134947111Y-147742890D01*
X134967136Y-147764857D01*
X134985743Y-147786819D01*
X135002933Y-147808775D01*
X135018705Y-147830725D01*
X135033059Y-147852670D01*
X135045995Y-147874609D01*
X135057513Y-147896542D01*
X135067614Y-147918470D01*
X135076297Y-147940391D01*
X135083563Y-147962308D01*
X135089410Y-147984218D01*
X135093840Y-148006122D01*
X135096852Y-148028021D01*
X135098446Y-148049914D01*
X135098623Y-148071802D01*
X135097381Y-148093683D01*
X135094722Y-148115559D01*
X135090646Y-148137430D01*
X135085151Y-148159294D01*
X135078239Y-148181153D01*
X135069909Y-148203006D01*
X135060161Y-148224853D01*
X135048996Y-148246695D01*
X135036412Y-148268531D01*
X135022411Y-148290361D01*
X135006992Y-148312185D01*
X134990156Y-148334004D01*
X134971902Y-148355817D01*
X134952230Y-148377624D01*
X134931140Y-148399426D01*
X134912686Y-148418815D01*
X134895425Y-148437963D01*
X134879358Y-148456871D01*
X134864484Y-148475538D01*
X134850804Y-148493965D01*
X134838318Y-148512152D01*
X134827025Y-148530098D01*
X134816926Y-148547803D01*
X134805317Y-148571037D01*
X134795829Y-148593843D01*
X134791715Y-148605473D01*
X134785916Y-148624400D01*
X134780564Y-148645104D01*
X134775658Y-148667585D01*
X134771199Y-148691844D01*
X134767186Y-148717880D01*
X134763620Y-148745694D01*
X134761490Y-148765223D01*
X134759559Y-148785543D01*
X134757827Y-148806653D01*
X134756292Y-148828553D01*
X134754957Y-148851243D01*
X134753819Y-148874722D01*
X134753421Y-148883838D01*
X134752140Y-148906242D01*
X134750453Y-148928097D01*
X134748362Y-148949404D01*
X134745864Y-148970162D01*
X134742962Y-148990372D01*
X134739653Y-149010033D01*
X134737517Y-149022664D01*
X134733063Y-149046775D01*
X134728369Y-149069353D01*
X134723435Y-149090396D01*
X134718260Y-149109904D01*
X134710047Y-149136291D01*
X134701292Y-149159226D01*
X134691997Y-149178709D01*
X134678762Y-149199317D01*
X134660866Y-149216448D01*
X134641468Y-149223990D01*
X134621319Y-149221429D01*
X134605313Y-149209373D01*
X134592867Y-149192374D01*
X134583494Y-149174223D01*
X134574641Y-149152028D01*
X134568341Y-149132726D01*
X134562333Y-149111150D01*
X134560914Y-149106297D01*
X134553374Y-149083924D01*
X134545095Y-149064700D01*
X134534185Y-149045786D01*
X134520110Y-149029450D01*
X134502249Y-149018337D01*
X134485540Y-149014416D01*
X134463987Y-149013277D01*
X134442327Y-149014453D01*
X134422578Y-149016784D01*
X134400676Y-149020353D01*
X134376622Y-149025157D01*
X134357169Y-149029572D01*
X134319263Y-149037096D01*
X134282236Y-149044156D01*
X134246089Y-149050754D01*
X134210822Y-149056889D01*
X134176434Y-149062562D01*
X134142926Y-149067772D01*
X134110298Y-149072519D01*
X134078549Y-149076803D01*
X134047680Y-149080624D01*
X134017691Y-149083983D01*
X133988581Y-149086879D01*
X133960351Y-149089313D01*
X133933000Y-149091283D01*
X133906530Y-149092791D01*
X133880938Y-149093836D01*
X133856227Y-149094419D01*
X133832395Y-149094539D01*
X133809443Y-149094196D01*
X133787371Y-149093390D01*
X133766178Y-149092121D01*
X133745865Y-149090390D01*
X133726431Y-149088196D01*
X133690203Y-149082420D01*
X133657493Y-149074794D01*
X133628303Y-149065316D01*
X133602630Y-149053987D01*
X133580477Y-149040808D01*
X133576663Y-149037695D01*
X133559497Y-149023108D01*
X133543085Y-149007743D01*
X133529711Y-148992770D01*
X133521370Y-148973397D01*
X133522593Y-148970200D01*
X133540368Y-148958683D01*
X133559949Y-148951871D01*
X133579133Y-148946652D01*
X133602173Y-148941338D01*
X133629068Y-148935930D01*
X133649140Y-148932272D01*
X133670925Y-148928572D01*
X133694424Y-148924830D01*
X133719636Y-148921047D01*
X133746562Y-148917221D01*
X133778418Y-148912702D01*
X133809264Y-148908306D01*
X133839098Y-148904032D01*
X133867920Y-148899879D01*
X133895731Y-148895849D01*
X133922531Y-148891942D01*
X133948320Y-148888156D01*
X133973097Y-148884492D01*
X133996863Y-148880951D01*
X134019618Y-148877531D01*
X134041361Y-148874234D01*
X134062093Y-148871059D01*
X134081814Y-148868006D01*
X134109499Y-148863655D01*
X134134908Y-148859579D01*
X134150908Y-148856879D01*
X134174228Y-148852779D01*
X134196732Y-148848619D01*
X134218421Y-148844399D01*
X134239293Y-148840118D01*
X134259350Y-148835778D01*
X134278592Y-148831377D01*
X134302978Y-148825416D01*
X134325914Y-148819348D01*
X134347399Y-148813173D01*
X134352529Y-148811591D01*
X134371836Y-148805378D01*
X134393243Y-148797870D01*
X134414933Y-148789237D01*
X134434724Y-148779687D01*
X134451447Y-148768233D01*
X134454011Y-148765655D01*
X134465933Y-148748816D01*
X134473566Y-148729601D01*
X134477825Y-148709126D01*
X134478656Y-148705473D01*
X134481335Y-148685277D01*
X134478762Y-148662944D01*
X134467475Y-148644096D01*
X134449981Y-148632922D01*
X134437693Y-148628915D01*
X134417653Y-148624657D01*
X134397877Y-148621852D01*
X134374773Y-148619582D01*
X134355261Y-148618229D01*
X134333877Y-148617177D01*
X134310622Y-148616426D01*
X134285494Y-148615975D01*
X134258495Y-148615825D01*
X134229380Y-148615155D01*
X134200411Y-148613757D01*
X134171586Y-148611629D01*
X134142907Y-148608773D01*
X134114373Y-148605187D01*
X134085983Y-148600873D01*
X134057739Y-148595830D01*
X134029639Y-148590057D01*
X134001685Y-148583556D01*
X133973876Y-148576326D01*
X133946211Y-148568368D01*
X133918692Y-148559680D01*
X133891318Y-148550263D01*
X133864089Y-148540117D01*
X133837004Y-148529243D01*
X133810065Y-148517639D01*
X133783462Y-148505437D01*
X133757507Y-148492765D01*
X133732201Y-148479623D01*
X133707544Y-148466013D01*
X133683536Y-148451932D01*
X133660176Y-148437383D01*
X133637466Y-148422364D01*
X133615404Y-148406875D01*
X133593990Y-148390917D01*
X133573226Y-148374490D01*
X133553110Y-148357594D01*
X133533643Y-148340228D01*
X133514825Y-148322392D01*
X133496656Y-148304087D01*
X133479135Y-148285313D01*
X133462263Y-148266069D01*
X133446233Y-148246480D01*
X133431237Y-148226792D01*
X133417275Y-148207004D01*
X133404347Y-148187118D01*
X133392454Y-148167132D01*
X133381594Y-148147047D01*
X133371769Y-148126862D01*
X133362979Y-148106579D01*
X133355222Y-148086196D01*
X133348500Y-148065714D01*
X133342811Y-148045133D01*
X133338157Y-148024452D01*
X133334538Y-148003672D01*
X133331952Y-147982793D01*
X133330401Y-147961815D01*
X133329884Y-147940738D01*
X133330706Y-147904789D01*
X133331930Y-147887554D01*
X133614213Y-147887554D01*
X133614984Y-147907780D01*
X133617113Y-147929503D01*
X133618295Y-147939316D01*
X133621520Y-147958653D01*
X133628511Y-147986936D01*
X133638086Y-148014352D01*
X133650246Y-148040900D01*
X133659789Y-148058117D01*
X133670480Y-148074949D01*
X133682320Y-148091396D01*
X133695309Y-148107456D01*
X133709447Y-148123132D01*
X133724733Y-148138422D01*
X133741168Y-148153326D01*
X133758751Y-148167845D01*
X133777483Y-148181979D01*
X133797364Y-148195727D01*
X133818110Y-148208899D01*
X133839557Y-148221426D01*
X133861707Y-148233308D01*
X133884559Y-148244545D01*
X133908113Y-148255138D01*
X133932370Y-148265085D01*
X133957328Y-148274387D01*
X133982989Y-148283044D01*
X134009352Y-148291056D01*
X134036417Y-148298424D01*
X134064185Y-148305146D01*
X134092654Y-148311224D01*
X134121826Y-148316656D01*
X134151700Y-148321444D01*
X134182276Y-148325586D01*
X134213554Y-148329084D01*
X134494922Y-148354485D01*
X134479553Y-148063348D01*
X134711810Y-148063348D01*
X134712558Y-148082973D01*
X134715244Y-148103741D01*
X134719885Y-148122738D01*
X134727441Y-148141994D01*
X134732352Y-148151282D01*
X134745599Y-148167150D01*
X134765055Y-148174234D01*
X134777269Y-148171568D01*
X134793412Y-148158303D01*
X134804622Y-148140528D01*
X134811093Y-148125315D01*
X134817078Y-148104381D01*
X134820192Y-148084475D01*
X134821230Y-148063348D01*
X134820436Y-148044604D01*
X134817581Y-148024386D01*
X134812650Y-148005449D01*
X134804622Y-147985678D01*
X134798022Y-147974224D01*
X134783688Y-147958424D01*
X134765055Y-147951973D01*
X134752995Y-147954562D01*
X134737621Y-147967442D01*
X134727441Y-147984702D01*
X134719885Y-148003957D01*
X134715244Y-148022955D01*
X134712558Y-148043723D01*
X134711810Y-148063348D01*
X134479553Y-148063348D01*
X134477825Y-148030619D01*
X134477110Y-148017069D01*
X134475607Y-147990916D01*
X134474004Y-147966026D01*
X134472302Y-147942399D01*
X134470501Y-147920036D01*
X134468600Y-147898936D01*
X134465563Y-147869654D01*
X134462303Y-147843214D01*
X134458820Y-147819616D01*
X134455113Y-147798861D01*
X134449824Y-147775608D01*
X134442654Y-147753648D01*
X134433433Y-147736422D01*
X134420729Y-147720770D01*
X134404544Y-147706693D01*
X134384875Y-147694190D01*
X134366633Y-147685321D01*
X134346163Y-147677459D01*
X134323464Y-147670605D01*
X134313324Y-147667847D01*
X134293392Y-147662638D01*
X134273921Y-147657837D01*
X134245581Y-147651402D01*
X134218279Y-147645885D01*
X134192017Y-147641287D01*
X134166794Y-147637607D01*
X134142609Y-147634847D01*
X134119464Y-147633005D01*
X134097358Y-147632082D01*
X134076290Y-147632077D01*
X134056262Y-147632992D01*
X134042989Y-147634072D01*
X134022306Y-147636536D01*
X134000697Y-147640014D01*
X133978160Y-147644505D01*
X133954695Y-147650009D01*
X133930303Y-147656526D01*
X133904984Y-147664056D01*
X133878737Y-147672600D01*
X133851563Y-147682157D01*
X133832932Y-147689091D01*
X133813889Y-147696476D01*
X133794434Y-147704311D01*
X133771977Y-147713763D01*
X133751134Y-147723070D01*
X133731905Y-147732230D01*
X133708779Y-147744217D01*
X133688522Y-147755945D01*
X133671135Y-147767413D01*
X133653437Y-147781383D01*
X133638118Y-147797612D01*
X133634258Y-147803050D01*
X133624715Y-147821608D01*
X133618230Y-147843533D01*
X133615160Y-147864375D01*
X133614213Y-147887554D01*
X133331930Y-147887554D01*
X133333171Y-147870092D01*
X133337281Y-147836649D01*
X133343035Y-147804458D01*
X133350432Y-147773520D01*
X133359473Y-147743834D01*
X133370158Y-147715401D01*
X133382487Y-147688221D01*
X133396460Y-147662294D01*
X133412077Y-147637619D01*
X133429338Y-147614197D01*
X133448242Y-147592028D01*
X133468791Y-147571111D01*
X133490983Y-147551447D01*
X133514819Y-147533036D01*
X133540299Y-147515877D01*
X133567423Y-147499972D01*
X133596190Y-147485318D01*
X133626602Y-147471918D01*
X133658657Y-147459770D01*
X133692357Y-147448875D01*
X133727700Y-147439233D01*
X133764687Y-147430843D01*
X133803318Y-147423706D01*
X133843593Y-147417822D01*
X133885511Y-147413190D01*
X133929074Y-147409812D01*
X133974280Y-147407685D01*
X134021131Y-147406812D01*
X134069625Y-147407191D01*
X134119763Y-147408823D01*
X134171545Y-147411708D01*
X134188364Y-147413077D01*
X134220703Y-147415603D01*
X134251310Y-147417847D01*
X134280184Y-147419809D01*
X134307325Y-147421488D01*
X134332734Y-147422885D01*
X134356411Y-147423999D01*
X134378354Y-147424831D01*
X134398565Y-147425381D01*
X134425633Y-147425675D01*
X134448803Y-147425335D01*
X134473632Y-147423892D01*
X134494922Y-147420501D01*
X134514717Y-147410540D01*
X134527815Y-147396011D01*
X134537340Y-147375952D01*
X134542549Y-147355013D01*
X134544931Y-147335496D01*
X134545725Y-147313522D01*
X134546076Y-147298433D01*
X134547919Y-147277372D01*
X134552066Y-147255190D01*
X134558364Y-147235578D01*
X134568195Y-147216314D01*
X134574034Y-147208070D01*
X134588790Y-147193542D01*
X134607814Y-147183925D01*
X134627302Y-147181143D01*
X134632501Y-147181310D01*
G37*
G36*
X132728558Y-147358463D02*
G01*
X132714979Y-147343900D01*
X132699646Y-147331230D01*
X132682556Y-147320453D01*
X132663711Y-147311568D01*
X132643111Y-147304577D01*
X132620755Y-147299478D01*
X132596644Y-147296273D01*
X132570777Y-147294960D01*
X132550611Y-147295144D01*
X132530231Y-147296248D01*
X132509636Y-147298270D01*
X132488826Y-147301211D01*
X132467801Y-147305071D01*
X132446562Y-147309849D01*
X132425108Y-147315546D01*
X132403440Y-147322162D01*
X132381557Y-147329697D01*
X132359459Y-147338151D01*
X132344608Y-147344297D01*
X132322245Y-147354033D01*
X132300038Y-147364189D01*
X132277984Y-147374767D01*
X132256085Y-147385765D01*
X132234341Y-147397183D01*
X132212751Y-147409023D01*
X132191316Y-147421283D01*
X132170035Y-147433964D01*
X132148909Y-147447066D01*
X132127938Y-147460589D01*
X132114043Y-147469838D01*
X132093495Y-147483961D01*
X132073617Y-147498488D01*
X132054408Y-147513419D01*
X132035870Y-147528754D01*
X132018001Y-147544491D01*
X132000802Y-147560633D01*
X131984273Y-147577178D01*
X131968413Y-147594127D01*
X131953223Y-147611479D01*
X131938703Y-147629235D01*
X131929395Y-147641296D01*
X131916301Y-147659350D01*
X131904494Y-147677240D01*
X131893975Y-147694967D01*
X131884745Y-147712531D01*
X131874441Y-147735696D01*
X131866426Y-147758571D01*
X131860702Y-147781156D01*
X131857267Y-147803450D01*
X131856122Y-147825455D01*
X131857977Y-147849661D01*
X131863541Y-147868423D01*
X131876730Y-147884970D01*
X131896514Y-147891840D01*
X131922892Y-147889031D01*
X131947004Y-147880573D01*
X131965139Y-147871910D01*
X131984922Y-147860827D01*
X132006355Y-147847325D01*
X132029436Y-147831404D01*
X132054165Y-147813063D01*
X132067148Y-147802985D01*
X132083358Y-147790143D01*
X132100235Y-147776347D01*
X132117781Y-147761597D01*
X132135994Y-147745893D01*
X132151046Y-147732643D01*
X132166524Y-147718782D01*
X132182431Y-147704311D01*
X132200683Y-147687840D01*
X132218438Y-147672134D01*
X132235694Y-147657191D01*
X132252452Y-147643013D01*
X132268712Y-147629600D01*
X132284475Y-147616950D01*
X132304716Y-147601273D01*
X132324073Y-147586954D01*
X132342543Y-147573994D01*
X132351447Y-147568023D01*
X132368857Y-147557124D01*
X132390125Y-147545475D01*
X132410846Y-147536020D01*
X132431017Y-147528759D01*
X132450640Y-147523693D01*
X132473463Y-147520510D01*
X132480896Y-147520152D01*
X132502271Y-147521234D01*
X132522066Y-147525578D01*
X132540281Y-147533186D01*
X132556916Y-147544057D01*
X132571971Y-147558191D01*
X132576639Y-147563627D01*
X132590120Y-147582609D01*
X132600960Y-147601681D01*
X132611443Y-147623711D01*
X132619572Y-147643464D01*
X132627472Y-147665110D01*
X132635143Y-147688649D01*
X132640745Y-147707545D01*
X132642584Y-147714080D01*
X132647985Y-147734251D01*
X132653197Y-147755193D01*
X132658221Y-147776909D01*
X132663055Y-147799398D01*
X132667700Y-147822659D01*
X132672157Y-147846693D01*
X132676424Y-147871500D01*
X132680503Y-147897079D01*
X132684393Y-147923432D01*
X132688094Y-147950557D01*
X132690456Y-147969070D01*
X132693810Y-147997696D01*
X132696009Y-148017549D01*
X132698176Y-148038016D01*
X132700313Y-148059097D01*
X132702420Y-148080792D01*
X132704496Y-148103103D01*
X132706542Y-148126027D01*
X132708557Y-148149566D01*
X132710541Y-148173719D01*
X132712495Y-148198487D01*
X132714418Y-148223869D01*
X132716311Y-148249866D01*
X132718174Y-148276477D01*
X132720005Y-148303702D01*
X132721807Y-148331542D01*
X132722696Y-148345692D01*
X132756401Y-148885958D01*
X132573708Y-148903055D01*
X132550288Y-148905223D01*
X132527655Y-148908369D01*
X132505809Y-148912493D01*
X132484750Y-148917595D01*
X132464478Y-148923675D01*
X132444994Y-148930732D01*
X132437420Y-148933829D01*
X132416337Y-148943355D01*
X132398517Y-148952880D01*
X132381851Y-148963993D01*
X132366949Y-148978281D01*
X132362682Y-148984632D01*
X132360598Y-149006437D01*
X132366743Y-149027401D01*
X132378558Y-149044700D01*
X132393022Y-149058644D01*
X132411683Y-149072158D01*
X132420323Y-149077444D01*
X132439397Y-149087664D01*
X132460715Y-149097319D01*
X132484277Y-149106410D01*
X132503421Y-149112857D01*
X132523827Y-149118986D01*
X132545495Y-149124798D01*
X132568426Y-149130292D01*
X132592619Y-149135468D01*
X132618074Y-149140327D01*
X132635745Y-149143390D01*
X132662959Y-149147667D01*
X132690929Y-149151524D01*
X132719654Y-149154960D01*
X132739224Y-149157017D01*
X132759130Y-149158887D01*
X132779372Y-149160570D01*
X132799949Y-149162066D01*
X132820862Y-149163375D01*
X132842112Y-149164497D01*
X132863697Y-149165432D01*
X132885617Y-149166180D01*
X132907874Y-149166741D01*
X132930466Y-149167115D01*
X132953395Y-149167302D01*
X132964985Y-149167325D01*
X132991405Y-149167261D01*
X133016566Y-149167066D01*
X133040467Y-149166741D01*
X133063109Y-149166287D01*
X133084492Y-149165703D01*
X133104615Y-149164990D01*
X133132439Y-149163676D01*
X133157429Y-149162070D01*
X133179586Y-149160173D01*
X133204720Y-149157188D01*
X133224816Y-149153685D01*
X133236583Y-149150717D01*
X133254781Y-149142537D01*
X133270151Y-149128522D01*
X133279211Y-149109692D01*
X133281953Y-149089719D01*
X133280058Y-149066209D01*
X133273196Y-149044189D01*
X133261160Y-149024535D01*
X133243948Y-149007247D01*
X133227644Y-148995834D01*
X133208428Y-148985752D01*
X133186302Y-148977001D01*
X133161265Y-148969580D01*
X133133316Y-148963491D01*
X133113067Y-148960171D01*
X133091524Y-148957442D01*
X133080267Y-148956300D01*
X132905878Y-148939691D01*
X132905878Y-148404799D01*
X132905831Y-148380486D01*
X132905691Y-148356395D01*
X132905457Y-148332527D01*
X132905130Y-148308880D01*
X132904709Y-148285457D01*
X132904195Y-148262255D01*
X132903587Y-148239276D01*
X132902886Y-148216519D01*
X132902091Y-148193984D01*
X132901203Y-148171671D01*
X132900221Y-148149581D01*
X132899146Y-148127713D01*
X132897977Y-148106068D01*
X132896715Y-148084645D01*
X132895359Y-148063444D01*
X132893910Y-148042465D01*
X132892367Y-148021709D01*
X132890731Y-148001175D01*
X132889001Y-147980863D01*
X132887178Y-147960773D01*
X132885261Y-147940906D01*
X132883251Y-147921261D01*
X132878950Y-147882639D01*
X132874275Y-147844905D01*
X132869226Y-147808061D01*
X132863803Y-147772105D01*
X132858006Y-147737039D01*
X132851891Y-147703046D01*
X132845512Y-147670430D01*
X132838870Y-147639191D01*
X132831964Y-147609331D01*
X132824795Y-147580848D01*
X132817363Y-147553743D01*
X132809667Y-147528015D01*
X132801709Y-147503665D01*
X132793486Y-147480693D01*
X132785001Y-147459099D01*
X132776252Y-147438882D01*
X132767240Y-147420043D01*
X132757964Y-147402581D01*
X132743557Y-147378972D01*
X132728558Y-147358463D01*
G37*
G36*
X142203363Y-147440040D02*
G01*
X142207597Y-147417111D01*
X142209749Y-147394351D01*
X142208223Y-147374352D01*
X142197041Y-147357188D01*
X142192128Y-147355532D01*
X142167209Y-147358984D01*
X142147190Y-147364947D01*
X142122129Y-147373736D01*
X142102622Y-147381164D01*
X142080875Y-147389848D01*
X142056888Y-147399788D01*
X142030660Y-147410983D01*
X142002193Y-147423433D01*
X141971485Y-147437140D01*
X141938537Y-147452101D01*
X141903349Y-147468319D01*
X141884915Y-147476898D01*
X141865921Y-147485792D01*
X141846366Y-147494999D01*
X141826252Y-147504520D01*
X141823810Y-147507451D01*
X141820879Y-147507451D01*
X141817948Y-147510382D01*
X141815017Y-147510382D01*
X141812086Y-147513313D01*
X141809644Y-147513313D01*
X141806713Y-147515755D01*
X141803782Y-147515755D01*
X141800851Y-147518686D01*
X141798408Y-147518686D01*
X141795478Y-147521617D01*
X141792547Y-147521617D01*
X141789616Y-147524548D01*
X141787173Y-147524548D01*
X141784242Y-147526990D01*
X141781311Y-147526990D01*
X141778381Y-147529921D01*
X141775938Y-147529921D01*
X141773007Y-147532852D01*
X141770076Y-147532852D01*
X141767145Y-147535783D01*
X141764703Y-147535783D01*
X141758841Y-147538226D01*
X141755910Y-147538226D01*
X141735652Y-147547717D01*
X141715665Y-147557200D01*
X141695951Y-147566676D01*
X141676508Y-147576144D01*
X141657338Y-147585605D01*
X141638439Y-147595058D01*
X141619812Y-147604503D01*
X141601457Y-147613941D01*
X141583374Y-147623371D01*
X141565563Y-147632793D01*
X141548024Y-147642208D01*
X141530756Y-147651615D01*
X141497038Y-147670407D01*
X141464406Y-147689168D01*
X141432863Y-147707898D01*
X141402407Y-147726598D01*
X141373039Y-147745267D01*
X141344758Y-147763906D01*
X141317565Y-147782514D01*
X141291460Y-147801092D01*
X141266442Y-147819639D01*
X141242512Y-147838156D01*
X141219856Y-147856426D01*
X141198662Y-147874357D01*
X141178930Y-147891948D01*
X141160660Y-147909200D01*
X141143851Y-147926112D01*
X141128504Y-147942684D01*
X141114618Y-147958917D01*
X141102194Y-147974810D01*
X141086299Y-147998012D01*
X141073692Y-148020451D01*
X141064374Y-148042125D01*
X141058345Y-148063035D01*
X141055604Y-148083181D01*
X141055422Y-148089726D01*
X141060284Y-148111478D01*
X141069710Y-148132453D01*
X141080823Y-148152496D01*
X141091241Y-148169432D01*
X141103446Y-148187999D01*
X141117436Y-148208198D01*
X141133213Y-148230028D01*
X141150776Y-148253490D01*
X141157027Y-148261673D01*
X141169821Y-148278205D01*
X141182924Y-148294829D01*
X141196336Y-148311544D01*
X141210058Y-148328351D01*
X141224089Y-148345250D01*
X141238428Y-148362240D01*
X141253077Y-148379322D01*
X141268035Y-148396495D01*
X141283302Y-148413760D01*
X141298878Y-148431116D01*
X141314764Y-148448564D01*
X141330958Y-148466104D01*
X141347462Y-148483735D01*
X141364274Y-148501458D01*
X141381396Y-148519273D01*
X141398827Y-148537179D01*
X141419484Y-148558989D01*
X141439263Y-148580091D01*
X141458162Y-148600484D01*
X141476183Y-148620168D01*
X141493326Y-148639143D01*
X141509589Y-148657409D01*
X141524974Y-148674967D01*
X141539480Y-148691815D01*
X141553108Y-148707955D01*
X141565857Y-148723385D01*
X141588718Y-148752120D01*
X141608065Y-148778019D01*
X141623897Y-148801083D01*
X141636214Y-148821312D01*
X141648099Y-148846337D01*
X141651645Y-148869781D01*
X141636306Y-148883135D01*
X141624019Y-148883515D01*
X141600236Y-148878333D01*
X141577951Y-148870529D01*
X141551853Y-148859368D01*
X141532336Y-148850062D01*
X141511125Y-148839263D01*
X141488220Y-148826973D01*
X141463620Y-148813190D01*
X141437326Y-148797916D01*
X141409337Y-148781149D01*
X141379654Y-148762890D01*
X141348276Y-148743139D01*
X141315204Y-148721895D01*
X141298033Y-148710714D01*
X141280438Y-148699160D01*
X141262419Y-148687232D01*
X141243977Y-148674932D01*
X141221810Y-148660184D01*
X141200372Y-148646104D01*
X141179663Y-148632691D01*
X141159683Y-148619947D01*
X141140432Y-148607870D01*
X141121909Y-148596461D01*
X141104116Y-148585720D01*
X141087051Y-148575647D01*
X141062821Y-148561790D01*
X141040231Y-148549435D01*
X141019281Y-148538583D01*
X140999971Y-148529233D01*
X140976775Y-148519105D01*
X140955710Y-148511343D01*
X140936231Y-148505641D01*
X140914116Y-148501412D01*
X140894481Y-148500403D01*
X140874193Y-148503443D01*
X140855040Y-148512849D01*
X140852700Y-148514709D01*
X140833027Y-148533960D01*
X140819682Y-148554467D01*
X140812663Y-148576229D01*
X140811973Y-148599247D01*
X140817609Y-148623521D01*
X140829573Y-148649050D01*
X140847865Y-148675834D01*
X140872484Y-148703875D01*
X140887166Y-148718366D01*
X140903430Y-148733170D01*
X140921276Y-148748289D01*
X140940704Y-148763722D01*
X140961714Y-148779468D01*
X140984305Y-148795529D01*
X141008478Y-148811903D01*
X141034234Y-148828591D01*
X141061571Y-148845593D01*
X141090490Y-148862909D01*
X141120990Y-148880539D01*
X141153073Y-148898483D01*
X141186738Y-148916740D01*
X141221984Y-148935312D01*
X141258812Y-148954197D01*
X141297222Y-148973397D01*
X141340209Y-148994380D01*
X141381915Y-149014101D01*
X141422340Y-149032559D01*
X141461483Y-149049753D01*
X141499345Y-149065684D01*
X141535926Y-149080352D01*
X141571225Y-149093757D01*
X141605243Y-149105898D01*
X141637980Y-149116777D01*
X141669435Y-149126392D01*
X141699609Y-149134744D01*
X141728502Y-149141833D01*
X141756113Y-149147658D01*
X141782443Y-149152220D01*
X141807492Y-149155520D01*
X141831259Y-149157556D01*
X141853745Y-149158328D01*
X141874950Y-149157838D01*
X141894873Y-149156084D01*
X141930876Y-149148788D01*
X141961754Y-149136438D01*
X141987506Y-149119036D01*
X142008133Y-149096581D01*
X142023635Y-149069073D01*
X142034012Y-149036512D01*
X142037278Y-149018337D01*
X142037143Y-148993279D01*
X142033342Y-148973968D01*
X142026572Y-148952574D01*
X142016833Y-148929096D01*
X142004125Y-148903535D01*
X141988447Y-148875889D01*
X141969801Y-148846160D01*
X141948186Y-148814348D01*
X141936264Y-148797660D01*
X141923601Y-148780451D01*
X141910195Y-148762722D01*
X141896047Y-148744471D01*
X141881157Y-148725700D01*
X141865525Y-148706408D01*
X141849150Y-148686594D01*
X141832033Y-148666260D01*
X141814174Y-148645405D01*
X141795572Y-148624029D01*
X141776228Y-148602132D01*
X141756142Y-148579714D01*
X141735314Y-148556776D01*
X141713743Y-148533316D01*
X141691430Y-148509335D01*
X141672284Y-148489015D01*
X141653557Y-148468966D01*
X141635250Y-148449188D01*
X141617363Y-148429681D01*
X141599896Y-148410445D01*
X141582849Y-148391480D01*
X141566221Y-148372786D01*
X141550013Y-148354363D01*
X141534225Y-148336211D01*
X141518857Y-148318330D01*
X141503909Y-148300719D01*
X141489380Y-148283380D01*
X141475271Y-148266312D01*
X141461582Y-148249514D01*
X141448313Y-148232988D01*
X141435464Y-148216732D01*
X141423194Y-148200946D01*
X141406407Y-148178748D01*
X141391561Y-148158328D01*
X141378655Y-148139685D01*
X141367690Y-148122819D01*
X141356088Y-148103096D01*
X141346438Y-148082887D01*
X141341983Y-148062888D01*
X141342651Y-148058951D01*
X141354192Y-148042404D01*
X141368908Y-148028155D01*
X141384838Y-148014592D01*
X141404461Y-147999105D01*
X141421603Y-147986228D01*
X141440823Y-147972269D01*
X141462120Y-147957228D01*
X141477473Y-147946600D01*
X141501569Y-147930158D01*
X141518048Y-147919144D01*
X141534858Y-147908088D01*
X141552001Y-147896990D01*
X141569476Y-147885850D01*
X141587283Y-147874669D01*
X141605422Y-147863445D01*
X141623893Y-147852179D01*
X141642696Y-147840872D01*
X141661830Y-147829522D01*
X141681297Y-147818130D01*
X141701096Y-147806697D01*
X141721227Y-147795221D01*
X141741690Y-147783703D01*
X141762485Y-147772144D01*
X141773007Y-147766348D01*
X141793619Y-147754377D01*
X141813933Y-147742397D01*
X141833950Y-147730410D01*
X141853668Y-147718416D01*
X141873089Y-147706414D01*
X141892213Y-147694404D01*
X141911039Y-147682386D01*
X141929567Y-147670361D01*
X141947797Y-147658328D01*
X141965730Y-147646288D01*
X141983365Y-147634240D01*
X142000703Y-147622184D01*
X142017742Y-147610121D01*
X142034484Y-147598050D01*
X142050929Y-147585971D01*
X142067076Y-147573885D01*
X142082606Y-147561971D01*
X142104148Y-147544986D01*
X142123587Y-147529066D01*
X142140922Y-147514212D01*
X142156154Y-147500421D01*
X142173190Y-147483691D01*
X142186486Y-147468853D01*
X142199417Y-147450146D01*
X142203363Y-147440040D01*
G37*
G36*
X140542512Y-147417570D02*
G01*
X140520613Y-147406384D01*
X140498147Y-147396092D01*
X140475115Y-147386692D01*
X140451516Y-147378185D01*
X140427350Y-147370572D01*
X140402618Y-147363851D01*
X140377319Y-147358024D01*
X140351453Y-147353090D01*
X140325020Y-147349048D01*
X140298021Y-147345900D01*
X140279706Y-147344297D01*
X140251933Y-147342624D01*
X140224116Y-147341818D01*
X140196257Y-147341880D01*
X140168355Y-147342808D01*
X140140409Y-147344604D01*
X140112421Y-147347268D01*
X140084390Y-147350798D01*
X140056316Y-147355196D01*
X140028199Y-147360461D01*
X140000039Y-147366593D01*
X139981242Y-147371163D01*
X139953117Y-147378529D01*
X139925165Y-147386522D01*
X139897384Y-147395142D01*
X139869775Y-147404388D01*
X139842338Y-147414261D01*
X139815073Y-147424761D01*
X139787979Y-147435888D01*
X139770012Y-147443654D01*
X139752121Y-147451699D01*
X139734306Y-147460023D01*
X139716568Y-147468624D01*
X139698906Y-147477505D01*
X139690104Y-147482050D01*
X139672612Y-147491358D01*
X139655307Y-147500963D01*
X139638189Y-147510867D01*
X139621258Y-147521068D01*
X139604514Y-147531566D01*
X139587957Y-147542362D01*
X139571587Y-147553456D01*
X139555404Y-147564848D01*
X139539408Y-147576537D01*
X139523599Y-147588524D01*
X139507977Y-147600809D01*
X139492542Y-147613391D01*
X139477294Y-147626271D01*
X139462233Y-147639449D01*
X139447359Y-147652924D01*
X139432672Y-147666697D01*
X139418260Y-147680642D01*
X139404210Y-147694755D01*
X139390523Y-147709035D01*
X139377199Y-147723484D01*
X139357891Y-147745471D01*
X139339400Y-147767837D01*
X139321724Y-147790580D01*
X139304865Y-147813701D01*
X139288820Y-147837200D01*
X139273592Y-147861076D01*
X139259179Y-147885331D01*
X139245582Y-147909963D01*
X139236715Y-147928306D01*
X139228432Y-147947554D01*
X139220732Y-147967706D01*
X139213617Y-147988762D01*
X139207085Y-148010723D01*
X139201138Y-148033588D01*
X139195774Y-148057358D01*
X139190994Y-148082032D01*
X139186798Y-148107611D01*
X139183186Y-148134094D01*
X139180158Y-148161482D01*
X139177713Y-148189774D01*
X139175853Y-148218970D01*
X139174576Y-148249072D01*
X139173884Y-148280077D01*
X139173775Y-148311987D01*
X139174248Y-148343922D01*
X139175301Y-148375002D01*
X139176935Y-148405227D01*
X139179148Y-148434597D01*
X139181942Y-148463112D01*
X139185315Y-148490773D01*
X139189269Y-148517578D01*
X139193803Y-148543529D01*
X139198917Y-148568625D01*
X139204610Y-148592866D01*
X139210884Y-148616252D01*
X139217739Y-148638784D01*
X139225173Y-148660460D01*
X139233187Y-148681282D01*
X139241781Y-148701249D01*
X139250956Y-148720361D01*
X139261048Y-148738114D01*
X139272273Y-148755652D01*
X139284632Y-148772976D01*
X139298125Y-148790085D01*
X139312751Y-148806979D01*
X139328510Y-148823659D01*
X139345403Y-148840123D01*
X139363429Y-148856374D01*
X139382589Y-148872409D01*
X139402882Y-148888230D01*
X139417041Y-148898658D01*
X139438879Y-148913907D01*
X139461165Y-148928511D01*
X139483896Y-148942472D01*
X139507075Y-148955788D01*
X139530699Y-148968461D01*
X139554771Y-148980489D01*
X139579289Y-148991874D01*
X139604253Y-149002614D01*
X139629664Y-149012711D01*
X139655521Y-149022163D01*
X139673007Y-149028107D01*
X139699476Y-149036512D01*
X139726124Y-149044324D01*
X139752953Y-149051544D01*
X139779963Y-149058172D01*
X139807152Y-149064207D01*
X139834522Y-149069649D01*
X139862073Y-149074499D01*
X139889803Y-149078757D01*
X139917714Y-149082422D01*
X139945805Y-149085494D01*
X139964633Y-149087214D01*
X139992560Y-149089088D01*
X140019920Y-149089950D01*
X140046713Y-149089798D01*
X140072940Y-149088633D01*
X140098599Y-149086455D01*
X140123692Y-149083264D01*
X140148219Y-149079059D01*
X140172178Y-149073841D01*
X140195571Y-149067610D01*
X140218398Y-149060366D01*
X140233300Y-149054974D01*
X140259135Y-149046734D01*
X140284250Y-149037829D01*
X140308644Y-149028259D01*
X140332318Y-149018024D01*
X140355271Y-149007125D01*
X140377505Y-148995560D01*
X140399018Y-148983330D01*
X140419810Y-148970435D01*
X140439882Y-148956875D01*
X140459234Y-148942651D01*
X140477866Y-148927761D01*
X140495777Y-148912206D01*
X140512968Y-148895986D01*
X140529439Y-148879102D01*
X140545189Y-148861552D01*
X140560219Y-148843337D01*
X140574529Y-148824458D01*
X140588118Y-148804913D01*
X140600987Y-148784703D01*
X140613136Y-148763829D01*
X140624564Y-148742289D01*
X140635272Y-148720084D01*
X140645260Y-148697215D01*
X140654528Y-148673680D01*
X140663075Y-148649480D01*
X140670901Y-148624616D01*
X140678008Y-148599086D01*
X140684394Y-148572892D01*
X140690060Y-148546032D01*
X140695005Y-148518508D01*
X140699230Y-148490318D01*
X140702735Y-148461464D01*
X140704706Y-148438991D01*
X140706345Y-148417370D01*
X140707652Y-148396600D01*
X140708627Y-148376681D01*
X140709467Y-148348398D01*
X140709560Y-148322030D01*
X140708906Y-148297576D01*
X140707505Y-148275038D01*
X140705357Y-148254414D01*
X140701331Y-148229894D01*
X140695977Y-148208779D01*
X140694431Y-148204032D01*
X140686592Y-148184362D01*
X140675777Y-148162724D01*
X140665712Y-148145203D01*
X140653972Y-148126574D01*
X140640559Y-148106838D01*
X140625470Y-148085994D01*
X140608708Y-148064042D01*
X140590271Y-148040982D01*
X140577049Y-148024994D01*
X140563083Y-148008513D01*
X140548374Y-147991540D01*
X140530815Y-147971947D01*
X140513309Y-147953347D01*
X140495858Y-147935738D01*
X140478459Y-147919122D01*
X140461114Y-147903498D01*
X140443822Y-147888867D01*
X140426584Y-147875227D01*
X140409399Y-147862580D01*
X140392268Y-147850925D01*
X140375190Y-147840262D01*
X140358166Y-147830592D01*
X140332729Y-147817947D01*
X140307413Y-147807534D01*
X140282217Y-147799354D01*
X140273845Y-147797123D01*
X140249161Y-147792040D01*
X140225301Y-147789429D01*
X140202266Y-147789292D01*
X140180055Y-147791628D01*
X140158669Y-147796436D01*
X140138107Y-147803718D01*
X140118369Y-147813472D01*
X140099455Y-147825699D01*
X140081366Y-147840400D01*
X140064101Y-147857573D01*
X140053049Y-147870396D01*
X140038812Y-147888210D01*
X140026501Y-147905868D01*
X140017472Y-147923626D01*
X140016413Y-147936830D01*
X140032963Y-147947699D01*
X140053507Y-147951027D01*
X140074988Y-147951958D01*
X140078450Y-147951973D01*
X140101160Y-147954000D01*
X140120375Y-147958542D01*
X140140521Y-147965678D01*
X140161598Y-147975410D01*
X140183607Y-147987736D01*
X140200724Y-147998684D01*
X140218366Y-148011092D01*
X140236531Y-148024960D01*
X140248932Y-148035016D01*
X140267385Y-148050848D01*
X140285374Y-148067204D01*
X140302899Y-148084084D01*
X140319961Y-148101488D01*
X140336559Y-148119415D01*
X140352693Y-148137867D01*
X140368364Y-148156842D01*
X140383571Y-148176341D01*
X140398314Y-148196363D01*
X140412594Y-148216910D01*
X140421856Y-148230898D01*
X140434863Y-148251668D01*
X140446591Y-148271845D01*
X140457040Y-148291430D01*
X140466209Y-148310422D01*
X140474098Y-148328822D01*
X140482628Y-148352433D01*
X140488883Y-148374992D01*
X140492863Y-148396496D01*
X140494569Y-148416948D01*
X140494640Y-148421896D01*
X140494064Y-148442493D01*
X140492335Y-148462761D01*
X140489454Y-148482701D01*
X140485420Y-148502313D01*
X140480234Y-148521597D01*
X140473895Y-148540552D01*
X140466403Y-148559180D01*
X140457759Y-148577479D01*
X140447963Y-148595450D01*
X140437014Y-148613093D01*
X140424913Y-148630407D01*
X140411659Y-148647393D01*
X140397252Y-148664052D01*
X140381693Y-148680381D01*
X140364982Y-148696383D01*
X140347117Y-148712057D01*
X140328425Y-148727022D01*
X140309351Y-148741022D01*
X140289896Y-148754057D01*
X140270059Y-148766126D01*
X140249840Y-148777229D01*
X140229240Y-148787367D01*
X140208258Y-148796540D01*
X140186894Y-148804747D01*
X140165149Y-148811988D01*
X140143022Y-148818264D01*
X140120514Y-148823575D01*
X140097623Y-148827919D01*
X140074352Y-148831299D01*
X140050698Y-148833713D01*
X140026663Y-148835161D01*
X140002247Y-148835644D01*
X139975137Y-148835369D01*
X139948643Y-148834545D01*
X139922763Y-148833171D01*
X139897497Y-148831247D01*
X139872846Y-148828774D01*
X139848809Y-148825752D01*
X139825386Y-148822180D01*
X139802578Y-148818058D01*
X139780384Y-148813387D01*
X139758805Y-148808166D01*
X139737840Y-148802396D01*
X139717490Y-148796076D01*
X139697754Y-148789207D01*
X139678632Y-148781788D01*
X139660125Y-148773820D01*
X139642233Y-148765302D01*
X139608290Y-148746617D01*
X139576806Y-148725734D01*
X139547779Y-148702653D01*
X139521210Y-148677374D01*
X139497099Y-148649897D01*
X139475445Y-148620221D01*
X139456249Y-148588348D01*
X139439511Y-148554276D01*
X139430571Y-148527374D01*
X139422618Y-148500523D01*
X139415653Y-148473724D01*
X139409675Y-148446977D01*
X139404685Y-148420281D01*
X139400682Y-148393637D01*
X139397667Y-148367044D01*
X139395639Y-148340502D01*
X139394598Y-148314012D01*
X139394546Y-148287574D01*
X139395059Y-148269977D01*
X139396663Y-148243711D01*
X139399461Y-148217667D01*
X139403452Y-148191847D01*
X139408637Y-148166250D01*
X139415016Y-148140877D01*
X139422588Y-148115726D01*
X139431353Y-148090799D01*
X139441312Y-148066095D01*
X139452465Y-148041615D01*
X139464811Y-148017358D01*
X139473705Y-148001310D01*
X139487678Y-147977575D01*
X139502304Y-147954364D01*
X139517583Y-147931676D01*
X139533514Y-147909513D01*
X139550098Y-147887873D01*
X139567334Y-147866757D01*
X139585223Y-147846165D01*
X139603764Y-147826096D01*
X139622958Y-147806552D01*
X139642805Y-147787531D01*
X139656399Y-147775141D01*
X139677314Y-147756988D01*
X139699029Y-147739529D01*
X139721541Y-147722767D01*
X139744853Y-147706700D01*
X139768963Y-147691328D01*
X139793871Y-147676652D01*
X139819578Y-147662672D01*
X139837160Y-147653738D01*
X139855096Y-147645113D01*
X139873388Y-147636797D01*
X139892034Y-147628791D01*
X139911036Y-147621093D01*
X139920669Y-147617360D01*
X139940081Y-147610191D01*
X139959603Y-147603461D01*
X139979236Y-147597170D01*
X139998980Y-147591318D01*
X140018834Y-147585904D01*
X140038799Y-147580930D01*
X140058875Y-147576394D01*
X140079061Y-147572297D01*
X140099358Y-147568640D01*
X140119766Y-147565421D01*
X140140284Y-147562640D01*
X140160913Y-147560299D01*
X140181652Y-147558397D01*
X140202503Y-147556933D01*
X140223464Y-147555908D01*
X140244535Y-147555323D01*
X140269343Y-147555117D01*
X140293208Y-147555231D01*
X140316131Y-147555666D01*
X140338111Y-147556422D01*
X140359148Y-147557498D01*
X140379243Y-147558895D01*
X140407618Y-147561591D01*
X140433871Y-147565008D01*
X140458004Y-147569147D01*
X140480016Y-147574007D01*
X140499907Y-147579589D01*
X140523129Y-147588152D01*
X140528346Y-147590494D01*
X140548213Y-147601401D01*
X140567028Y-147615071D01*
X140584789Y-147631503D01*
X140601496Y-147650699D01*
X140613336Y-147666910D01*
X140624583Y-147684674D01*
X140635238Y-147703993D01*
X140645300Y-147724865D01*
X140654769Y-147747292D01*
X140657794Y-147755113D01*
X140665837Y-147774128D01*
X140673868Y-147792714D01*
X140677822Y-147801519D01*
X140686827Y-147818983D01*
X140691988Y-147826921D01*
X140703224Y-147839621D01*
X140714459Y-147829852D01*
X140725541Y-147813365D01*
X140728625Y-147807381D01*
X140736815Y-147789475D01*
X140745585Y-147771523D01*
X140748164Y-147766348D01*
X140755782Y-147742458D01*
X140760560Y-147718660D01*
X140762498Y-147694953D01*
X140761598Y-147671338D01*
X140757858Y-147647814D01*
X140751278Y-147624382D01*
X140741860Y-147601042D01*
X140732932Y-147583597D01*
X140729602Y-147577793D01*
X140718661Y-147560614D01*
X140706355Y-147543881D01*
X140692683Y-147527595D01*
X140677647Y-147511756D01*
X140661245Y-147496363D01*
X140643478Y-147481416D01*
X140624345Y-147466916D01*
X140603847Y-147452863D01*
X140581984Y-147439256D01*
X140558756Y-147426095D01*
X140542512Y-147417570D01*
G37*
G36*
X139116133Y-147440040D02*
G01*
X139120367Y-147417111D01*
X139122520Y-147394351D01*
X139120994Y-147374352D01*
X139109811Y-147357188D01*
X139104898Y-147355532D01*
X139079980Y-147358984D01*
X139059960Y-147364947D01*
X139034900Y-147373736D01*
X139015393Y-147381164D01*
X138993646Y-147389848D01*
X138969658Y-147399788D01*
X138943431Y-147410983D01*
X138914963Y-147423433D01*
X138884255Y-147437140D01*
X138851307Y-147452101D01*
X138816119Y-147468319D01*
X138797685Y-147476898D01*
X138778691Y-147485792D01*
X138759137Y-147494999D01*
X138739023Y-147504520D01*
X138736580Y-147507451D01*
X138733649Y-147507451D01*
X138730718Y-147510382D01*
X138727787Y-147510382D01*
X138724856Y-147513313D01*
X138722414Y-147513313D01*
X138719483Y-147515755D01*
X138716552Y-147515755D01*
X138713621Y-147518686D01*
X138711179Y-147518686D01*
X138708248Y-147521617D01*
X138705317Y-147521617D01*
X138702386Y-147524548D01*
X138699944Y-147524548D01*
X138697013Y-147526990D01*
X138694082Y-147526990D01*
X138691151Y-147529921D01*
X138688709Y-147529921D01*
X138685778Y-147532852D01*
X138682847Y-147532852D01*
X138679916Y-147535783D01*
X138677473Y-147535783D01*
X138671612Y-147538226D01*
X138668681Y-147538226D01*
X138648422Y-147547717D01*
X138628436Y-147557200D01*
X138608721Y-147566676D01*
X138589279Y-147576144D01*
X138570108Y-147585605D01*
X138551209Y-147595058D01*
X138532582Y-147604503D01*
X138514228Y-147613941D01*
X138496144Y-147623371D01*
X138478333Y-147632793D01*
X138460794Y-147642208D01*
X138443527Y-147651615D01*
X138409808Y-147670407D01*
X138377177Y-147689168D01*
X138345633Y-147707898D01*
X138315177Y-147726598D01*
X138285809Y-147745267D01*
X138257528Y-147763906D01*
X138230335Y-147782514D01*
X138204230Y-147801092D01*
X138179212Y-147819639D01*
X138155282Y-147838156D01*
X138132627Y-147856426D01*
X138111433Y-147874357D01*
X138091701Y-147891948D01*
X138073430Y-147909200D01*
X138056621Y-147926112D01*
X138041274Y-147942684D01*
X138027389Y-147958917D01*
X138014965Y-147974810D01*
X137999069Y-147998012D01*
X137986463Y-148020451D01*
X137977145Y-148042125D01*
X137971115Y-148063035D01*
X137968375Y-148083181D01*
X137968192Y-148089726D01*
X137973054Y-148111478D01*
X137982480Y-148132453D01*
X137993593Y-148152496D01*
X138004012Y-148169432D01*
X138016216Y-148187999D01*
X138030207Y-148208198D01*
X138045983Y-148230028D01*
X138063546Y-148253490D01*
X138069797Y-148261673D01*
X138082591Y-148278205D01*
X138095695Y-148294829D01*
X138109107Y-148311544D01*
X138122828Y-148328351D01*
X138136859Y-148345250D01*
X138151199Y-148362240D01*
X138165848Y-148379322D01*
X138180806Y-148396495D01*
X138196073Y-148413760D01*
X138211649Y-148431116D01*
X138227534Y-148448564D01*
X138243729Y-148466104D01*
X138260232Y-148483735D01*
X138277045Y-148501458D01*
X138294167Y-148519273D01*
X138311598Y-148537179D01*
X138332255Y-148558989D01*
X138352033Y-148580091D01*
X138370933Y-148600484D01*
X138388954Y-148620168D01*
X138406096Y-148639143D01*
X138422360Y-148657409D01*
X138437745Y-148674967D01*
X138452251Y-148691815D01*
X138465878Y-148707955D01*
X138478627Y-148723385D01*
X138501489Y-148752120D01*
X138520835Y-148778019D01*
X138536667Y-148801083D01*
X138548984Y-148821312D01*
X138560870Y-148846337D01*
X138564415Y-148869781D01*
X138549076Y-148883135D01*
X138536789Y-148883515D01*
X138513006Y-148878333D01*
X138490721Y-148870529D01*
X138464623Y-148859368D01*
X138445107Y-148850062D01*
X138423896Y-148839263D01*
X138400990Y-148826973D01*
X138376391Y-148813190D01*
X138350096Y-148797916D01*
X138322108Y-148781149D01*
X138292424Y-148762890D01*
X138261047Y-148743139D01*
X138227975Y-148721895D01*
X138210803Y-148710714D01*
X138193208Y-148699160D01*
X138175190Y-148687232D01*
X138156748Y-148674932D01*
X138134581Y-148660184D01*
X138113143Y-148646104D01*
X138092433Y-148632691D01*
X138072453Y-148619947D01*
X138053202Y-148607870D01*
X138034680Y-148596461D01*
X138016886Y-148585720D01*
X137999822Y-148575647D01*
X137975591Y-148561790D01*
X137953001Y-148549435D01*
X137932051Y-148538583D01*
X137912741Y-148529233D01*
X137889546Y-148519105D01*
X137868480Y-148511343D01*
X137849002Y-148505641D01*
X137826886Y-148501412D01*
X137807251Y-148500403D01*
X137786964Y-148503443D01*
X137767810Y-148512849D01*
X137765471Y-148514709D01*
X137745798Y-148533960D01*
X137732452Y-148554467D01*
X137725434Y-148576229D01*
X137724743Y-148599247D01*
X137730380Y-148623521D01*
X137742344Y-148649050D01*
X137760635Y-148675834D01*
X137785254Y-148703875D01*
X137799936Y-148718366D01*
X137816201Y-148733170D01*
X137834046Y-148748289D01*
X137853474Y-148763722D01*
X137874484Y-148779468D01*
X137897075Y-148795529D01*
X137921249Y-148811903D01*
X137947004Y-148828591D01*
X137974341Y-148845593D01*
X138003260Y-148862909D01*
X138033761Y-148880539D01*
X138065843Y-148898483D01*
X138099508Y-148916740D01*
X138134754Y-148935312D01*
X138171582Y-148954197D01*
X138209993Y-148973397D01*
X138252980Y-148994380D01*
X138294686Y-149014101D01*
X138335110Y-149032559D01*
X138374253Y-149049753D01*
X138412115Y-149065684D01*
X138448696Y-149080352D01*
X138483995Y-149093757D01*
X138518013Y-149105898D01*
X138550750Y-149116777D01*
X138582205Y-149126392D01*
X138612379Y-149134744D01*
X138641272Y-149141833D01*
X138668883Y-149147658D01*
X138695213Y-149152220D01*
X138720262Y-149155520D01*
X138744030Y-149157556D01*
X138766516Y-149158328D01*
X138787720Y-149157838D01*
X138807644Y-149156084D01*
X138843647Y-149148788D01*
X138874524Y-149136438D01*
X138900277Y-149119036D01*
X138920904Y-149096581D01*
X138936406Y-149069073D01*
X138946782Y-149036512D01*
X138950048Y-149018337D01*
X138949914Y-148993279D01*
X138946113Y-148973968D01*
X138939343Y-148952574D01*
X138929604Y-148929096D01*
X138916895Y-148903535D01*
X138901218Y-148875889D01*
X138882571Y-148846160D01*
X138860956Y-148814348D01*
X138849035Y-148797660D01*
X138836371Y-148780451D01*
X138822966Y-148762722D01*
X138808818Y-148744471D01*
X138793928Y-148725700D01*
X138778295Y-148706408D01*
X138761920Y-148686594D01*
X138744803Y-148666260D01*
X138726944Y-148645405D01*
X138708342Y-148624029D01*
X138688999Y-148602132D01*
X138668912Y-148579714D01*
X138648084Y-148556776D01*
X138626513Y-148533316D01*
X138604200Y-148509335D01*
X138585054Y-148489015D01*
X138566328Y-148468966D01*
X138548021Y-148449188D01*
X138530134Y-148429681D01*
X138512667Y-148410445D01*
X138495619Y-148391480D01*
X138478992Y-148372786D01*
X138462784Y-148354363D01*
X138446996Y-148336211D01*
X138431628Y-148318330D01*
X138416679Y-148300719D01*
X138402151Y-148283380D01*
X138388042Y-148266312D01*
X138374353Y-148249514D01*
X138361083Y-148232988D01*
X138348234Y-148216732D01*
X138335965Y-148200946D01*
X138319178Y-148178748D01*
X138304331Y-148158328D01*
X138291426Y-148139685D01*
X138280460Y-148122819D01*
X138268859Y-148103096D01*
X138259208Y-148082887D01*
X138254754Y-148062888D01*
X138255422Y-148058951D01*
X138266962Y-148042404D01*
X138281679Y-148028155D01*
X138297608Y-148014592D01*
X138317231Y-147999105D01*
X138334373Y-147986228D01*
X138353593Y-147972269D01*
X138374891Y-147957228D01*
X138390244Y-147946600D01*
X138414339Y-147930158D01*
X138430818Y-147919144D01*
X138447629Y-147908088D01*
X138464772Y-147896990D01*
X138482246Y-147885850D01*
X138500053Y-147874669D01*
X138518192Y-147863445D01*
X138536663Y-147852179D01*
X138555466Y-147840872D01*
X138574601Y-147829522D01*
X138594068Y-147818130D01*
X138613867Y-147806697D01*
X138633998Y-147795221D01*
X138654461Y-147783703D01*
X138675256Y-147772144D01*
X138685778Y-147766348D01*
X138706389Y-147754377D01*
X138726704Y-147742397D01*
X138746720Y-147730410D01*
X138766439Y-147718416D01*
X138785860Y-147706414D01*
X138804983Y-147694404D01*
X138823809Y-147682386D01*
X138842337Y-147670361D01*
X138860568Y-147658328D01*
X138878500Y-147646288D01*
X138896136Y-147634240D01*
X138913473Y-147622184D01*
X138930513Y-147610121D01*
X138947255Y-147598050D01*
X138963699Y-147585971D01*
X138979846Y-147573885D01*
X138995376Y-147561971D01*
X139016919Y-147544986D01*
X139036358Y-147529066D01*
X139053693Y-147514212D01*
X139068924Y-147500421D01*
X139085960Y-147483691D01*
X139099256Y-147468853D01*
X139112187Y-147450146D01*
X139116133Y-147440040D01*
G37*
G36*
X137593035Y-147234387D02*
G01*
X137574778Y-147225544D01*
X137562138Y-147241146D01*
X137553712Y-147261422D01*
X137548094Y-147279328D01*
X137542346Y-147303328D01*
X137536640Y-147331913D01*
X137532860Y-147353517D01*
X137529099Y-147377159D01*
X137525357Y-147402839D01*
X137521634Y-147430556D01*
X137517930Y-147460312D01*
X137514246Y-147492106D01*
X137510580Y-147525937D01*
X137506934Y-147561806D01*
X137503306Y-147599714D01*
X137501500Y-147619432D01*
X137499698Y-147639659D01*
X137497901Y-147660396D01*
X137496109Y-147681642D01*
X137494321Y-147703398D01*
X137492539Y-147725663D01*
X137490761Y-147748438D01*
X137488988Y-147771722D01*
X137487225Y-147797070D01*
X137485477Y-147821700D01*
X137483744Y-147845613D01*
X137482027Y-147868808D01*
X137480325Y-147891286D01*
X137478638Y-147913047D01*
X137476966Y-147934090D01*
X137475310Y-147954415D01*
X137473669Y-147974024D01*
X137471236Y-148002090D01*
X137468838Y-148028543D01*
X137466473Y-148053381D01*
X137464144Y-148076606D01*
X137462609Y-148091191D01*
X137460202Y-148112163D01*
X137457744Y-148132396D01*
X137455233Y-148151891D01*
X137451806Y-148176735D01*
X137448288Y-148200266D01*
X137444678Y-148222484D01*
X137440976Y-148243390D01*
X137437182Y-148262983D01*
X137434277Y-148276816D01*
X137429333Y-148298051D01*
X137423242Y-148320354D01*
X137416979Y-148339187D01*
X137408362Y-148358902D01*
X137400572Y-148371094D01*
X137384933Y-148384787D01*
X137365859Y-148392160D01*
X137351235Y-148393564D01*
X137329164Y-148392899D01*
X137308382Y-148390902D01*
X137288887Y-148387575D01*
X137264898Y-148381068D01*
X137243198Y-148372195D01*
X137223789Y-148360956D01*
X137206669Y-148347351D01*
X137191839Y-148331380D01*
X137182219Y-148317849D01*
X137170693Y-148296516D01*
X137162631Y-148277521D01*
X137155066Y-148255958D01*
X137147999Y-148231828D01*
X137141430Y-148205131D01*
X137137328Y-148185906D01*
X137133446Y-148165540D01*
X137129787Y-148144034D01*
X137126348Y-148121386D01*
X137123131Y-148097597D01*
X137120135Y-148072667D01*
X137117361Y-148046596D01*
X137114808Y-148019384D01*
X137112340Y-147996385D01*
X137109822Y-147974161D01*
X137107253Y-147952711D01*
X137104633Y-147932037D01*
X137101963Y-147912137D01*
X137096472Y-147874661D01*
X137090778Y-147840283D01*
X137084882Y-147809005D01*
X137078783Y-147780826D01*
X137072483Y-147755745D01*
X137065980Y-147733763D01*
X137059274Y-147714880D01*
X137048837Y-147692366D01*
X137034213Y-147673193D01*
X137014795Y-147666657D01*
X137010760Y-147667674D01*
X136992808Y-147682690D01*
X136980840Y-147702259D01*
X136971864Y-147721956D01*
X136962889Y-147745954D01*
X136953913Y-147774254D01*
X136947929Y-147795511D01*
X136941945Y-147818680D01*
X136935961Y-147843761D01*
X136929977Y-147870753D01*
X136923993Y-147899658D01*
X136918009Y-147930474D01*
X136915017Y-147946600D01*
X136875938Y-148174234D01*
X136507131Y-147946600D01*
X136485880Y-147933739D01*
X136464992Y-147921290D01*
X136444466Y-147909253D01*
X136424303Y-147897629D01*
X136404502Y-147886417D01*
X136385063Y-147875617D01*
X136365988Y-147865229D01*
X136347274Y-147855253D01*
X136328924Y-147845689D01*
X136310936Y-147836538D01*
X136293310Y-147827798D01*
X136267552Y-147815462D01*
X136242609Y-147804053D01*
X136218482Y-147793572D01*
X136210621Y-147790284D01*
X136187816Y-147781094D01*
X136166479Y-147773122D01*
X136146611Y-147766370D01*
X136122405Y-147759264D01*
X136100808Y-147754326D01*
X136077483Y-147751202D01*
X136054878Y-147751923D01*
X136043070Y-147755113D01*
X136022080Y-147765150D01*
X136004129Y-147780165D01*
X135995385Y-147797923D01*
X135995848Y-147818423D01*
X136002847Y-147836799D01*
X136015739Y-147856930D01*
X136029274Y-147873180D01*
X136040139Y-147884562D01*
X136059963Y-147903201D01*
X136075869Y-147917000D01*
X136093928Y-147931899D01*
X136114139Y-147947897D01*
X136136502Y-147964994D01*
X136161018Y-147983190D01*
X136187687Y-148002485D01*
X136216507Y-148022880D01*
X136247480Y-148044373D01*
X136263774Y-148055532D01*
X136280606Y-148066966D01*
X136297976Y-148078674D01*
X136315884Y-148090657D01*
X136334330Y-148102915D01*
X136353314Y-148115448D01*
X136372836Y-148128255D01*
X136392896Y-148141338D01*
X136413495Y-148154695D01*
X136434631Y-148168326D01*
X136456306Y-148182233D01*
X136478519Y-148196414D01*
X136501270Y-148210870D01*
X136915017Y-148466837D01*
X136892547Y-148858114D01*
X136891596Y-148888047D01*
X136890822Y-148916664D01*
X136890222Y-148943963D01*
X136889799Y-148969947D01*
X136889551Y-148994613D01*
X136889478Y-149017963D01*
X136889581Y-149039997D01*
X136889860Y-149060713D01*
X136890607Y-149089320D01*
X136891749Y-149114964D01*
X136893286Y-149137646D01*
X136895218Y-149157365D01*
X136898408Y-149179049D01*
X136903661Y-149201136D01*
X136910869Y-149220074D01*
X136922100Y-149238644D01*
X136936148Y-149252681D01*
X136956096Y-149263326D01*
X136965819Y-149266000D01*
X136987852Y-149265939D01*
X137007360Y-149258493D01*
X137024343Y-149243660D01*
X137036891Y-149225067D01*
X137045931Y-149205427D01*
X137052533Y-149185941D01*
X137058907Y-149161922D01*
X137063536Y-149140931D01*
X137068037Y-149117391D01*
X137072409Y-149091301D01*
X137076652Y-149062660D01*
X137079410Y-149042149D01*
X137082110Y-149020505D01*
X137084752Y-148997727D01*
X137087338Y-148973816D01*
X137089866Y-148948772D01*
X137092337Y-148922594D01*
X137131905Y-148565511D01*
X137317529Y-148599217D01*
X137339102Y-148602000D01*
X137359489Y-148604122D01*
X137384830Y-148605924D01*
X137408063Y-148606550D01*
X137429190Y-148606000D01*
X137452636Y-148603660D01*
X137472791Y-148599484D01*
X137486545Y-148594820D01*
X137505619Y-148584522D01*
X137521829Y-148572241D01*
X137538325Y-148556596D01*
X137551728Y-148541659D01*
X137565314Y-148524570D01*
X137579083Y-148505328D01*
X137593035Y-148483934D01*
X137603723Y-148466672D01*
X137613620Y-148448774D01*
X137622728Y-148430242D01*
X137631045Y-148411073D01*
X137638573Y-148391270D01*
X137645311Y-148370830D01*
X137651258Y-148349756D01*
X137656416Y-148328046D01*
X137660784Y-148305701D01*
X137664362Y-148282720D01*
X137666308Y-148267046D01*
X137668715Y-148241667D01*
X137670624Y-148212973D01*
X137671620Y-148192003D01*
X137672395Y-148169559D01*
X137672948Y-148145642D01*
X137673280Y-148120252D01*
X137673391Y-148093390D01*
X137673280Y-148065054D01*
X137672948Y-148035245D01*
X137672395Y-148003962D01*
X137671620Y-147971207D01*
X137670624Y-147936979D01*
X137669407Y-147901277D01*
X137667968Y-147864103D01*
X137666308Y-147825455D01*
X137665220Y-147799865D01*
X137664033Y-147774508D01*
X137662747Y-147749383D01*
X137661362Y-147724491D01*
X137659877Y-147699832D01*
X137658294Y-147675406D01*
X137656611Y-147651213D01*
X137654829Y-147627252D01*
X137652947Y-147603524D01*
X137650966Y-147580029D01*
X137648887Y-147556767D01*
X137646707Y-147533738D01*
X137644429Y-147510941D01*
X137642052Y-147488377D01*
X137639575Y-147466046D01*
X137636999Y-147443948D01*
X137634308Y-147422521D01*
X137631610Y-147402205D01*
X137627549Y-147373813D01*
X137623470Y-147347920D01*
X137619374Y-147324526D01*
X137615261Y-147303630D01*
X137609750Y-147279656D01*
X137604209Y-147260125D01*
X137595840Y-147239156D01*
X137593035Y-147234387D01*
G37*
D12*
G36*
X146900879Y-147227073D02*
G01*
X146891512Y-147207166D01*
X146878067Y-147188356D01*
X146864374Y-147174099D01*
X146848071Y-147160543D01*
X146829157Y-147147690D01*
X146807633Y-147135539D01*
X146789777Y-147126886D01*
X146770453Y-147118629D01*
X146746761Y-147110861D01*
X146727031Y-147106007D01*
X146704152Y-147101412D01*
X146678125Y-147097076D01*
X146648949Y-147093001D01*
X146616625Y-147089184D01*
X146581153Y-147085628D01*
X146542532Y-147082330D01*
X146522041Y-147080779D01*
X146500763Y-147079292D01*
X146478697Y-147077871D01*
X146455845Y-147076514D01*
X146432205Y-147075222D01*
X146407779Y-147073995D01*
X146382565Y-147072833D01*
X146356564Y-147071736D01*
X146329776Y-147070704D01*
X146302201Y-147069736D01*
X146273839Y-147068834D01*
X146244689Y-147067996D01*
X146214753Y-147067223D01*
X146184029Y-147066516D01*
X146152519Y-147065872D01*
X146120979Y-147065311D01*
X146090229Y-147064850D01*
X146060269Y-147064487D01*
X146031099Y-147064224D01*
X146002720Y-147064060D01*
X145975130Y-147063995D01*
X145948330Y-147064029D01*
X145922320Y-147064163D01*
X145897100Y-147064396D01*
X145872670Y-147064728D01*
X145849030Y-147065159D01*
X145826180Y-147065689D01*
X145804120Y-147066319D01*
X145782850Y-147067048D01*
X145762369Y-147067876D01*
X145742679Y-147068803D01*
X145705669Y-147070956D01*
X145671818Y-147073505D01*
X145641128Y-147076451D01*
X145613597Y-147079794D01*
X145589226Y-147083534D01*
X145568015Y-147087671D01*
X145542123Y-147094621D01*
X145535073Y-147097136D01*
X145516109Y-147105875D01*
X145499335Y-147116891D01*
X145484751Y-147130181D01*
X145472356Y-147145748D01*
X145462151Y-147163589D01*
X145454135Y-147183706D01*
X145448309Y-147206099D01*
X145444672Y-147230767D01*
X145443226Y-147257710D01*
X145443968Y-147286929D01*
X145445680Y-147307673D01*
X145448290Y-147328850D01*
X145451725Y-147350003D01*
X145455984Y-147371134D01*
X145461067Y-147392242D01*
X145466975Y-147413327D01*
X145473707Y-147434389D01*
X145481263Y-147455428D01*
X145489644Y-147476445D01*
X145498849Y-147497438D01*
X145508878Y-147518409D01*
X145519731Y-147539356D01*
X145531409Y-147560281D01*
X145543911Y-147581183D01*
X145557238Y-147602062D01*
X145571389Y-147622918D01*
X145586364Y-147643751D01*
X145603470Y-147667275D01*
X145620352Y-147690951D01*
X145637008Y-147714780D01*
X145653439Y-147738762D01*
X145669645Y-147762896D01*
X145685626Y-147787183D01*
X145701381Y-147811622D01*
X145716912Y-147836214D01*
X145732217Y-147860959D01*
X145747297Y-147885857D01*
X145762152Y-147910907D01*
X145776782Y-147936110D01*
X145791186Y-147961465D01*
X145805366Y-147986973D01*
X145819320Y-148012634D01*
X145833049Y-148038448D01*
X145844246Y-148059453D01*
X145855306Y-148079240D01*
X145866228Y-148097807D01*
X145877013Y-148115155D01*
X145891179Y-148136389D01*
X145905101Y-148155455D01*
X145918778Y-148172354D01*
X145932212Y-148187085D01*
X145945401Y-148199648D01*
X145961890Y-148212482D01*
X145982085Y-148223886D01*
X146002728Y-148230927D01*
X146023817Y-148233606D01*
X146045352Y-148231923D01*
X146056287Y-148229445D01*
X146079589Y-148224103D01*
X146100242Y-148219655D01*
X146123616Y-148214829D01*
X146149712Y-148209625D01*
X146178531Y-148204044D01*
X146199255Y-148200113D01*
X146221189Y-148196015D01*
X146244333Y-148191748D01*
X146268687Y-148187314D01*
X146294250Y-148182711D01*
X146321023Y-148177941D01*
X146349006Y-148173002D01*
X146378199Y-148167896D01*
X146601926Y-148129794D01*
X146798785Y-148430702D01*
X146810824Y-148449287D01*
X146822454Y-148467309D01*
X146833676Y-148484767D01*
X146844489Y-148501662D01*
X146864891Y-148533759D01*
X146883660Y-148563600D01*
X146900795Y-148591186D01*
X146916297Y-148616517D01*
X146930165Y-148639592D01*
X146942400Y-148660412D01*
X146953002Y-148678976D01*
X146965842Y-148702594D01*
X146975006Y-148721137D01*
X146982114Y-148740764D01*
X146981479Y-148745775D01*
X146960530Y-148750254D01*
X146931806Y-148753285D01*
X146905926Y-148755449D01*
X146874661Y-148757727D01*
X146838011Y-148760120D01*
X146817667Y-148761360D01*
X146795976Y-148762628D01*
X146772940Y-148763924D01*
X146748557Y-148765249D01*
X146722828Y-148766603D01*
X146695753Y-148767986D01*
X146667332Y-148769397D01*
X146637564Y-148770836D01*
X146606450Y-148772305D01*
X146573990Y-148773802D01*
X146540184Y-148775327D01*
X146505032Y-148776881D01*
X146468533Y-148778464D01*
X146430688Y-148780076D01*
X146391497Y-148781716D01*
X146350960Y-148783384D01*
X146309077Y-148785082D01*
X146265847Y-148786808D01*
X146224779Y-148788409D01*
X146184801Y-148790099D01*
X146145912Y-148791878D01*
X146108112Y-148793746D01*
X146071402Y-148795702D01*
X146035782Y-148797747D01*
X146001251Y-148799881D01*
X145967810Y-148802103D01*
X145935458Y-148804415D01*
X145904196Y-148806815D01*
X145874024Y-148809303D01*
X145844941Y-148811881D01*
X145816947Y-148814547D01*
X145790043Y-148817302D01*
X145764229Y-148820145D01*
X145739504Y-148823078D01*
X145715869Y-148826099D01*
X145693323Y-148829209D01*
X145671867Y-148832407D01*
X145651500Y-148835694D01*
X145632223Y-148839070D01*
X145596938Y-148846088D01*
X145566011Y-148853462D01*
X145539441Y-148861190D01*
X145517231Y-148869272D01*
X145499378Y-148877710D01*
X145492086Y-148882062D01*
X145474363Y-148896587D01*
X145461983Y-148912806D01*
X145454021Y-148935463D01*
X145453663Y-148955495D01*
X145458647Y-148977221D01*
X145468974Y-149000642D01*
X145480225Y-149019319D01*
X145494482Y-149038950D01*
X145499902Y-149045705D01*
X145517478Y-149062807D01*
X145534648Y-149074737D01*
X145554580Y-149085109D01*
X145577276Y-149093925D01*
X145596111Y-149099515D01*
X145616500Y-149104229D01*
X145638443Y-149108067D01*
X145661940Y-149111029D01*
X145686992Y-149113116D01*
X145715266Y-149114490D01*
X145736935Y-149115101D01*
X145760860Y-149115467D01*
X145787039Y-149115589D01*
X145815475Y-149115467D01*
X145846165Y-149115101D01*
X145879111Y-149114490D01*
X145914313Y-149113635D01*
X145951770Y-149112536D01*
X145971344Y-149111895D01*
X145991482Y-149111193D01*
X146012184Y-149110429D01*
X146033450Y-149109605D01*
X146055280Y-149108720D01*
X146077673Y-149107773D01*
X146100630Y-149106766D01*
X146124152Y-149105697D01*
X146148237Y-149104568D01*
X146172886Y-149103377D01*
X146198099Y-149102125D01*
X146223875Y-149100812D01*
X146250216Y-149099438D01*
X146283234Y-149098023D01*
X146315490Y-149096584D01*
X146346982Y-149095122D01*
X146377711Y-149093638D01*
X146407676Y-149092130D01*
X146436878Y-149090600D01*
X146465317Y-149089047D01*
X146492993Y-149087471D01*
X146519906Y-149085872D01*
X146546055Y-149084250D01*
X146571441Y-149082605D01*
X146596064Y-149080937D01*
X146619923Y-149079246D01*
X146643019Y-149077533D01*
X146665352Y-149075796D01*
X146686922Y-149074037D01*
X146707873Y-149072244D01*
X146728474Y-149070404D01*
X146748723Y-149068519D01*
X146768621Y-149066588D01*
X146788168Y-149064611D01*
X146816831Y-149061560D01*
X146844703Y-149058406D01*
X146871785Y-149055148D01*
X146898078Y-149051788D01*
X146923580Y-149048325D01*
X146948292Y-149044759D01*
X146972215Y-149041089D01*
X146980013Y-149039843D01*
X147002758Y-149035968D01*
X147024464Y-149031852D01*
X147045130Y-149027496D01*
X147064758Y-149022899D01*
X147089312Y-149016396D01*
X147112019Y-149009465D01*
X147132879Y-149002108D01*
X147151892Y-148994322D01*
X147169057Y-148986110D01*
X147188349Y-148975350D01*
X147205923Y-148964137D01*
X147221780Y-148952472D01*
X147238541Y-148937874D01*
X147252829Y-148922624D01*
X147262847Y-148909418D01*
X147272641Y-148892353D01*
X147280409Y-148873399D01*
X147286151Y-148852557D01*
X147289866Y-148829825D01*
X147291414Y-148809439D01*
X147291667Y-148796577D01*
X147290345Y-148772493D01*
X147286378Y-148746219D01*
X147279766Y-148717756D01*
X147273889Y-148697564D01*
X147266837Y-148676399D01*
X147258609Y-148654261D01*
X147249205Y-148631149D01*
X147238627Y-148607064D01*
X147226872Y-148582007D01*
X147213943Y-148555976D01*
X147199838Y-148528972D01*
X147184557Y-148500994D01*
X147168101Y-148472044D01*
X147150470Y-148442120D01*
X147141214Y-148426794D01*
X147122270Y-148396080D01*
X147103051Y-148365733D01*
X147083557Y-148335752D01*
X147063789Y-148306138D01*
X147043746Y-148276890D01*
X147023428Y-148248008D01*
X147002835Y-148219493D01*
X146981967Y-148191344D01*
X146960825Y-148163561D01*
X146939408Y-148136145D01*
X146917716Y-148109095D01*
X146895750Y-148082411D01*
X146873508Y-148056094D01*
X146850992Y-148030143D01*
X146828201Y-148004559D01*
X146805136Y-147979341D01*
X146782230Y-147955088D01*
X146760042Y-147932400D01*
X146738572Y-147911277D01*
X146717819Y-147891719D01*
X146697783Y-147873725D01*
X146678465Y-147857296D01*
X146659865Y-147842431D01*
X146641981Y-147829131D01*
X146624816Y-147817396D01*
X146600412Y-147802727D01*
X146577623Y-147791579D01*
X146556449Y-147783951D01*
X146536888Y-147779844D01*
X146524745Y-147779062D01*
X146504437Y-147781341D01*
X146485830Y-147788181D01*
X146468923Y-147799579D01*
X146460265Y-147807882D01*
X146447277Y-147824785D01*
X146438540Y-147843620D01*
X146434054Y-147864387D01*
X146433398Y-147876759D01*
X146428360Y-147897977D01*
X146415688Y-147913689D01*
X146398686Y-147925034D01*
X146380189Y-147932994D01*
X146357757Y-147939594D01*
X146352798Y-147940750D01*
X146332381Y-147944590D01*
X146311429Y-147947070D01*
X146289943Y-147948192D01*
X146267923Y-147947956D01*
X146245369Y-147946360D01*
X146222281Y-147943407D01*
X146198658Y-147939094D01*
X146174501Y-147933423D01*
X146151084Y-147926592D01*
X146129682Y-147918799D01*
X146110295Y-147910044D01*
X146092923Y-147900328D01*
X146074042Y-147886830D01*
X146058310Y-147871830D01*
X146045725Y-147855327D01*
X146043586Y-147851846D01*
X146032823Y-147833707D01*
X146020710Y-147813671D01*
X146010440Y-147796784D01*
X145998415Y-147777073D01*
X145984635Y-147754538D01*
X145973147Y-147735783D01*
X145964940Y-147722397D01*
X145952484Y-147702189D01*
X145940577Y-147682778D01*
X145929220Y-147664167D01*
X145918412Y-147646354D01*
X145908154Y-147629339D01*
X145895331Y-147607896D01*
X145883485Y-147587871D01*
X145872616Y-147569267D01*
X145862725Y-147552082D01*
X145860404Y-147548008D01*
X145748541Y-147363849D01*
X146242889Y-147374595D01*
X146268610Y-147374859D01*
X146294118Y-147375038D01*
X146319413Y-147375134D01*
X146344494Y-147375145D01*
X146369361Y-147375072D01*
X146394014Y-147374916D01*
X146418453Y-147374676D01*
X146442679Y-147374351D01*
X146466691Y-147373943D01*
X146490490Y-147373451D01*
X146514074Y-147372874D01*
X146537445Y-147372214D01*
X146560603Y-147371470D01*
X146583546Y-147370642D01*
X146606276Y-147369730D01*
X146628792Y-147368734D01*
X146650614Y-147367665D01*
X146671260Y-147366535D01*
X146700025Y-147364727D01*
X146726146Y-147362780D01*
X146749622Y-147360697D01*
X146770453Y-147358475D01*
X146794114Y-147355300D01*
X146817079Y-147350988D01*
X146836887Y-147344309D01*
X146856907Y-147331151D01*
X146873493Y-147317565D01*
X146889395Y-147299981D01*
X146899930Y-147281730D01*
X146905099Y-147262810D01*
X146904901Y-147243223D01*
X146900879Y-147227073D01*
G37*
G36*
X145301577Y-147651567D02*
G01*
X145288721Y-147633644D01*
X145275313Y-147616877D01*
X145261351Y-147601266D01*
X145246836Y-147586812D01*
X145231767Y-147573514D01*
X145216145Y-147561373D01*
X145199970Y-147550387D01*
X145174669Y-147536078D01*
X145148123Y-147524370D01*
X145120333Y-147515264D01*
X145101114Y-147510638D01*
X145081342Y-147507169D01*
X145061016Y-147504857D01*
X145040137Y-147503700D01*
X145029490Y-147503556D01*
X145004833Y-147504162D01*
X144981176Y-147505983D01*
X144958518Y-147509017D01*
X144936861Y-147513264D01*
X144916203Y-147518725D01*
X144896546Y-147525400D01*
X144877888Y-147533288D01*
X144860230Y-147542390D01*
X144843572Y-147552706D01*
X144820459Y-147570454D01*
X144799596Y-147590934D01*
X144786938Y-147606103D01*
X144775279Y-147622487D01*
X144764620Y-147640084D01*
X144754961Y-147658894D01*
X144746088Y-147679288D01*
X144737788Y-147701637D01*
X144730060Y-147725939D01*
X144722904Y-147752195D01*
X144716321Y-147780405D01*
X144710310Y-147810569D01*
X144704872Y-147842687D01*
X144700006Y-147876759D01*
X144695713Y-147912785D01*
X144691992Y-147950764D01*
X144690346Y-147970487D01*
X144688844Y-147990698D01*
X144687484Y-148011398D01*
X144686268Y-148032586D01*
X144685194Y-148054262D01*
X144684264Y-148076427D01*
X144683477Y-148099081D01*
X144682833Y-148122223D01*
X144682332Y-148145853D01*
X144681974Y-148169972D01*
X144681760Y-148194580D01*
X144681688Y-148219676D01*
X144681688Y-148659801D01*
X144343656Y-148659801D01*
X144316301Y-148266570D01*
X144313427Y-148227095D01*
X144310119Y-148188659D01*
X144306375Y-148151261D01*
X144302196Y-148114903D01*
X144297582Y-148079584D01*
X144292533Y-148045303D01*
X144287049Y-148012062D01*
X144281130Y-147979860D01*
X144274776Y-147948696D01*
X144267987Y-147918572D01*
X144260762Y-147889487D01*
X144253103Y-147861440D01*
X144245009Y-147834433D01*
X144236479Y-147808464D01*
X144227515Y-147783535D01*
X144218115Y-147759644D01*
X144208281Y-147736793D01*
X144198011Y-147714980D01*
X144187306Y-147694207D01*
X144176167Y-147674472D01*
X144164592Y-147655777D01*
X144152582Y-147638120D01*
X144140137Y-147621503D01*
X144127257Y-147605924D01*
X144113942Y-147591384D01*
X144086007Y-147565422D01*
X144056331Y-147543616D01*
X144024915Y-147525965D01*
X144008555Y-147518699D01*
X143987884Y-147511261D01*
X143967392Y-147505189D01*
X143947080Y-147500484D01*
X143926947Y-147497144D01*
X143906994Y-147495171D01*
X143887220Y-147494564D01*
X143867625Y-147495324D01*
X143838569Y-147499025D01*
X143819423Y-147503200D01*
X143800456Y-147508741D01*
X143781668Y-147515649D01*
X143763060Y-147523922D01*
X143744631Y-147533562D01*
X143726382Y-147544568D01*
X143708311Y-147556941D01*
X143699344Y-147563639D01*
X143681674Y-147577794D01*
X143664569Y-147592903D01*
X143648030Y-147608966D01*
X143632055Y-147625982D01*
X143616644Y-147643953D01*
X143601799Y-147662878D01*
X143587518Y-147682757D01*
X143573803Y-147703591D01*
X143560652Y-147725378D01*
X143548066Y-147748119D01*
X143536044Y-147771814D01*
X143524588Y-147796464D01*
X143513696Y-147822067D01*
X143503369Y-147848625D01*
X143493607Y-147876137D01*
X143484410Y-147904602D01*
X143475861Y-147933742D01*
X143468046Y-147963274D01*
X143460963Y-147993200D01*
X143454612Y-148023518D01*
X143448995Y-148054230D01*
X143444110Y-148085335D01*
X143439958Y-148116832D01*
X143436538Y-148148723D01*
X143433852Y-148181007D01*
X143431898Y-148213684D01*
X143430676Y-148246754D01*
X143430188Y-148280217D01*
X143430432Y-148314074D01*
X143431409Y-148348323D01*
X143433119Y-148382965D01*
X143435561Y-148418001D01*
X143437872Y-148443918D01*
X143440162Y-148469097D01*
X143442432Y-148493538D01*
X143444682Y-148517240D01*
X143446912Y-148540203D01*
X143449122Y-148562429D01*
X143451313Y-148583915D01*
X143453483Y-148604663D01*
X143455633Y-148624673D01*
X143459872Y-148662477D01*
X143464032Y-148697328D01*
X143468112Y-148729224D01*
X143472111Y-148758167D01*
X143476031Y-148784156D01*
X143479870Y-148807191D01*
X143483629Y-148827273D01*
X143489117Y-148851856D01*
X143496154Y-148874296D01*
X143499553Y-148881085D01*
X143513339Y-148895368D01*
X143533327Y-148900968D01*
X143553782Y-148899197D01*
X143565498Y-148896228D01*
X143582290Y-148882581D01*
X143592475Y-148865897D01*
X143600451Y-148848033D01*
X143608274Y-148826154D01*
X143614042Y-148807110D01*
X143619723Y-148785808D01*
X143625319Y-148762248D01*
X143629002Y-148745286D01*
X143634277Y-148718635D01*
X143639294Y-148691253D01*
X143644054Y-148663142D01*
X143648556Y-148634301D01*
X143651415Y-148614668D01*
X143654159Y-148594711D01*
X143656788Y-148574429D01*
X143659303Y-148553823D01*
X143661703Y-148532892D01*
X143663989Y-148511637D01*
X143666161Y-148490058D01*
X143668218Y-148468155D01*
X143670160Y-148445927D01*
X143671988Y-148423374D01*
X143673604Y-148403072D01*
X143675276Y-148383074D01*
X143677004Y-148363382D01*
X143680630Y-148324914D01*
X143684480Y-148287667D01*
X143688556Y-148251641D01*
X143692857Y-148216836D01*
X143697383Y-148183253D01*
X143702135Y-148150891D01*
X143707111Y-148119750D01*
X143712313Y-148089830D01*
X143717740Y-148061132D01*
X143723391Y-148033654D01*
X143729269Y-148007398D01*
X143735371Y-147982363D01*
X143741698Y-147958550D01*
X143748251Y-147935957D01*
X143751612Y-147925119D01*
X143758393Y-147904415D01*
X143765304Y-147885048D01*
X143775915Y-147858501D01*
X143786817Y-147834959D01*
X143798011Y-147814422D01*
X143809497Y-147796891D01*
X143825266Y-147778191D01*
X143841554Y-147764834D01*
X143862644Y-147755652D01*
X143875687Y-147754149D01*
X143895932Y-147759587D01*
X143912266Y-147771769D01*
X143928722Y-147790911D01*
X143941144Y-147809836D01*
X143953635Y-147832677D01*
X143966194Y-147859433D01*
X143974605Y-147879445D01*
X143983047Y-147901198D01*
X143991519Y-147924691D01*
X144000022Y-147949925D01*
X144008555Y-147976898D01*
X144016836Y-148004830D01*
X144024583Y-148032937D01*
X144031796Y-148061219D01*
X144038475Y-148089677D01*
X144044619Y-148118311D01*
X144050229Y-148147120D01*
X144055305Y-148176105D01*
X144059846Y-148205265D01*
X144063853Y-148234601D01*
X144067326Y-148264113D01*
X144070264Y-148293800D01*
X144072669Y-148323662D01*
X144074539Y-148353700D01*
X144075874Y-148383914D01*
X144076676Y-148414303D01*
X144076943Y-148444868D01*
X144077017Y-148465841D01*
X144077241Y-148486263D01*
X144077613Y-148506133D01*
X144078803Y-148544220D01*
X144080589Y-148580101D01*
X144082971Y-148613776D01*
X144085948Y-148645245D01*
X144089520Y-148674508D01*
X144093687Y-148701566D01*
X144098450Y-148726418D01*
X144103808Y-148749063D01*
X144109761Y-148769504D01*
X144119808Y-148796028D01*
X144131194Y-148817589D01*
X144143919Y-148834187D01*
X144153147Y-148842495D01*
X144171428Y-148856341D01*
X144192199Y-148869303D01*
X144215460Y-148881380D01*
X144241212Y-148892572D01*
X144259763Y-148899543D01*
X144279420Y-148906120D01*
X144300185Y-148912305D01*
X144322056Y-148918096D01*
X144345034Y-148923494D01*
X144369118Y-148928499D01*
X144394310Y-148933111D01*
X144420608Y-148937330D01*
X144448013Y-148941156D01*
X144476524Y-148944588D01*
X144505084Y-148947516D01*
X144532631Y-148949824D01*
X144559168Y-148951515D01*
X144584693Y-148952587D01*
X144609207Y-148953042D01*
X144632710Y-148952877D01*
X144655201Y-148952095D01*
X144676681Y-148950695D01*
X144697150Y-148948676D01*
X144716607Y-148946039D01*
X144743897Y-148940924D01*
X144768912Y-148934418D01*
X144791650Y-148926521D01*
X144812114Y-148917233D01*
X144830677Y-148905502D01*
X144847043Y-148893818D01*
X144863056Y-148880522D01*
X144877640Y-148865637D01*
X144879036Y-148863988D01*
X144890586Y-148845475D01*
X144898820Y-148826375D01*
X144905357Y-148806729D01*
X144911414Y-148784060D01*
X144915184Y-148767268D01*
X144919478Y-148744855D01*
X144923199Y-148721272D01*
X144925763Y-148701565D01*
X144927961Y-148681110D01*
X144929793Y-148659906D01*
X144931259Y-148637955D01*
X144932358Y-148615256D01*
X144932770Y-148603625D01*
X144933342Y-148578652D01*
X144933722Y-148557918D01*
X144934058Y-148535466D01*
X144934351Y-148511298D01*
X144934602Y-148485412D01*
X144934809Y-148457809D01*
X144934974Y-148428488D01*
X144935060Y-148407987D01*
X144935126Y-148386723D01*
X144935174Y-148364695D01*
X144935203Y-148341904D01*
X144935212Y-148318350D01*
X144935283Y-148286845D01*
X144935497Y-148256261D01*
X144935852Y-148226597D01*
X144936350Y-148197854D01*
X144936989Y-148170032D01*
X144937771Y-148143130D01*
X144938695Y-148117150D01*
X144939761Y-148092089D01*
X144940970Y-148067950D01*
X144942320Y-148044731D01*
X144943813Y-148022433D01*
X144945448Y-148001055D01*
X144947225Y-147980599D01*
X144949144Y-147961063D01*
X144953408Y-147924752D01*
X144958242Y-147892125D01*
X144963644Y-147863180D01*
X144969614Y-147837918D01*
X144976154Y-147816339D01*
X144987029Y-147790875D01*
X144999183Y-147773698D01*
X145007997Y-147766849D01*
X145027658Y-147764499D01*
X145048268Y-147771007D01*
X145068464Y-147782948D01*
X145087078Y-147797386D01*
X145103137Y-147811872D01*
X145111556Y-147820094D01*
X145127077Y-147838178D01*
X145141586Y-147862203D01*
X145150696Y-147881521D01*
X145159355Y-147903480D01*
X145167564Y-147928080D01*
X145175322Y-147955321D01*
X145182630Y-147985203D01*
X145189488Y-148017725D01*
X145195896Y-148052888D01*
X145201853Y-148090693D01*
X145204663Y-148110585D01*
X145207360Y-148131138D01*
X145209945Y-148152351D01*
X145212417Y-148174224D01*
X145214776Y-148196757D01*
X145217023Y-148219950D01*
X145219157Y-148243804D01*
X145221179Y-148268318D01*
X145223088Y-148293492D01*
X145224884Y-148319327D01*
X145225686Y-148340326D01*
X145226625Y-148361069D01*
X145227701Y-148381557D01*
X145228914Y-148401789D01*
X145230265Y-148421766D01*
X145231754Y-148441486D01*
X145234244Y-148470588D01*
X145237043Y-148499114D01*
X145240151Y-148527065D01*
X145243569Y-148554441D01*
X145247296Y-148581241D01*
X145251331Y-148607467D01*
X145254193Y-148624630D01*
X145258515Y-148649062D01*
X145262872Y-148671433D01*
X145267262Y-148691744D01*
X145273170Y-148715618D01*
X145279139Y-148735830D01*
X145286685Y-148755941D01*
X145297411Y-148774481D01*
X145302065Y-148778992D01*
X145323117Y-148787550D01*
X145345923Y-148785352D01*
X145362882Y-148773130D01*
X145375109Y-148756552D01*
X145386146Y-148733929D01*
X145393642Y-148712995D01*
X145400468Y-148688660D01*
X145404647Y-148670548D01*
X145410660Y-148640735D01*
X145415875Y-148609670D01*
X145420292Y-148577354D01*
X145423912Y-148543786D01*
X145426734Y-148508966D01*
X145428758Y-148472894D01*
X145429985Y-148435571D01*
X145430415Y-148396996D01*
X145430330Y-148377239D01*
X145430046Y-148357169D01*
X145429563Y-148336786D01*
X145428881Y-148316091D01*
X145427999Y-148295082D01*
X145426917Y-148273760D01*
X145425636Y-148252126D01*
X145424156Y-148230178D01*
X145422476Y-148207918D01*
X145420597Y-148185344D01*
X145418519Y-148162458D01*
X145416241Y-148139259D01*
X145413764Y-148115747D01*
X145411087Y-148091921D01*
X145408211Y-148067783D01*
X145405136Y-148043332D01*
X145400724Y-148009115D01*
X145396038Y-147976196D01*
X145391076Y-147944574D01*
X145385840Y-147914250D01*
X145380330Y-147885223D01*
X145374544Y-147857494D01*
X145368484Y-147831062D01*
X145362149Y-147805928D01*
X145355539Y-147782092D01*
X145348654Y-147759553D01*
X145341495Y-147738311D01*
X145334061Y-147718367D01*
X145326352Y-147699721D01*
X145314273Y-147674184D01*
X145301577Y-147651567D01*
G37*
D11*
X134853380Y-138001428D02*
X134853380Y-137810952D01*
X134853380Y-137810952D02*
X134805761Y-137715714D01*
X134805761Y-137715714D02*
X134710523Y-137620476D01*
X134710523Y-137620476D02*
X134520047Y-137572857D01*
X134520047Y-137572857D02*
X134186714Y-137572857D01*
X134186714Y-137572857D02*
X133996238Y-137620476D01*
X133996238Y-137620476D02*
X133901000Y-137715714D01*
X133901000Y-137715714D02*
X133853380Y-137810952D01*
X133853380Y-137810952D02*
X133853380Y-138001428D01*
X133853380Y-138001428D02*
X133901000Y-138096666D01*
X133901000Y-138096666D02*
X133996238Y-138191904D01*
X133996238Y-138191904D02*
X134186714Y-138239523D01*
X134186714Y-138239523D02*
X134520047Y-138239523D01*
X134520047Y-138239523D02*
X134710523Y-138191904D01*
X134710523Y-138191904D02*
X134805761Y-138096666D01*
X134805761Y-138096666D02*
X134853380Y-138001428D01*
X133853380Y-137144285D02*
X134853380Y-137144285D01*
X134853380Y-137144285D02*
X133853380Y-136572857D01*
X133853380Y-136572857D02*
X134853380Y-136572857D01*
X134901000Y-135382381D02*
X133615285Y-136239523D01*
X134853380Y-134858571D02*
X134853380Y-134668095D01*
X134853380Y-134668095D02*
X134805761Y-134572857D01*
X134805761Y-134572857D02*
X134710523Y-134477619D01*
X134710523Y-134477619D02*
X134520047Y-134430000D01*
X134520047Y-134430000D02*
X134186714Y-134430000D01*
X134186714Y-134430000D02*
X133996238Y-134477619D01*
X133996238Y-134477619D02*
X133901000Y-134572857D01*
X133901000Y-134572857D02*
X133853380Y-134668095D01*
X133853380Y-134668095D02*
X133853380Y-134858571D01*
X133853380Y-134858571D02*
X133901000Y-134953809D01*
X133901000Y-134953809D02*
X133996238Y-135049047D01*
X133996238Y-135049047D02*
X134186714Y-135096666D01*
X134186714Y-135096666D02*
X134520047Y-135096666D01*
X134520047Y-135096666D02*
X134710523Y-135049047D01*
X134710523Y-135049047D02*
X134805761Y-134953809D01*
X134805761Y-134953809D02*
X134853380Y-134858571D01*
X134377190Y-133668095D02*
X134377190Y-134001428D01*
X133853380Y-134001428D02*
X134853380Y-134001428D01*
X134853380Y-134001428D02*
X134853380Y-133525238D01*
X134377190Y-132810952D02*
X134377190Y-133144285D01*
X133853380Y-133144285D02*
X134853380Y-133144285D01*
X134853380Y-133144285D02*
X134853380Y-132668095D01*
X146510476Y-126782380D02*
X146558095Y-126830000D01*
X146558095Y-126830000D02*
X146700952Y-126877619D01*
X146700952Y-126877619D02*
X146796190Y-126877619D01*
X146796190Y-126877619D02*
X146939047Y-126830000D01*
X146939047Y-126830000D02*
X147034285Y-126734761D01*
X147034285Y-126734761D02*
X147081904Y-126639523D01*
X147081904Y-126639523D02*
X147129523Y-126449047D01*
X147129523Y-126449047D02*
X147129523Y-126306190D01*
X147129523Y-126306190D02*
X147081904Y-126115714D01*
X147081904Y-126115714D02*
X147034285Y-126020476D01*
X147034285Y-126020476D02*
X146939047Y-125925238D01*
X146939047Y-125925238D02*
X146796190Y-125877619D01*
X146796190Y-125877619D02*
X146700952Y-125877619D01*
X146700952Y-125877619D02*
X146558095Y-125925238D01*
X146558095Y-125925238D02*
X146510476Y-125972857D01*
X145510476Y-126877619D02*
X145843809Y-126401428D01*
X146081904Y-126877619D02*
X146081904Y-125877619D01*
X146081904Y-125877619D02*
X145700952Y-125877619D01*
X145700952Y-125877619D02*
X145605714Y-125925238D01*
X145605714Y-125925238D02*
X145558095Y-125972857D01*
X145558095Y-125972857D02*
X145510476Y-126068095D01*
X145510476Y-126068095D02*
X145510476Y-126210952D01*
X145510476Y-126210952D02*
X145558095Y-126306190D01*
X145558095Y-126306190D02*
X145605714Y-126353809D01*
X145605714Y-126353809D02*
X145700952Y-126401428D01*
X145700952Y-126401428D02*
X146081904Y-126401428D01*
X145129523Y-125972857D02*
X145081904Y-125925238D01*
X145081904Y-125925238D02*
X144986666Y-125877619D01*
X144986666Y-125877619D02*
X144748571Y-125877619D01*
X144748571Y-125877619D02*
X144653333Y-125925238D01*
X144653333Y-125925238D02*
X144605714Y-125972857D01*
X144605714Y-125972857D02*
X144558095Y-126068095D01*
X144558095Y-126068095D02*
X144558095Y-126163333D01*
X144558095Y-126163333D02*
X144605714Y-126306190D01*
X144605714Y-126306190D02*
X145177142Y-126877619D01*
X145177142Y-126877619D02*
X144558095Y-126877619D01*
X143939047Y-125877619D02*
X143843809Y-125877619D01*
X143843809Y-125877619D02*
X143748571Y-125925238D01*
X143748571Y-125925238D02*
X143700952Y-125972857D01*
X143700952Y-125972857D02*
X143653333Y-126068095D01*
X143653333Y-126068095D02*
X143605714Y-126258571D01*
X143605714Y-126258571D02*
X143605714Y-126496666D01*
X143605714Y-126496666D02*
X143653333Y-126687142D01*
X143653333Y-126687142D02*
X143700952Y-126782380D01*
X143700952Y-126782380D02*
X143748571Y-126830000D01*
X143748571Y-126830000D02*
X143843809Y-126877619D01*
X143843809Y-126877619D02*
X143939047Y-126877619D01*
X143939047Y-126877619D02*
X144034285Y-126830000D01*
X144034285Y-126830000D02*
X144081904Y-126782380D01*
X144081904Y-126782380D02*
X144129523Y-126687142D01*
X144129523Y-126687142D02*
X144177142Y-126496666D01*
X144177142Y-126496666D02*
X144177142Y-126258571D01*
X144177142Y-126258571D02*
X144129523Y-126068095D01*
X144129523Y-126068095D02*
X144081904Y-125972857D01*
X144081904Y-125972857D02*
X144034285Y-125925238D01*
X144034285Y-125925238D02*
X143939047Y-125877619D01*
X143272380Y-125877619D02*
X142653333Y-125877619D01*
X142653333Y-125877619D02*
X142986666Y-126258571D01*
X142986666Y-126258571D02*
X142843809Y-126258571D01*
X142843809Y-126258571D02*
X142748571Y-126306190D01*
X142748571Y-126306190D02*
X142700952Y-126353809D01*
X142700952Y-126353809D02*
X142653333Y-126449047D01*
X142653333Y-126449047D02*
X142653333Y-126687142D01*
X142653333Y-126687142D02*
X142700952Y-126782380D01*
X142700952Y-126782380D02*
X142748571Y-126830000D01*
X142748571Y-126830000D02*
X142843809Y-126877619D01*
X142843809Y-126877619D02*
X143129523Y-126877619D01*
X143129523Y-126877619D02*
X143224761Y-126830000D01*
X143224761Y-126830000D02*
X143272380Y-126782380D01*
X142272380Y-125972857D02*
X142224761Y-125925238D01*
X142224761Y-125925238D02*
X142129523Y-125877619D01*
X142129523Y-125877619D02*
X141891428Y-125877619D01*
X141891428Y-125877619D02*
X141796190Y-125925238D01*
X141796190Y-125925238D02*
X141748571Y-125972857D01*
X141748571Y-125972857D02*
X141700952Y-126068095D01*
X141700952Y-126068095D02*
X141700952Y-126163333D01*
X141700952Y-126163333D02*
X141748571Y-126306190D01*
X141748571Y-126306190D02*
X142319999Y-126877619D01*
X142319999Y-126877619D02*
X141700952Y-126877619D01*
X139939047Y-126782380D02*
X139986666Y-126830000D01*
X139986666Y-126830000D02*
X140129523Y-126877619D01*
X140129523Y-126877619D02*
X140224761Y-126877619D01*
X140224761Y-126877619D02*
X140367618Y-126830000D01*
X140367618Y-126830000D02*
X140462856Y-126734761D01*
X140462856Y-126734761D02*
X140510475Y-126639523D01*
X140510475Y-126639523D02*
X140558094Y-126449047D01*
X140558094Y-126449047D02*
X140558094Y-126306190D01*
X140558094Y-126306190D02*
X140510475Y-126115714D01*
X140510475Y-126115714D02*
X140462856Y-126020476D01*
X140462856Y-126020476D02*
X140367618Y-125925238D01*
X140367618Y-125925238D02*
X140224761Y-125877619D01*
X140224761Y-125877619D02*
X140129523Y-125877619D01*
X140129523Y-125877619D02*
X139986666Y-125925238D01*
X139986666Y-125925238D02*
X139939047Y-125972857D01*
X139510475Y-126353809D02*
X139177142Y-126353809D01*
X139034285Y-126877619D02*
X139510475Y-126877619D01*
X139510475Y-126877619D02*
X139510475Y-125877619D01*
X139510475Y-125877619D02*
X139034285Y-125877619D01*
X138129523Y-126877619D02*
X138605713Y-126877619D01*
X138605713Y-126877619D02*
X138605713Y-125877619D01*
X137319999Y-126877619D02*
X137796189Y-126877619D01*
X137796189Y-126877619D02*
X137796189Y-125877619D01*
X137034284Y-126830000D02*
X136891427Y-126877619D01*
X136891427Y-126877619D02*
X136653332Y-126877619D01*
X136653332Y-126877619D02*
X136558094Y-126830000D01*
X136558094Y-126830000D02*
X136510475Y-126782380D01*
X136510475Y-126782380D02*
X136462856Y-126687142D01*
X136462856Y-126687142D02*
X136462856Y-126591904D01*
X136462856Y-126591904D02*
X136510475Y-126496666D01*
X136510475Y-126496666D02*
X136558094Y-126449047D01*
X136558094Y-126449047D02*
X136653332Y-126401428D01*
X136653332Y-126401428D02*
X136843808Y-126353809D01*
X136843808Y-126353809D02*
X136939046Y-126306190D01*
X136939046Y-126306190D02*
X136986665Y-126258571D01*
X136986665Y-126258571D02*
X137034284Y-126163333D01*
X137034284Y-126163333D02*
X137034284Y-126068095D01*
X137034284Y-126068095D02*
X136986665Y-125972857D01*
X136986665Y-125972857D02*
X136939046Y-125925238D01*
X136939046Y-125925238D02*
X136843808Y-125877619D01*
X136843808Y-125877619D02*
X136605713Y-125877619D01*
X136605713Y-125877619D02*
X136462856Y-125925238D01*
X135081903Y-125877619D02*
X134891427Y-125877619D01*
X134891427Y-125877619D02*
X134796189Y-125925238D01*
X134796189Y-125925238D02*
X134700951Y-126020476D01*
X134700951Y-126020476D02*
X134653332Y-126210952D01*
X134653332Y-126210952D02*
X134653332Y-126544285D01*
X134653332Y-126544285D02*
X134700951Y-126734761D01*
X134700951Y-126734761D02*
X134796189Y-126830000D01*
X134796189Y-126830000D02*
X134891427Y-126877619D01*
X134891427Y-126877619D02*
X135081903Y-126877619D01*
X135081903Y-126877619D02*
X135177141Y-126830000D01*
X135177141Y-126830000D02*
X135272379Y-126734761D01*
X135272379Y-126734761D02*
X135319998Y-126544285D01*
X135319998Y-126544285D02*
X135319998Y-126210952D01*
X135319998Y-126210952D02*
X135272379Y-126020476D01*
X135272379Y-126020476D02*
X135177141Y-125925238D01*
X135177141Y-125925238D02*
X135081903Y-125877619D01*
X134224760Y-126877619D02*
X134224760Y-125877619D01*
X134224760Y-125877619D02*
X133653332Y-126877619D01*
X133653332Y-126877619D02*
X133653332Y-125877619D01*
X132700951Y-126877619D02*
X133177141Y-126877619D01*
X133177141Y-126877619D02*
X133177141Y-125877619D01*
X132177141Y-126401428D02*
X132177141Y-126877619D01*
X132510474Y-125877619D02*
X132177141Y-126401428D01*
X132177141Y-126401428D02*
X131843808Y-125877619D01*
D10*
%TO.C,SW1*%
X139412000Y-131432132D02*
X139364380Y-131289275D01*
X139364380Y-131289275D02*
X139364380Y-131051180D01*
X139364380Y-131051180D02*
X139412000Y-130955942D01*
X139412000Y-130955942D02*
X139459619Y-130908323D01*
X139459619Y-130908323D02*
X139554857Y-130860704D01*
X139554857Y-130860704D02*
X139650095Y-130860704D01*
X139650095Y-130860704D02*
X139745333Y-130908323D01*
X139745333Y-130908323D02*
X139792952Y-130955942D01*
X139792952Y-130955942D02*
X139840571Y-131051180D01*
X139840571Y-131051180D02*
X139888190Y-131241656D01*
X139888190Y-131241656D02*
X139935809Y-131336894D01*
X139935809Y-131336894D02*
X139983428Y-131384513D01*
X139983428Y-131384513D02*
X140078666Y-131432132D01*
X140078666Y-131432132D02*
X140173904Y-131432132D01*
X140173904Y-131432132D02*
X140269142Y-131384513D01*
X140269142Y-131384513D02*
X140316761Y-131336894D01*
X140316761Y-131336894D02*
X140364380Y-131241656D01*
X140364380Y-131241656D02*
X140364380Y-131003561D01*
X140364380Y-131003561D02*
X140316761Y-130860704D01*
X140364380Y-130527370D02*
X139364380Y-130289275D01*
X139364380Y-130289275D02*
X140078666Y-130098799D01*
X140078666Y-130098799D02*
X139364380Y-129908323D01*
X139364380Y-129908323D02*
X140364380Y-129670228D01*
X139364380Y-128765466D02*
X139364380Y-129336894D01*
X139364380Y-129051180D02*
X140364380Y-129051180D01*
X140364380Y-129051180D02*
X140221523Y-129146418D01*
X140221523Y-129146418D02*
X140126285Y-129241656D01*
X140126285Y-129241656D02*
X140078666Y-129336894D01*
%TO.C,B1*%
X159580761Y-114238809D02*
X159437904Y-114286428D01*
X159437904Y-114286428D02*
X159390285Y-114334047D01*
X159390285Y-114334047D02*
X159342666Y-114429285D01*
X159342666Y-114429285D02*
X159342666Y-114572142D01*
X159342666Y-114572142D02*
X159390285Y-114667380D01*
X159390285Y-114667380D02*
X159437904Y-114715000D01*
X159437904Y-114715000D02*
X159533142Y-114762619D01*
X159533142Y-114762619D02*
X159914094Y-114762619D01*
X159914094Y-114762619D02*
X159914094Y-113762619D01*
X159914094Y-113762619D02*
X159580761Y-113762619D01*
X159580761Y-113762619D02*
X159485523Y-113810238D01*
X159485523Y-113810238D02*
X159437904Y-113857857D01*
X159437904Y-113857857D02*
X159390285Y-113953095D01*
X159390285Y-113953095D02*
X159390285Y-114048333D01*
X159390285Y-114048333D02*
X159437904Y-114143571D01*
X159437904Y-114143571D02*
X159485523Y-114191190D01*
X159485523Y-114191190D02*
X159580761Y-114238809D01*
X159580761Y-114238809D02*
X159914094Y-114238809D01*
X158390285Y-114762619D02*
X158961713Y-114762619D01*
X158675999Y-114762619D02*
X158675999Y-113762619D01*
X158675999Y-113762619D02*
X158771237Y-113905476D01*
X158771237Y-113905476D02*
X158866475Y-114000714D01*
X158866475Y-114000714D02*
X158961713Y-114048333D01*
D13*
X155485714Y-109790000D02*
X153200000Y-109790000D01*
X154342857Y-110932857D02*
X154342857Y-108647142D01*
D10*
%TO.C,SW1*%
X138900000Y-139140000D02*
X138900000Y-132640000D01*
X140580000Y-139140000D02*
X138900000Y-139140000D01*
X140580000Y-138390000D02*
X140580000Y-139140000D01*
X140580000Y-138390000D02*
X140580000Y-132640000D01*
X138900000Y-132640000D02*
X140580000Y-132640000D01*
%TO.C,B1*%
X157480000Y-124300000D02*
X157480000Y-104300000D01*
X157480000Y-104300000D02*
X139700000Y-104300000D01*
X139700000Y-124300000D02*
X157480000Y-124300000D01*
X139700000Y-104300000D02*
X121920000Y-104300000D01*
X121920000Y-124300000D02*
X139700000Y-124300000D01*
X121920000Y-104300000D02*
X121920000Y-124300000D01*
%TD*%
M02*
