M48
; DRILL file {KiCad 7.0.2-0} date 2024 July 21, Sunday 16:06:57
; FORMAT={-:-/ absolute / inch / decimal}
; #@! TF.CreationDate,2024-07-21T16:06:57-04:00
; #@! TF.GenerationSoftware,Kicad,Pcbnew,7.0.2-0
; #@! TF.FileFunction,MixedPlating,1,2
FMAT,2
INCH
; #@! TA.AperFunction,Plated,PTH,ViaDrill
T1C0.0157
; #@! TA.AperFunction,Plated,PTH,ComponentDrill
T2C0.0256
; #@! TA.AperFunction,Plated,PTH,ComponentDrill
T3C0.0394
; #@! TA.AperFunction,Plated,PTH,ComponentDrill
T4C0.0433
; #@! TA.AperFunction,NonPlated,NPTH,ComponentDrill
T5C0.0454
%
G90
G05
T1
X4.2842Y-4.8408
X4.3334Y-4.8408
X4.9043Y-3.6811
X4.9043Y-3.7286
X5.1306Y-3.5809
X5.1306Y-3.6203
X5.1306Y-3.6794
X5.1306Y-3.7187
X5.3964Y-4.3487
X5.3964Y-4.4372
X5.4305Y-3.5346
X5.46Y-3.18
X5.46Y-3.77
X5.4636Y-3.82
X5.4703Y-3.5354
X5.5Y-3.2
X5.54Y-3.18
X5.544Y-3.5691
X5.5676Y-3.955
X5.5834Y-3.5317
X5.6031Y-4.3487
X5.6031Y-4.4372
X5.667Y-3.955
X5.6779Y-5.3307
X5.6779Y-5.3661
X5.6897Y-5.4331
X5.6897Y-5.4764
X5.7Y-4.66
X5.73Y-3.65
X5.76Y-3.4088
X5.77Y-3.65
X5.78Y-3.38
X5.87Y-3.33
X5.87Y-3.49
X5.9Y-3.46
X5.95Y-3.41
X5.9869Y-3.6794
X5.9869Y-3.7286
X6.607Y-4.7817
X6.607Y-4.8211
T2
X5.86Y-3.75
X5.86Y-3.8
X5.86Y-3.85
X5.86Y-3.9
T3
X5.5Y-2.58
T4
X5.3Y-3.3
X5.4Y-3.3
X5.5Y-3.3
X5.6Y-3.3
X5.7Y-3.3
T5
X4.105Y-4.96
X6.915Y-4.96
T0
M30
